<?xml version="1.0" encoding="UTF-8"?>
<svg version="1.1" xmlns="http://www.w3.org/2000/svg" width="144" height="142">
<path d="M0 0 C1.28583984 -0.02449219 2.57167969 -0.04898438 3.89648438 -0.07421875 C24.72290318 -0.137361 40.46198879 9.3712764 54.87890625 23.67578125 C56.3125 25.375 56.3125 25.375 56.3125 27.375 C56.9725 27.375 57.6325 27.375 58.3125 27.375 C68.26761455 40.4067504 72.4884387 55.36980536 72.5 71.625 C72.51224609 72.51574219 72.52449219 73.40648438 72.53710938 74.32421875 C72.57630323 92.32726197 65.90198168 107.01257024 54.3125 120.375 C53.74917969 121.05046875 53.18585938 121.7259375 52.60546875 122.421875 C42.88446583 133.15189341 26.64522573 141.73109513 12.19726562 142.55200195 C9.07552033 142.6069962 5.95422335 142.65159958 2.83203125 142.67016602 C0.84611756 142.68721145 -1.13950773 142.7310716 -3.125 142.77539062 C-22.45093036 142.90100917 -38.39876824 135.07864505 -52.25 121.9453125 C-66.8927784 106.90075054 -72.02187342 89.47387736 -72.06835938 68.90771484 C-71.81544074 54.69203819 -67.39913942 38.16896068 -57.6875 27.375 C-57.0275 27.375 -56.3675 27.375 -55.6875 27.375 C-55.2234375 26.446875 -55.2234375 26.446875 -54.75 25.5 C-54.0625 24.125 -53.375 22.75 -52.6875 21.375 C-52.0275 21.375 -51.3675 21.375 -50.6875 21.375 C-50.6875 20.715 -50.6875 20.055 -50.6875 19.375 C-44.62599387 13.84157963 -37.73809422 9.61701324 -30.4375 5.9375 C-29.78910156 5.6079834 -29.14070313 5.2784668 -28.47265625 4.93896484 C-19.03805334 0.35801541 -10.38146655 0.0102533 0 0 Z M-40.6875 22.375 C-41.35652344 22.88933594 -42.02554688 23.40367188 -42.71484375 23.93359375 C-44.08763364 25.02213538 -45.39746029 26.1895581 -46.6875 27.375 C-46.6875 28.035 -46.6875 28.695 -46.6875 29.375 C-47.3475 29.375 -48.0075 29.375 -48.6875 29.375 C-50.23808677 31.40690839 -51.63136946 33.41151394 -53 35.5625 C-53.60231445 36.5062146 -53.60231445 36.5062146 -54.21679688 37.46899414 C-63.53513433 52.52096937 -66.08777085 69.74864575 -62.625 87.0625 C-57.89655375 104.47966669 -47.1648648 118.18946274 -31.6875 127.375 C-30.76130859 127.95121094 -30.76130859 127.95121094 -29.81640625 128.5390625 C-15.70398115 136.49057944 1.55222556 137.47904717 17.0625 133.875 C35.76527974 128.1741527 49.74013204 115.60050432 59.125 98.5625 C66.09036663 83.64343769 66.26499469 65.91019386 61.3125 50.375 C58.30074569 42.89767651 54.48297532 35.57957039 49.3125 29.375 C48.6525 29.375 47.9925 29.375 47.3125 29.375 C47.3125 28.715 47.3125 28.055 47.3125 27.375 C46.6525 27.375 45.9925 27.375 45.3125 27.375 C45.3125 26.715 45.3125 26.055 45.3125 25.375 C39.29223273 20.17750259 32.72419915 15.35182999 25.3125 12.375 C24.6421875 12.10171875 23.971875 11.8284375 23.28125 11.546875 C0.76151118 3.22436283 -22.24167499 7.85504698 -40.6875 22.375 Z " fill="#C93A38" transform="translate(71.6875,-0.375)"/>
<path d="M0 0 C1.20885864 0.00395782 2.41771729 0.00791565 3.66320801 0.01199341 C4.97768921 0.0233432 6.29217041 0.03469299 7.64648438 0.04638672 C8.31618759 0.0520956 8.98589081 0.05780449 9.67588806 0.06368637 C13.2277074 0.09525883 16.77936919 0.13419398 20.33105469 0.17822266 C23.97782396 0.22173995 27.62416349 0.23775886 31.27115631 0.24745369 C34.09239723 0.26041329 36.91308497 0.29521354 39.73405457 0.33556747 C41.72448104 0.35834875 43.71513201 0.35769565 45.70568848 0.35647583 C55.73236002 0.54229737 63.10654272 2.57552932 70.17773438 9.91357422 C75.2108572 16.27620118 76.85333617 22.19338696 76.58398438 30.29638672 C75.64639153 37.94629201 72.5758722 43.474653 67.02148438 48.72607422 C65.18007059 50.14751644 63.35252973 51.13757107 61.24023438 52.10107422 C62.93891182 56.90292219 65.46463449 61.11556424 68.05273438 65.47607422 C68.47876953 66.20568359 68.90480469 66.93529297 69.34375 67.68701172 C71.4402498 71.23932606 73.59840298 74.64428745 76.06445312 77.95263672 C78.24023438 81.10107422 78.24023438 81.10107422 78.24023438 84.10107422 C73.29023437 84.10107422 68.34023437 84.10107422 63.24023438 84.10107422 C62.72976562 83.17810547 62.21929687 82.25513672 61.69335938 81.30419922 C54.88770277 69.06864973 48.00979126 56.75540954 40.24023438 45.10107422 C40.24023438 44.11107422 40.24023438 43.12107422 40.24023438 42.10107422 C41.79484375 41.90191406 41.79484375 41.90191406 43.38085938 41.69873047 C44.75066703 41.52046783 46.12045782 41.3420756 47.49023438 41.16357422 C48.51310547 41.03305664 48.51310547 41.03305664 49.55664062 40.89990234 C54.48027845 40.35673436 54.48027845 40.35673436 59.24023438 39.10107422 C60.4873784 36.69155399 60.4873784 36.69155399 61.24023438 34.10107422 C61.73523438 33.11107422 61.73523438 33.11107422 62.24023438 32.10107422 C62.6756415 27.83910834 62.71088865 24.18357906 60.99023438 20.22607422 C58.11340059 16.73277605 55.66610279 14.9786623 51.24023438 14.10107422 C49.68312364 14.01700611 48.12284917 13.98326484 46.56347656 13.98754883 C45.18249786 13.98766212 45.18249786 13.98766212 43.77362061 13.98777771 C42.7880719 13.992939 41.80252319 13.99810028 40.78710938 14.00341797 C39.26407196 14.00554039 39.26407196 14.00554039 37.71026611 14.00770569 C34.47022545 14.01329906 31.23025412 14.02585037 27.99023438 14.03857422 C25.79231871 14.04359007 23.59440195 14.04815283 21.39648438 14.05224609 C16.01101956 14.06241502 10.6257045 14.08199184 5.24023438 14.10107422 C5.24023438 22.02107422 5.24023438 29.94107422 5.24023438 38.10107422 C11.18023437 38.10107422 17.12023438 38.10107422 23.24023438 38.10107422 C24.11914062 46.59716797 24.11914062 46.59716797 24.24023438 49.10107422 C22.72602436 50.61528423 21.31550669 50.31417278 19.20507812 50.41748047 C18.39619141 50.459375 17.58730469 50.50126953 16.75390625 50.54443359 C15.90376953 50.58375 15.05363281 50.62306641 14.17773438 50.66357422 C13.32373047 50.70675781 12.46972656 50.74994141 11.58984375 50.79443359 C9.473514 50.90084123 7.35689625 51.00149153 5.24023438 51.10107422 C5.24547119 52.02968262 5.25070801 52.95829102 5.25610352 53.91503906 C5.2731303 57.35531227 5.28567711 60.79554081 5.29516602 64.23583984 C5.30019952 65.72575588 5.3070268 67.21566696 5.31567383 68.70556641 C5.32778243 70.84522726 5.33347244 72.98482289 5.33789062 75.12451172 C5.34312744 76.41276855 5.34836426 77.70102539 5.35375977 79.02832031 C5.24023438 82.10107422 5.24023438 82.10107422 4.24023438 84.10107422 C0.28023437 84.10107422 -3.67976563 84.10107422 -7.75976562 84.10107422 C-7.75976562 56.71107422 -7.75976562 29.32107422 -7.75976562 1.10107422 C-5.07026992 -0.24367363 -3.01125964 -0.01384363 0 0 Z " fill="#CE2E2D" transform="translate(40.759765625,28.89892578125)"/>
<path d="M0 0 C7.90201128 -0.02533211 15.8040121 -0.04285934 23.70605469 -0.05493164 C26.39486852 -0.05939946 29.08365882 -0.06636119 31.77246094 -0.07543945 C35.6347725 -0.08755371 39.49704792 -0.09323945 43.359375 -0.09765625 C44.5636615 -0.10281754 45.767948 -0.10797882 47.00872803 -0.11329651 C48.12958801 -0.11337204 49.250448 -0.11344757 50.40527344 -0.11352539 C51.39122498 -0.115746 52.37717651 -0.11796661 53.39300537 -0.12025452 C55.7541434 -0.01134079 57.74333236 0.32600009 60 1 C60 1.66 60 2.32 60 3 C61.98 3 63.96 3 66 3 C66 3.99 66 4.98 66 6 C65.34 6 64.68 6 64 6 C64 7.98 64 9.96 64 12 C63.41127106 11.85789093 62.82254211 11.71578186 62.2159729 11.56936646 C55.57222075 10.0879372 49.31394488 9.73447465 42.5234375 9.8046875 C41.47217682 9.8075174 40.42091614 9.81034729 39.33779907 9.81326294 C36.01674476 9.82435857 32.69597127 9.84944294 29.375 9.875 C27.10807684 9.88504354 24.84114941 9.89416697 22.57421875 9.90234375 C17.04928685 9.92255199 11.52495365 9.96172088 6 10 C6 18.25 6 26.5 6 35 C12.27 35.33 18.54 35.66 25 36 C25 38.64 25 41.28 25 44 C18.4 44 11.8 44 5 44 C5.33 44.66 5.66 45.32 6 46 C6.09681883 47.80393581 6.13075912 49.6114378 6.1328125 51.41796875 C6.13474609 53.05282227 6.13474609 53.05282227 6.13671875 54.72070312 C6.13285156 55.86474609 6.12898438 57.00878906 6.125 58.1875 C6.12886719 59.31220703 6.13273437 60.43691406 6.13671875 61.59570312 C6.13016681 67.16812416 6.00045218 72.51339321 5 78 C-0.75 78.125 -0.75 78.125 -3 77 C-4.42685094 71.49127167 -4.14967544 65.77479449 -4.125 60.125 C-4.12306641 59.03396973 -4.12113281 57.94293945 -4.11914062 56.81884766 C-4.03441721 39.54233224 -3.48637574 22.26892574 -3 5 C-2.34 5 -1.68 5 -1 5 C-0.67 3.35 -0.34 1.7 0 0 Z " fill="#D12827" transform="translate(38,33)"/>
<path d="M0 0 C3.96 0 7.92 0 12 0 C13.08857473 3.2657242 13.12692335 5.65518115 13.12939453 9.09204102 C13.13254669 10.34666641 13.13569885 11.60129181 13.13894653 12.89393616 C13.13715683 14.26392654 13.1351059 15.63391661 13.1328125 17.00390625 C13.13348607 18.40730303 13.13445655 19.81069969 13.13571167 21.21409607 C13.13718564 24.15372835 13.13504341 27.09333024 13.13037109 30.03295898 C13.12466872 33.80487514 13.12795791 37.57672021 13.13394356 41.34863377 C13.13755279 44.2456262 13.136409 47.14260171 13.13381577 50.03959465 C13.13314777 51.43069403 13.13397048 52.82179494 13.13629532 54.21289253 C13.13882829 56.15437924 13.13428466 58.09587132 13.12939453 60.03735352 C13.12859894 61.14305191 13.12780334 62.24875031 13.12698364 63.38795471 C13 66 13 66 12 68 C10.02090602 68.02686553 8.04171029 68.04633375 6.0625 68.0625 C4.96035156 68.07410156 3.85820313 68.08570312 2.72265625 68.09765625 C0 68 0 68 -1 67 C-1.09935 64.98579276 -1.12799507 62.96807148 -1.12939453 60.95141602 C-1.13254669 59.65659805 -1.13569885 58.36178009 -1.13894653 57.02772522 C-1.13715657 55.60311855 -1.13510557 54.1785122 -1.1328125 52.75390625 C-1.13348564 51.3028105 -1.13445576 49.85171487 -1.13571167 48.40061951 C-1.13718862 45.35487803 -1.13503451 42.30916582 -1.13037109 39.26342773 C-1.12467886 35.35469254 -1.12794961 31.44602609 -1.13394356 27.53729343 C-1.13755358 24.53907247 -1.13640846 21.54086786 -1.13381577 18.54264641 C-1.13314746 17.10130747 -1.13397158 15.65996706 -1.13629532 14.21862984 C-1.13882846 12.20507968 -1.13428449 10.19152433 -1.12939453 8.17797852 C-1.12859894 7.03071793 -1.12780334 5.88345734 -1.12698364 4.70143127 C-1 2 -1 2 0 0 Z " fill="#CA2928" transform="translate(67,45)"/>
<path d="M0 0 C1.20885864 0.00395782 2.41771729 0.00791565 3.66320801 0.01199341 C4.97768921 0.0233432 6.29217041 0.03469299 7.64648438 0.04638672 C8.31618759 0.0520956 8.98589081 0.05780449 9.67588806 0.06368637 C13.2277074 0.09525883 16.77936919 0.13419398 20.33105469 0.17822266 C23.97782396 0.22173995 27.62416349 0.23775886 31.27115631 0.24745369 C34.09239723 0.26041329 36.91308497 0.29521354 39.73405457 0.33556747 C41.72448104 0.35834875 43.71513201 0.35769565 45.70568848 0.35647583 C55.73236002 0.54229737 63.10654272 2.57552932 70.17773438 9.91357422 C76.02585836 17.30648567 76.70033873 23.8308236 76.24023438 33.10107422 C75.58023438 33.10107422 74.92023438 33.10107422 74.24023438 33.10107422 C73.91023438 29.80107422 73.58023438 26.50107422 73.24023438 23.10107422 C71.59023437 23.10107422 69.94023438 23.10107422 68.24023438 23.10107422 C67.74523437 22.11107422 67.74523437 22.11107422 67.24023438 21.10107422 C68.23023437 20.60607422 68.23023437 20.60607422 69.24023438 20.10107422 C69.57023437 19.44107422 69.90023437 18.78107422 70.24023438 18.10107422 C70.73523438 17.60607422 70.73523438 17.60607422 71.24023438 17.10107422 C71.24023438 16.44107422 71.24023438 15.78107422 71.24023438 15.10107422 C69.92023438 15.10107422 68.60023437 15.10107422 67.24023438 15.10107422 C65.77132577 19.32418645 65.13282949 22.74192019 65.24023438 27.22607422 C65.3339939 31.9789611 64.83941383 35.16873238 61.74023438 38.91357422 C60.24023438 40.10107422 60.24023438 40.10107422 58.24023438 40.10107422 C58.24023438 40.76107422 58.24023438 41.42107422 58.24023438 42.10107422 C56.75523438 41.60607422 56.75523438 41.60607422 55.24023438 41.10107422 C55.85898438 40.87419922 56.47773437 40.64732422 57.11523438 40.41357422 C59.87677927 38.70791413 60.25539633 37.13134513 61.24023438 34.10107422 C61.73523438 33.11107422 61.73523438 33.11107422 62.24023438 32.10107422 C62.79858179 26.63571204 62.67970427 22.59884254 59.24023438 18.10107422 C58.25023438 16.61607422 58.25023438 16.61607422 57.24023438 15.10107422 C58.56023437 15.43107422 59.88023438 15.76107422 61.24023438 16.10107422 C61.24023438 14.12107422 61.24023438 12.14107422 61.24023438 10.10107422 C61.90023437 10.10107422 62.56023437 10.10107422 63.24023438 10.10107422 C63.24023438 9.11107422 63.24023438 8.12107422 63.24023438 7.10107422 C62.62148437 7.28669922 62.00273438 7.47232422 61.36523438 7.66357422 C59.24023438 8.10107422 59.24023438 8.10107422 57.24023438 7.10107422 C57.24023438 6.44107422 57.24023438 5.78107422 57.24023438 5.10107422 C27.54023437 4.60607422 27.54023437 4.60607422 -2.75976562 4.10107422 C-2.75976562 5.75107422 -2.75976562 7.40107422 -2.75976562 9.10107422 C-3.74976563 9.59607422 -3.74976563 9.59607422 -4.75976562 10.10107422 C-5.46710549 33.77438502 -5.92186815 57.41664789 -5.75976562 81.10107422 C-1.79976562 81.59607422 -1.79976562 81.59607422 2.24023438 82.10107422 C2.24023438 70.88107422 2.24023438 59.66107422 2.24023438 48.10107422 C8.84023438 48.10107422 15.44023438 48.10107422 22.24023438 48.10107422 C22.24023438 45.46107422 22.24023438 42.82107422 22.24023438 40.10107422 C21.38473999 40.10892944 21.38473999 40.10892944 20.51196289 40.11694336 C17.94223114 40.13765643 15.37251691 40.15071612 12.80273438 40.16357422 C11.45598633 40.17614258 11.45598633 40.17614258 10.08203125 40.18896484 C8.80102539 40.19379883 8.80102539 40.19379883 7.49414062 40.19873047 C6.70338135 40.20396729 5.91262207 40.2092041 5.09790039 40.21459961 C3.24023438 40.10107422 3.24023438 40.10107422 2.24023438 39.10107422 C2.1527523 37.17439914 2.13326103 35.24455561 2.14257812 33.31591797 C2.14580078 32.14609375 2.14902344 30.97626953 2.15234375 29.77099609 C2.16072266 28.53929688 2.16910156 27.30759766 2.17773438 26.03857422 C2.18224609 24.80300781 2.18675781 23.56744141 2.19140625 22.29443359 C2.2032383 19.22993305 2.21972264 16.165527 2.24023438 13.10107422 C2.90023437 13.43107422 3.56023438 13.76107422 4.24023438 14.10107422 C4.57023437 22.02107422 4.90023437 29.94107422 5.24023438 38.10107422 C11.18023437 38.10107422 17.12023438 38.10107422 23.24023438 38.10107422 C24.11914062 46.59716797 24.11914062 46.59716797 24.24023438 49.10107422 C22.72602436 50.61528423 21.31550669 50.31417278 19.20507812 50.41748047 C18.39619141 50.459375 17.58730469 50.50126953 16.75390625 50.54443359 C15.90376953 50.58375 15.05363281 50.62306641 14.17773438 50.66357422 C13.32373047 50.70675781 12.46972656 50.74994141 11.58984375 50.79443359 C9.473514 50.90084123 7.35689625 51.00149153 5.24023438 51.10107422 C5.24547119 52.02968262 5.25070801 52.95829102 5.25610352 53.91503906 C5.2731303 57.35531227 5.28567711 60.79554081 5.29516602 64.23583984 C5.30019952 65.72575588 5.3070268 67.21566696 5.31567383 68.70556641 C5.32778243 70.84522726 5.33347244 72.98482289 5.33789062 75.12451172 C5.34312744 76.41276855 5.34836426 77.70102539 5.35375977 79.02832031 C5.24023438 82.10107422 5.24023438 82.10107422 4.24023438 84.10107422 C0.28023437 84.10107422 -3.67976563 84.10107422 -7.75976562 84.10107422 C-7.75976562 56.71107422 -7.75976562 29.32107422 -7.75976562 1.10107422 C-5.07026992 -0.24367363 -3.01125964 -0.01384363 0 0 Z " fill="#CB2C2C" transform="translate(40.759765625,28.89892578125)"/>
<path d="M0 0 C0.66 0 1.32 0 2 0 C2 0.66 2 1.32 2 2 C2.86625 2.2165625 2.86625 2.2165625 3.75 2.4375 C4.4925 2.623125 5.235 2.80875 6 3 C7.0828125 3.2475 7.0828125 3.2475 8.1875 3.5 C10 4 10 4 11 5 C13.12139814 5.20529659 15.24280569 5.41049635 17.36425781 5.61523438 C20.05748089 6.00839106 22.45546802 6.70773879 25.046875 7.53125 C31.23214291 9.26270955 36.99238928 9.30872972 43.375 9.125 C45.46605801 9.08148961 47.5572107 9.04226871 49.6484375 9.0078125 C50.55770996 8.98348145 51.46698242 8.95915039 52.40380859 8.93408203 C55.04698245 9.0011929 57.42823652 9.405624 60 10 C59.67 11.32 59.34 12.64 59 14 C56.36 14.66 53.72 15.32 51 16 C51 16.33 51 16.66 51 17 C22.88552373 17.81847092 22.88552373 17.81847092 12 13 C11.07960938 12.66742188 10.15921875 12.33484375 9.2109375 11.9921875 C8.48132812 11.66476563 7.75171875 11.33734375 7 11 C6.6278958 9.67696283 6.29369827 8.34262065 6 7 C4.13355094 5.81669817 4.13355094 5.81669817 2 5 C1.01 4.34 0.02 3.68 -1 3 C-0.67 2.01 -0.34 1.02 0 0 Z " fill="#C93736" transform="translate(32,125)"/>
<path d="M0 0 C0.33 0 0.66 0 1 0 C1 24.09 1 48.18 1 73 C4.96 73.495 4.96 73.495 9 74 C9 62.78 9 51.56 9 40 C15.6 40 22.2 40 29 40 C29 37.36 29 34.72 29 32 C28.14450562 32.00785522 28.14450562 32.00785522 27.27172852 32.01586914 C24.70199677 32.03658221 22.13228253 32.0496419 19.5625 32.0625 C18.21575195 32.07506836 18.21575195 32.07506836 16.84179688 32.08789062 C15.56079102 32.09272461 15.56079102 32.09272461 14.25390625 32.09765625 C13.46314697 32.10289307 12.6723877 32.10812988 11.85766602 32.11352539 C10 32 10 32 9 31 C8.91251793 29.07332493 8.89302666 27.14348139 8.90234375 25.21484375 C8.90556641 24.04501953 8.90878906 22.87519531 8.91210938 21.66992188 C8.92048828 20.43822266 8.92886719 19.20652344 8.9375 17.9375 C8.94201172 16.70193359 8.94652344 15.46636719 8.95117188 14.19335938 C8.96300392 11.12885883 8.97948827 8.06445279 9 5 C9.66 5.33 10.32 5.66 11 6 C11.33 13.92 11.66 21.84 12 30 C17.94 30 23.88 30 30 30 C30.87890625 38.49609375 30.87890625 38.49609375 31 41 C29.48578999 42.51421001 28.07527232 42.21309856 25.96484375 42.31640625 C25.15595703 42.35830078 24.34707031 42.40019531 23.51367188 42.44335938 C22.66353516 42.48267578 21.81339844 42.52199219 20.9375 42.5625 C20.08349609 42.60568359 19.22949219 42.64886719 18.34960938 42.69335938 C16.23327963 42.79976702 14.11666187 42.90041731 12 43 C12.00523682 43.9286084 12.01047363 44.8572168 12.01586914 45.81396484 C12.03289593 49.25423805 12.04544273 52.69446659 12.05493164 56.13476562 C12.05996514 57.62468166 12.06679242 59.11459274 12.07543945 60.60449219 C12.08754805 62.74415304 12.09323807 64.88374868 12.09765625 67.0234375 C12.10289307 68.31169434 12.10812988 69.59995117 12.11352539 70.92724609 C12 74 12 74 11 76 C7.04 76 3.08 76 -1 76 C-1.02320072 66.97676203 -1.04095447 57.95353438 -1.05181217 48.93027306 C-1.0570241 44.74012572 -1.064091 40.54999884 -1.07543945 36.35986328 C-1.08632847 32.31390813 -1.09228957 28.26797262 -1.09487724 24.22200394 C-1.09672066 22.68069779 -1.10032037 21.13939269 -1.10573006 19.59809494 C-1.11302035 17.43435111 -1.11398758 15.27068778 -1.11352539 13.10693359 C-1.115746 11.87671478 -1.11796661 10.64649597 -1.12025452 9.3789978 C-1.00579651 6.16287461 -0.60871646 3.15632571 0 0 Z " fill="#AF3835" transform="translate(34,37)"/>
<path d="M0 0 C0.33 0.66 0.66 1.32 1 2 C1.66 2 2.32 2 3 2 C3.33 3.98 3.66 5.96 4 8 C3.34 7.67 2.68 7.34 2 7 C1.67 7.66 1.34 8.32 1 9 C2.65 9.33 4.3 9.66 6 10 C6.33 13.96 6.66 17.92 7 22 C6.34 22.33 5.68 22.66 5 23 C4.566875 24.485 4.566875 24.485 4.125 26 C3.75375 26.99 3.3825 27.98 3 29 C0.9375 29.6875 0.9375 29.6875 -1 30 C-1.33 30.99 -1.66 31.98 -2 33 C-2.99 33 -3.98 33 -5 33 C-5.33 32.34 -5.66 31.68 -6 31 C-6.33 31.66 -6.66 32.32 -7 33 C-7.99 32.67 -8.98 32.34 -10 32 C-9.01 30.515 -9.01 30.515 -8 29 C-8.66 29 -9.32 29 -10 29 C-10 28.34 -10 27.68 -10 27 C-9.34 27 -8.68 27 -8 27 C-7.67 26.01 -7.34 25.02 -7 24 C-6.34 23.67 -5.68 23.34 -5 23 C-3.44081571 18.80666585 -4.02126546 14.3671609 -4.16015625 9.97265625 C-3.93258845 5.7487758 -2.99888956 2.99888956 0 0 Z " fill="#D32928" transform="translate(109,42)"/>
<path d="M0 0 C2.125 0.375 2.125 0.375 4 1 C4.02505615 1.99854004 4.0501123 2.99708008 4.07592773 4.02587891 C4.17048308 7.74963019 4.270584 11.47321574 4.37231445 15.19677734 C4.41548205 16.80481067 4.45716901 18.41288448 4.49731445 20.02099609 C4.55546006 22.33964205 4.61902391 24.65808761 4.68359375 26.9765625 C4.70030624 27.68930328 4.71701874 28.40204407 4.73423767 29.13638306 C4.85260564 33.17344506 5.23768071 37.03376939 6 41 C4.68 41 3.36 41 2 41 C2 40.34 2 39.68 2 39 C1.34 39 0.68 39 0 39 C-3.88512195 33.17231707 -3.15348719 26.3377029 -3.125 19.5625 C-3.12886719 18.64662109 -3.13273438 17.73074219 -3.13671875 16.78710938 C-3.11709202 3.11709202 -3.11709202 3.11709202 0 0 Z " fill="#BF2423" transform="translate(3,52)"/>
<path d="M0 0 C9.9 0 19.8 0 30 0 C30.495 0.99 30.495 0.99 31 2 C31.825 2.309375 32.65 2.61875 33.5 2.9375 C34.325 3.288125 35.15 3.63875 36 4 C36.495 5.485 36.495 5.485 37 7 C39.31 7 41.62 7 44 7 C44 7.99 44 8.98 44 10 C39.51602464 9.57295473 35.2762888 9.07448687 30.91015625 7.97265625 C25.3920917 6.71732943 20.01069978 6.74278757 14.375 6.8125 C13.37726563 6.81314453 12.37953125 6.81378906 11.3515625 6.81445312 C7.1579089 6.83941535 3.11131412 6.90201354 -1.0234375 7.63671875 C-4 8 -4 8 -7 6 C-7 5.34 -7 4.68 -7 4 C-4.33333333 4 -1.66666667 4 1 4 C0.34 3.67 -0.32 3.34 -1 3 C-0.67 2.01 -0.34 1.02 0 0 Z " fill="#CB2827" transform="translate(57,0)"/>
<path d="M0 0 C-0.33 0.99 -0.66 1.98 -1 3 C-1.66 3 -2.32 3 -3 3 C-2.67 6.96 -2.34 10.92 -2 15 C-4.8125 17.0625 -4.8125 17.0625 -8 19 C-12.04793504 17.65068832 -12.51921233 15.80556569 -14.5625 12.125 C-16.3073944 9.0104573 -18.01920635 5.97119047 -20 3 C-20 2.01 -20 1.02 -20 0 C-13.09811029 -0.83854735 -6.88577812 -1.01593448 0 0 Z " fill="#CF2826" transform="translate(101,71)"/>
<path d="M0 0 C0.61875 0.639375 1.2375 1.27875 1.875 1.9375 C2.91352941 2.96152481 3.95578563 3.98177287 5 5 C5.69351562 5.68964844 6.38703125 6.37929687 7.1015625 7.08984375 C13.52822999 13.21297157 20.07654128 17.13762435 28 21 C28 21.33 28 21.66 28 22 C22.2596357 22.15945456 18.7757087 21.1838058 14 18 C14 17.34 14 16.68 14 16 C13.01 16.99 12.02 17.98 11 19 C13.63904371 20.41377341 16.07120629 21.37240135 19 22 C19 23.32 19 24.64 19 26 C10.28010219 22.89924211 1.80466179 16.2101931 -4 9 C-4.33 8.01 -4.66 7.02 -5 6 C-1 7 -1 7 3 8 C2.505 7.608125 2.01 7.21625 1.5 6.8125 C-0.45593143 4.44908285 -0.24207973 2.98564997 0 0 Z " fill="#C64B4C" transform="translate(20,109)"/>
<path d="M0 0 C8.56315064 1.70366348 15.54205372 4.46357205 23 9 C19.90279155 9.87840996 18.09354597 9.99435406 15 9 C15 10.65 15 12.3 15 14 C14.06800781 13.66226562 13.13601562 13.32453125 12.17578125 12.9765625 C-1.1241498 8.27089261 -12.8385865 6.40532431 -27 8 C-28.31677734 8.14695312 -28.31677734 8.14695312 -29.66015625 8.296875 C-31.44269511 8.51065391 -33.22202729 8.75108382 -35 9 C-34.67 8.01 -34.34 7.02 -34 6 C-18.3972032 2.77995972 -2.16462513 4.75920596 13 9 C13 8.01 13 7.02 13 6 C10.69 6.33 8.38 6.66 6 7 C5.505 5.02 5.505 5.02 5 3 C3.02 2.67 1.04 2.34 -1 2 C-0.67 1.34 -0.34 0.68 0 0 Z " fill="#C44C4C" transform="translate(88,1)"/>
<path d="M0 0 C-0.66 1.98 -1.32 3.96 -2 6 C-0.68 6 0.64 6 2 6 C2 5.01 2 4.02 2 3 C2.66 3 3.32 3 4 3 C4 3.66 4 4.32 4 5 C4.66 5.33 5.32 5.66 6 6 C-13.11075148 16.30579792 -13.11075148 16.30579792 -22 14 C-18.5647952 11.70986347 -17.014669 11.82157027 -13 12 C-13 11.01 -13 10.02 -13 9 C-14.98 8.34 -16.96 7.68 -19 7 C-19 6.67 -19 6.34 -19 6 C-18.10796875 5.73445312 -17.2159375 5.46890625 -16.296875 5.1953125 C-15.12640625 4.84210938 -13.9559375 4.48890625 -12.75 4.125 C-11.58984375 3.77695313 -10.4296875 3.42890625 -9.234375 3.0703125 C-6.14661577 2.04851778 -3.23581687 0 0 0 Z " fill="#C22E30" transform="translate(104,127)"/>
<path d="M0 0 C0.33 0 0.66 0 1 0 C1.33 21.78 1.66 43.56 2 66 C1.01 66 0.02 66 -1 66 C-1.02312659 57.54232666 -1.0409167 49.08466644 -1.05181217 40.62696934 C-1.05704031 36.70011342 -1.06413669 32.77327906 -1.07543945 28.84643555 C-1.0862708 25.05985743 -1.09227736 21.2733001 -1.09487724 17.48670769 C-1.09673105 16.03895681 -1.10035081 14.59120712 -1.10573006 13.14346504 C-1.11294367 11.12242865 -1.11340808 9.10137152 -1.11352539 7.08032227 C-1.115746 5.92782486 -1.11796661 4.77532745 -1.12025452 3.58790588 C-1 1 -1 1 0 0 Z " fill="#C6928F" transform="translate(67,46)"/>
<path d="M0 0 C1.24113556 0.02009628 2.48227112 0.04019257 3.76101685 0.06089783 C5.12046525 0.08809617 6.47991142 0.11540698 7.83935547 0.14282227 C9.22654453 0.16712126 10.61374163 0.19096493 12.00094604 0.21437073 C15.65396277 0.27723371 19.30683726 0.346294 22.9597168 0.41662598 C26.68645749 0.48728948 30.41329911 0.5521183 34.14013672 0.61743164 C41.45405042 0.7464725 48.76782372 0.88205762 56.08154297 1.02172852 C56.08154297 1.68172852 56.08154297 2.34172852 56.08154297 3.02172852 C35.62154297 3.02172852 15.16154297 3.02172852 -5.91845703 3.02172852 C-6.24845703 4.01172852 -6.57845703 5.00172852 -6.91845703 6.02172852 C-7.24845703 4.37172852 -7.57845703 2.72172852 -7.91845703 1.02172852 C-5.17997497 -0.34751252 -3.06406076 -0.05582297 0 0 Z " fill="#B74843" transform="translate(40.91845703125,28.978271484375)"/>
<path d="M0 0 C0.99 1.485 0.99 1.485 2 3 C-5.75 3.125 -5.75 3.125 -8 2 C-8 1.34 -8 0.68 -8 0 C-37.7 -0.495 -37.7 -0.495 -68 -1 C-68 0.65 -68 2.3 -68 4 C-68.99 4 -69.98 4 -71 4 C-71.33 5.65 -71.66 7.3 -72 9 C-72.33 9 -72.66 9 -73 9 C-73 5.7 -73 2.4 -73 -1 C-70.33026064 -2.33486968 -68.21371579 -2.1842119 -65.22436523 -2.25292969 C-64.0122789 -2.28255798 -62.80019257 -2.31218628 -61.55137634 -2.3427124 C-59.57494896 -2.38189789 -59.57494896 -2.38189789 -57.55859375 -2.421875 C-56.5521667 -2.44266491 -56.5521667 -2.44266491 -55.52540779 -2.46387482 C-51.9684401 -2.53718487 -48.41141671 -2.60470535 -44.85424805 -2.66748047 C-41.19807252 -2.73307796 -37.54260877 -2.81774098 -33.88694668 -2.9070549 C-31.06189541 -2.97258478 -28.23670843 -3.02384422 -25.41130257 -3.07138824 C-23.41440579 -3.10856857 -21.4178043 -3.16065642 -19.42124939 -3.21307373 C-5.96356823 -3.39866284 -5.96356823 -3.39866284 0 0 Z " fill="#CD2B2C" transform="translate(106,34)"/>
<path d="M0 0 C2.97 0.495 2.97 0.495 6 1 C6.22102569 11.2531361 5.9679704 20.89658054 4 31 C0.52004109 27.52004109 0.8605508 22.989 0.68359375 18.26171875 C0.64169922 17.19501953 0.59980469 16.12832031 0.55664062 15.02929688 C0.51732422 13.92650391 0.47800781 12.82371094 0.4375 11.6875 C0.39431641 10.56537109 0.35113281 9.44324219 0.30664062 8.28710938 C0.20085213 5.52485431 0.09876328 2.7625137 0 0 Z " fill="#CD2827" transform="translate(137,57)"/>
<path d="M0 0 C3 2 3 2 3.6875 4.625 C3.790625 5.40875 3.89375 6.1925 4 7 C4.99 6.67 5.98 6.34 7 6 C6.79503906 6.64066406 6.59007812 7.28132813 6.37890625 7.94140625 C6.10949219 8.80636719 5.84007812 9.67132813 5.5625 10.5625 C5.29566406 11.40941406 5.02882813 12.25632812 4.75390625 13.12890625 C3.12965156 19.31453941 2.76977851 25.58063085 2.4375 31.9375 C2.37272461 33.10635742 2.37272461 33.10635742 2.30664062 34.29882812 C2.20171923 36.19907117 2.1004755 38.09951669 2 40 C1.67 40 1.34 40 1 40 C0.67 31.09 0.34 22.18 0 13 C-1.32 13 -2.64 13 -4 13 C-3.52140759 11.39566191 -3.04210442 9.79153584 -2.5625 8.1875 C-2.29566406 7.29417969 -2.02882812 6.40085937 -1.75390625 5.48046875 C-1.19612127 3.64526945 -0.60655425 1.81966274 0 0 Z " fill="#C5403C" transform="translate(6,40)"/>
<path d="M0 0 C1 1 1 1 1.3125 3.875 C1 7 1 7 -0.625 8.9375 C-3.81564458 10.36489363 -5.67939213 9.93843266 -9 9 C-11 7 -11 7 -11.4375 4.0625 C-11 1 -11 1 -8.875 -1 C-5.17882636 -2.28562562 -3.50138898 -1.59154044 0 0 Z " fill="#C85A56" transform="translate(77,13)"/>
<path d="M0 0 C1.27875 -0.061875 2.5575 -0.12375 3.875 -0.1875 C4.95394531 -0.23970703 4.95394531 -0.23970703 6.0546875 -0.29296875 C6.69664063 -0.19628906 7.33859375 -0.09960938 8 0 C10.15502531 3.23253796 10.46856135 4.25150923 10 8 C8.875 9.8125 8.875 9.8125 7 11 C3.85075452 11.39365568 1.88090884 11.52854531 -0.875 9.875 C-2.4682099 7.21965017 -2.20214032 5.03210482 -2 2 C-1.34 2 -0.68 2 0 2 C0 1.34 0 0.68 0 0 Z " fill="#BF2928" transform="translate(68,120)"/>
<path d="M0 0 C2 2 2 2 2.3125 5.5 C2.1578125 7.2325 2.1578125 7.2325 2 9 C-1 11 -1 11 -4.625 10.75 C-5.73875 10.5025 -6.8525 10.255 -8 10 C-9.41441874 7.17116253 -9.31900332 5.12623255 -9 2 C-6.12524616 -1.3006433 -4.03854228 -1.38160657 0 0 Z " fill="#CF2A29" transform="translate(130,66)"/>
<path d="M0 0 C2.25 1.25 2.25 1.25 3.25 2.25 C3.51587831 5.30760057 3.68409881 7.45840805 2.1875 10.1875 C-0.90212727 11.88181173 -3.42217418 10.98951685 -6.75 10.25 C-7.75 9.25 -7.75 9.25 -8.125 5.875 C-7.75 2.25 -7.75 2.25 -5.5625 0.1875 C-2.75 -0.75 -2.75 -0.75 0 0 Z " fill="#BF5053" transform="translate(19.75,65.75)"/>
<path d="M0 0 C5.35294871 0.9732634 10.4343151 1.95621007 15 5 C15.1875 8.625 15.1875 8.625 15 12 C12.03824877 11.38722388 10.61941217 10.74627478 8 9 C6.33985384 8.63557767 4.67293936 8.30027117 3 8 C2.34 7.67 1.68 7.34 1 7 C1 6.01 1 5.02 1 4 C0.34 3.67 -0.32 3.34 -1 3 C-0.34 3 0.32 3 1 3 C0.67 2.01 0.34 1.02 0 0 Z " fill="#C33231" transform="translate(102,9)"/>
<path d="M0 0 C0.95310059 0.05236816 1.90620117 0.10473633 2.88818359 0.15869141 C3.91943359 0.21025391 4.95068359 0.26181641 6.01318359 0.31494141 C7.63353516 0.41162109 7.63353516 0.41162109 9.28662109 0.51025391 C10.37458984 0.56697266 11.46255859 0.62369141 12.58349609 0.68212891 C15.27684496 0.82388411 17.96930039 0.97532032 20.66162109 1.13525391 C20.66162109 1.79525391 20.66162109 2.45525391 20.66162109 3.13525391 C21.98162109 3.79525391 23.30162109 4.45525391 24.66162109 5.13525391 C24.66162109 5.46525391 24.66162109 5.79525391 24.66162109 6.13525391 C17.40162109 6.13525391 10.14162109 6.13525391 2.66162109 6.13525391 C2.99162109 5.47525391 3.32162109 4.81525391 3.66162109 4.13525391 C3.08412109 3.99087891 2.50662109 3.84650391 1.91162109 3.69775391 C-0.17171224 3.17692057 -2.25504557 2.65608724 -4.33837891 2.13525391 C-2.33837891 0.13525391 -2.33837891 0.13525391 0 0 Z " fill="#CD2826" transform="translate(58.33837890625,135.86474609375)"/>
<path d="M0 0 C3.63 0.33 7.26 0.66 11 1 C10.67 1.66 10.34 2.32 10 3 C7.69 3 5.38 3 3 3 C3.00523682 3.9286084 3.01047363 4.8572168 3.01586914 5.81396484 C3.03289593 9.25423805 3.04544273 12.69446659 3.05493164 16.13476562 C3.05996514 17.62468166 3.06679242 19.11459274 3.07543945 20.60449219 C3.08754805 22.74415304 3.09323807 24.88374868 3.09765625 27.0234375 C3.10289307 28.31169434 3.10812988 29.59995117 3.11352539 30.92724609 C3 34 3 34 2 36 C-1.96 36 -5.92 36 -10 36 C-9.67 35.34 -9.34 34.68 -9 34 C-8.95977609 31.6670134 -8.95679753 29.33293334 -9 27 C-8.67 27 -8.34 27 -8 27 C-8 28.98 -8 30.96 -8 33 C-4.04 33.495 -4.04 33.495 0 34 C0 22.78 0 11.56 0 0 Z " fill="#B74544" transform="translate(43,77)"/>
<path d="M0 0 C3.3125 -0.3125 3.3125 -0.3125 7 0 C9.56110377 2.80895252 9.97306037 4.52406656 10.1875 8.3125 C10.125625 9.199375 10.06375 10.08625 10 11 C10.99 11.33 11.98 11.66 13 12 C13 12.66 13 13.32 13 14 C11.68 14.33 10.36 14.66 9 15 C8.67 14.34 8.34 13.68 8 13 C7.36578125 12.91878906 6.7315625 12.83757812 6.078125 12.75390625 C5.04945312 12.38072266 5.04945312 12.38072266 4 12 C2.734375 9.27734375 2.734375 9.27734375 1.75 5.9375 C1.41484375 4.83277344 1.0796875 3.72804688 0.734375 2.58984375 C0.49203125 1.73519531 0.2496875 0.88054687 0 0 Z " fill="#C73E3A" transform="translate(10,103)"/>
<path d="M0 0 C1.485 0.99 1.485 0.99 3 2 C3.38818359 4.30664062 3.38818359 4.30664062 3.3984375 7.15625 C3.40230469 8.17847656 3.40617188 9.20070313 3.41015625 10.25390625 C3.39855469 11.32511719 3.38695312 12.39632812 3.375 13.5 C3.38660156 14.57121094 3.39820313 15.64242187 3.41015625 16.74609375 C3.40628906 17.76832031 3.40242187 18.79054688 3.3984375 19.84375 C3.39505371 20.78412109 3.39166992 21.72449219 3.38818359 22.69335938 C3.19603271 23.83514648 3.19603271 23.83514648 3 25 C2.01 25.66 1.02 26.32 0 27 C-1.59467014 23.81065971 -1.14285117 20.37382982 -1.125 16.875 C-1.12886719 16.14023438 -1.13273438 15.40546875 -1.13671875 14.6484375 C-1.12797741 9.68335463 -0.70218318 4.91528227 0 0 Z " fill="#D42927" transform="translate(3,59)"/>
<path d="M0 0 C4.01455327 1.93293305 7.76155525 4.24485076 11.5625 6.5625 C13.67386195 7.80766217 15.79266748 8.93721027 18 10 C18 10.33 18 10.66 18 11 C12.2596357 11.15945456 8.7757087 10.1838058 4 7 C4 6.34 4 5.68 4 5 C3.01 5.99 2.02 6.98 1 8 C3.63904371 9.41377341 6.07120629 10.37240135 9 11 C9 12.32 9 13.64 9 15 C4.32894208 13.44298069 0.91294315 10.91552627 -3 8 C-2.26330078 7.34064453 -2.26330078 7.34064453 -1.51171875 6.66796875 C0.27541725 5.04157708 0.27541725 5.04157708 0.1875 2.3125 C0.125625 1.549375 0.06375 0.78625 0 0 Z " fill="#CF5D5C" transform="translate(30,120)"/>
<path d="M0 0 C9.9 0 19.8 0 30 0 C30 0.33 30 0.66 30 1 C28.02 1.33 26.04 1.66 24 2 C23.67 2.99 23.34 3.98 23 5 C19.04 5 15.08 5 11 5 C11 4.01 11 3.02 11 2 C9.9275 2.04125 8.855 2.0825 7.75 2.125 C4 2 4 2 0 0 Z " fill="#D03B3A" transform="translate(57,0)"/>
<path d="M0 0 C1.5 1.25 1.5 1.25 3 3 C3 4.32 3 5.64 3 7 C2.34 7 1.68 7 1 7 C1.2475 7.53625 1.495 8.0725 1.75 8.625 C2.14074789 12.33710494 0.24232943 14.18107157 -2 17 C-2.66 17 -3.32 17 -4 17 C-6.29648649 14.4385343 -7 13.52032428 -7 10 C-6.34 10 -5.68 10 -5 10 C-5 9.01 -5 8.02 -5 7 C-4.01 7 -3.02 7 -2 7 C-1.34 4.69 -0.68 2.38 0 0 Z " fill="#C42C2C" transform="translate(14,30)"/>
<path d="M0 0 C0.66 0 1.32 0 2 0 C5.41261109 9.32374101 5.41261109 9.32374101 5 14 C5 14.99 5 15.98 5 17 C4.01 16.67 3.02 16.34 2 16 C2 14.68 2 13.36 2 12 C0.68 12.33 -0.64 12.66 -2 13 C-2.33 10.03 -2.66 7.06 -3 4 C-2.01 4 -1.02 4 0 4 C0 2.68 0 1.36 0 0 Z " fill="#C23E3D" transform="translate(133,35)"/>
<path d="M0 0 C2.33524782 2.25740623 4.18705073 4.2805761 6 7 C6 7.99 6 8.98 6 10 C1.05 10 -3.9 10 -9 10 C-9.66 8.35 -10.32 6.7 -11 5 C-10.01 5 -9.02 5 -8 5 C-8 5.99 -8 6.98 -8 8 C-6.02 7.67 -4.04 7.34 -2 7 C-2 5.35 -2 3.7 -2 2 C-1.34 2 -0.68 2 0 2 C0 1.34 0 0.68 0 0 Z " fill="#C65F61" transform="translate(113,103)"/>
<path d="M0 0 C-0.66 1.98 -1.32 3.96 -2 6 C-0.68 6 0.64 6 2 6 C2 5.01 2 4.02 2 3 C2.66 3 3.32 3 4 3 C4 3.66 4 4.32 4 5 C4.66 5.33 5.32 5.66 6 6 C0.82421875 9.22265625 0.82421875 9.22265625 -1 10 C-1.99 9.67 -2.98 9.34 -4 9 C-3.67 7.35 -3.34 5.7 -3 4 C-3.73605469 4.30035156 -4.47210938 4.60070312 -5.23046875 4.91015625 C-6.20628906 5.29042969 -7.18210937 5.67070312 -8.1875 6.0625 C-9.63189453 6.63677734 -9.63189453 6.63677734 -11.10546875 7.22265625 C-14.20934675 8.05622133 -15.94919117 7.88679818 -19 7 C-19 6.67 -19 6.34 -19 6 C-18.10796875 5.73445312 -17.2159375 5.46890625 -16.296875 5.1953125 C-15.12640625 4.84210938 -13.9559375 4.48890625 -12.75 4.125 C-11.58984375 3.77695313 -10.4296875 3.42890625 -9.234375 3.0703125 C-6.14661577 2.04851778 -3.23581687 0 0 0 Z " fill="#C54D4E" transform="translate(104,127)"/>
<path d="M0 0 C3.96 0 7.92 0 12 0 C13.02820502 3.08461506 13.04582849 4.89685239 12.87890625 8.10546875 C12.83056641 9.08837891 12.78222656 10.07128906 12.73242188 11.08398438 C12.67634766 12.10814453 12.62027344 13.13230469 12.5625 14.1875 C12.51029297 15.22326172 12.45808594 16.25902344 12.40429688 17.32617188 C12.27461607 19.88442049 12.13965022 22.44227938 12 25 C11.34 25 10.68 25 10 25 C10 17.41 10 9.82 10 2 C5.545 2.495 5.545 2.495 1 3 C0.67 2.01 0.34 1.02 0 0 Z " fill="#A73232" transform="translate(67,45)"/>
<path d="M0 0 C1.02802734 -0.01224609 2.05605469 -0.02449219 3.11523438 -0.03710938 C4.60700195 -0.04000977 4.60700195 -0.04000977 6.12890625 -0.04296875 C7.02810791 -0.04707764 7.92730957 -0.05118652 8.85375977 -0.05541992 C11.69293459 0.21151563 13.85240947 1.01240593 16.4375 2.1875 C16.4375 2.5175 16.4375 2.8475 16.4375 3.1875 C15.16777344 3.09210937 13.89804688 2.99671875 12.58984375 2.8984375 C1.87888062 2.17915352 -7.9836832 2.24805025 -18.5625 4.1875 C-18.2325 3.1975 -17.9025 2.2075 -17.5625 1.1875 C-11.72444859 -0.06422629 -5.94043491 0.00373847 0 0 Z " fill="#C15754" transform="translate(71.5625,5.8125)"/>
<path d="M0 0 C0.66 0 1.32 0 2 0 C2 0.66 2 1.32 2 2 C2.86625 2.2165625 2.86625 2.2165625 3.75 2.4375 C4.4925 2.623125 5.235 2.80875 6 3 C6.598125 3.12375 7.19625 3.2475 7.8125 3.375 C11.01171368 4.28906105 13.95772583 5.65437873 17 7 C16.67 7.99 16.34 8.98 16 10 C15.01 9.67 14.02 9.34 13 9 C12.01 9 11.02 9 10 9 C9.67 9.33 9.34 9.66 9 10 C8.01 9.67 7.02 9.34 6 9 C6 8.34 6 7.68 6 7 C5.401875 6.71125 4.80375 6.4225 4.1875 6.125 C2 5 2 5 -1 3 C-0.67 2.01 -0.34 1.02 0 0 Z " fill="#D02727" transform="translate(32,125)"/>
<path d="M0 0 C0.33 0 0.66 0 1 0 C2.37448837 11.39768051 1.71442552 22.57729176 1 34 C0.67 34 0.34 34 0 34 C-1.1526479 28.50205245 -1.14849648 23.15074685 -1.125 17.5625 C-1.12886719 16.64662109 -1.13273438 15.73074219 -1.13671875 14.78710938 C-1.12948657 9.74989428 -0.86041032 4.96443098 0 0 Z " fill="#C13836" transform="translate(1,54)"/>
<path d="M0 0 C2 1 2 1 3 2 C4.34747084 2.23075082 5.70377565 2.41153063 7.0625 2.5625 C8.361875 2.706875 9.66125 2.85125 11 3 C11 3.66 11 4.32 11 5 C12.216875 4.95875 13.43375 4.9175 14.6875 4.875 C18.21894127 4.86245492 20.80003566 5.40001783 24 7 C19.56400067 9.53909093 15.85808136 9.11360031 11 8 C6.59615698 6.49576598 2.29166186 4.79758944 -2 3 C-1.34 2.67 -0.68 2.34 0 2 C0 1.34 0 0.68 0 0 Z " fill="#C1433E" transform="translate(41,133)"/>
<path d="M0 0 C2.3125 0.125 2.3125 0.125 5 1 C8.66340256 5.92664482 8.57071853 11.11569515 8 17 C7.03567682 20.48639919 5.85529085 22.73956141 3 25 C2.34 25 1.68 25 1 25 C1 25.66 1 26.32 1 27 C0.01 26.67 -0.98 26.34 -2 26 C-1.38125 25.773125 -0.7625 25.54625 -0.125 25.3125 C2.6365449 23.60683991 3.01516195 22.03027091 4 19 C4.33 18.34 4.66 17.68 5 17 C5.55834741 11.53463782 5.43946989 7.49776832 2 3 C1.34 2.01 0.68 1.02 0 0 Z " fill="#C14E4D" transform="translate(98,44)"/>
<path d="M0 0 C1.65 1.65 3.3 3.3 5 5 C4.67 5.99 4.34 6.98 4 8 C3.34 8 2.68 8 2 8 C2 9.32 2 10.64 2 12 C1.34 12 0.68 12 0 12 C0 11.34 0 10.68 0 10 C-0.556875 9.773125 -1.11375 9.54625 -1.6875 9.3125 C-4.63246684 7.64103234 -6.68156544 5.44723648 -9 3 C-8.01 2.67 -7.02 2.34 -6 2 C-5.3503125 2.7115625 -5.3503125 2.7115625 -4.6875 3.4375 C-2.97690387 5.23686957 -2.97690387 5.23686957 0 6 C0 4.02 0 2.04 0 0 Z " fill="#CA4644" transform="translate(117,15)"/>
<path d="M0 0 C2.67051114 2.41617675 4.55733548 4.68187161 6 8 C6 11.06466781 5.66747805 14.00870947 5 17 C4 18 4 18 0.9375 18.0625 C-0.031875 18.041875 -1.00125 18.02125 -2 18 C-1.67 17.34 -1.34 16.68 -1 16 C-0.34 16 0.32 16 1 16 C0.79375 15.4225 0.5875 14.845 0.375 14.25 C0 12 0 12 1.0625 10 C1.5265625 9.01 1.5265625 9.01 2 8 C1.1500831 5.96672915 1.1500831 5.96672915 0 4 C0 2.68 0 1.36 0 0 Z " fill="#CA2928" transform="translate(107,93)"/>
<path d="M0 0 C1.65 0.33 3.3 0.66 5 1 C5.33 3.97 5.66 6.94 6 10 C4.02 11.32 2.04 12.64 0 14 C-0.66 13.01 -1.32 12.02 -2 11 C-1.34 9.68 -0.68 8.36 0 7 C0.66 7 1.32 7 2 7 C2.33 6.34 2.66 5.68 3 5 C2.34 4.67 1.68 4.34 1 4 C0.375 1.9375 0.375 1.9375 0 0 Z " fill="#D62A28" transform="translate(93,76)"/>
<path d="M0 0 C0.33 0 0.66 0 1 0 C1 1.65 1 3.3 1 5 C0.01 5.33 -0.98 5.66 -2 6 C-2 6.99 -2 7.98 -2 9 C-1.01 9.33 -0.02 9.66 1 10 C-0.98 10.99 -0.98 10.99 -3 12 C-3.66 11.34 -4.32 10.68 -5 10 C-5.66 11.98 -6.32 13.96 -7 16 C-7.99 16 -8.98 16 -10 16 C-10 16.99 -10 17.98 -10 19 C-10.66 19 -11.32 19 -12 19 C-10.39516194 14.33138019 -8.02509806 9.90741833 -5 6 C-4.34 6 -3.68 6 -3 6 C-2.690625 5.38125 -2.38125 4.7625 -2.0625 4.125 C-1.375 2.75 -0.6875 1.375 0 0 Z " fill="#C84140" transform="translate(19,21)"/>
<path d="M0 0 C0.75 1.625 0.75 1.625 1 4 C-1.14451794 7.81247634 -3.54958094 11.28148801 -7 14 C-9.75 14.25 -9.75 14.25 -12 14 C-12.33 13.01 -12.66 12.02 -13 11 C-12.34 10.01 -11.68 9.02 -11 8 C-10.34 8.33 -9.68 8.66 -9 9 C-9.33 9.66 -9.66 10.32 -10 11 C-9.01 11 -8.02 11 -7 11 C-6.896875 10.360625 -6.79375 9.72125 -6.6875 9.0625 C-6.460625 8.381875 -6.23375 7.70125 -6 7 C-5.01 6.67 -4.02 6.34 -3 6 C-1.29144978 2.99992729 -1.29144978 2.99992729 0 0 Z " fill="#C54342" transform="translate(114,64)"/>
<path d="M0 0 C0 0.33 0 0.66 0 1 C-1.98 1 -3.96 1 -6 1 C-6.33 3.31 -6.66 5.62 -7 8 C-4.69 8.33 -2.38 8.66 0 9 C0.33 6.69 0.66 4.38 1 2 C1.33 2 1.66 2 2 2 C2.1875 5.375 2.1875 5.375 2 9 C-1 11 -1 11 -4.625 10.75 C-5.73875 10.5025 -6.8525 10.255 -8 10 C-9.41441874 7.17116253 -9.31900332 5.12623255 -9 2 C-6.09797328 -1.3319566 -4.08536588 -1.24830624 0 0 Z " fill="#BE5F60" transform="translate(130,66)"/>
<path d="M0 0 C0.33 0 0.66 0 1 0 C1.05905417 3.29158865 1.09394375 6.58303756 1.125 9.875 C1.14175781 10.7928125 1.15851563 11.710625 1.17578125 12.65625 C1.22761513 20.01666163 1.18448167 27.72327749 -3 34 C-2.28498967 22.63509897 -1.17352941 11.32512846 0 0 Z " fill="#C45C5A" transform="translate(143,61)"/>
<path d="M0 0 C3.16242675 2.58744007 4.08288297 5.04934204 5 9 C5.15685891 12.67353451 5.11768011 16.32576557 5 20 C4.34 20 3.68 20 3 20 C2.67 16.7 2.34 13.4 2 10 C0.35 10 -1.3 10 -3 10 C-3.33 9.34 -3.66 8.68 -4 8 C-3.34 7.67 -2.68 7.34 -2 7 C-1.67 6.34 -1.34 5.68 -1 5 C-0.67 4.67 -0.34 4.34 0 4 C0 2.68 0 1.36 0 0 Z " fill="#C7534F" transform="translate(112,42)"/>
<path d="M0 0 C0.5775 0.7425 1.155 1.485 1.75 2.25 C3.88507707 5.00552884 3.88507707 5.00552884 6.3125 7.0625 C8 9 8 9 7.9375 11.1875 C7 13 7 13 4 14 C4 12.35 4 10.7 4 9 C3.030625 8.71125 2.06125 8.4225 1.0625 8.125 C-2 7 -2 7 -3 5 C-2.67 4.34 -2.34 3.68 -2 3 C-1.34 3 -0.68 3 0 3 C0 2.01 0 1.02 0 0 Z " fill="#D02525" transform="translate(121,20)"/>
<path d="M0 0 C0.33 0 0.66 0 1 0 C1.42726291 3.43641454 1.25858244 4.66533261 -0.8984375 7.45703125 C-1.71570313 8.23433594 -2.53296875 9.01164062 -3.375 9.8125 C-4.59316406 10.99779297 -4.59316406 10.99779297 -5.8359375 12.20703125 C-8 14 -8 14 -10 14 C-9.4739075 10.21213403 -8.61896089 7.82847776 -6 5 C-5.34 5 -4.68 5 -4 5 C-3.67 4.34 -3.34 3.68 -3 3 C-2.67 3.33 -2.34 3.66 -2 4 C-1.34 2.68 -0.68 1.36 0 0 Z " fill="#CB494A" transform="translate(127,113)"/>
<path d="M0 0 C1.32 0.66 2.64 1.32 4 2 C3.67 3.65 3.34 5.3 3 7 C2.01 7 1.02 7 0 7 C-0.66 7.66 -1.32 8.32 -2 9 C-2.66 9.66 -3.32 10.32 -4 11 C-4.99 11 -5.98 11 -7 11 C-6.34 8.69 -5.68 6.38 -5 4 C-3.35 4 -1.7 4 0 4 C0 2.68 0 1.36 0 0 Z " fill="#D22728" transform="translate(123,111)"/>
<path d="M0 0 C1.27875 -0.061875 2.5575 -0.12375 3.875 -0.1875 C4.95394531 -0.23970703 4.95394531 -0.23970703 6.0546875 -0.29296875 C6.69664063 -0.19628906 7.33859375 -0.09960938 8 0 C10.1519437 3.22791555 10.20086443 4.28400809 10 8 C9.01 7.67 8.02 7.34 7 7 C7 5.02 7 3.04 7 1 C5.02 1 3.04 1 1 1 C1 3.31 1 5.62 1 8 C2.98 8.66 4.96 9.32 7 10 C7 10.33 7 10.66 7 11 C1.6 11.36 1.6 11.36 -0.875 9.875 C-2.4682099 7.21965017 -2.20214032 5.03210482 -2 2 C-1.34 2 -0.68 2 0 2 C0 1.34 0 0.68 0 0 Z " fill="#C6706E" transform="translate(68,120)"/>
<path d="M0 0 C2.06763972 1.02516865 4.10997245 2.06145519 6.125 3.1875 C6.74375 3.455625 7.3625 3.72375 8 4 C8.66 3.67 9.32 3.34 10 3 C10.66 3.33 11.32 3.66 12 4 C11.34 5.32 10.68 6.64 10 8 C9.67 7.67 9.34 7.34 9 7 C8.67 8.98 8.34 10.96 8 13 C5.27324841 10.59310197 3.88033404 8.07528977 2.3125 4.8125 C1.65701172 3.46091797 1.65701172 3.46091797 0.98828125 2.08203125 C0.66214844 1.39496094 0.33601563 0.70789063 0 0 Z " fill="#C43A3C" transform="translate(84,77)"/>
<path d="M0 0 C0.99 0.33 1.98 0.66 3 1 C3 1.99 3 2.98 3 4 C3.61875 3.814375 4.2375 3.62875 4.875 3.4375 C7 3 7 3 9 4 C9.33 3.34 9.66 2.68 10 2 C10.33 2.99 10.66 3.98 11 5 C9.35 5.33 7.7 5.66 6 6 C6.515625 7.093125 7.03125 8.18625 7.5625 9.3125 C9 13 9 13 8 16 C1.48063781 5.62642369 1.48063781 5.62642369 0 0 Z " fill="#C14A4C" transform="translate(5,98)"/>
<path d="M0 0 C0.66 0.33 1.32 0.66 2 1 C1 4 1 4 -0.875 5.125 C-2.55705727 5.81761182 -4.27427551 6.4247585 -6 7 C-6 7.99 -6 8.98 -6 10 C-7.32 10 -8.64 10 -10 10 C-9.42415568 7.61435923 -8.77772405 5.33317216 -8 3 C-5.36 2.67 -2.72 2.34 0 2 C0 1.34 0 0.68 0 0 Z " fill="#CF2625" transform="translate(112,123)"/>
<path d="M0 0 C2.42873808 3.64310713 2.1197334 4.91648811 1.7578125 9.19921875 C1.66113281 10.40771484 1.56445312 11.61621094 1.46484375 12.86132812 C1.35269531 14.12396484 1.24054687 15.38660156 1.125 16.6875 C0.96837891 18.59885742 0.96837891 18.59885742 0.80859375 20.54882812 C0.54893184 23.70017954 0.27900223 26.85031158 0 30 C-0.33 30 -0.66 30 -1 30 C-1.02465746 25.8882744 -1.04283959 21.77657722 -1.05493164 17.66479492 C-1.0599708 16.26504772 -1.06680216 14.8653058 -1.07543945 13.46557617 C-1.0875232 11.45754223 -1.09269807 9.44947043 -1.09765625 7.44140625 C-1.10289307 6.23170166 -1.10812988 5.02199707 -1.11352539 3.77563477 C-1 1 -1 1 0 0 Z " fill="#CE5B56" transform="translate(8,50)"/>
<path d="M0 0 C3.63 0.33 7.26 0.66 11 1 C10.67 1.66 10.34 2.32 10 3 C7.69 3 5.38 3 3 3 C3 10.92 3 18.84 3 27 C0.36008732 24.36008732 0.69759203 23.02053704 0.5859375 19.3359375 C0.54726563 18.21445313 0.50859375 17.09296875 0.46875 15.9375 C0.4378125 14.761875 0.406875 13.58625 0.375 12.375 C0.33632813 11.19164063 0.29765625 10.00828125 0.2578125 8.7890625 C0.16331496 5.85963861 0.08056001 2.9298403 0 0 Z " fill="#BE5857" transform="translate(43,77)"/>
<path d="M0 0 C0.99 1.485 0.99 1.485 2 3 C-5.75 3.125 -5.75 3.125 -8 2 C-8 1.34 -8 0.68 -8 0 C-10.31 -0.33 -12.62 -0.66 -15 -1 C-15 -1.33 -15 -1.66 -15 -2 C-9.5175166 -3.54634147 -5.00350755 -2.52176781 0 0 Z " fill="#C73938" transform="translate(106,34)"/>
<path d="M0 0 C3.73487777 0.4979837 5.81237635 0.87491756 9 3 C8.67 4.32 8.34 5.64 8 7 C5.36 6.67 2.72 6.34 0 6 C0 4.02 0 2.04 0 0 Z " fill="#CA3B39" transform="translate(66,14)"/>
<path d="M0 0 C0.33 0 0.66 0 1 0 C0.88601335 1.62580966 0.75844341 3.25067157 0.625 4.875 C0.55539063 5.77992187 0.48578125 6.68484375 0.4140625 7.6171875 C0 10 0 10 -2 12 C-2.99 11.34 -3.98 10.68 -5 10 C-5 11.32 -5 12.64 -5 14 C-6.32 13.67 -7.64 13.34 -9 13 C-8.43410156 12.22914062 -7.86820312 11.45828125 -7.28515625 10.6640625 C-6.55167969 9.66117188 -5.81820312 8.65828125 -5.0625 7.625 C-4.33160156 6.62726563 -3.60070312 5.62953125 -2.84765625 4.6015625 C-1.0220431 2.17182891 -1.0220431 2.17182891 0 0 Z " fill="#C6514C" transform="translate(128,101)"/>
<path d="M0 0 C1.32 0.33 2.64 0.66 4 1 C3.67 1.99 3.34 2.98 3 4 C2.34 4 1.68 4 1 4 C0.7525 4.53625 0.505 5.0725 0.25 5.625 C-1.30652537 8.5823982 -3.03435673 11.29724051 -5 14 C-5.66 14 -6.32 14 -7 14 C-7 13.34 -7 12.68 -7 12 C-6.34 12 -5.68 12 -5 12 C-4.855625 11.195625 -4.71125 10.39125 -4.5625 9.5625 C-4 7 -4 7 -3 6 C-3.66 5.34 -4.32 4.68 -5 4 C-3.35 4 -1.7 4 0 4 C0 2.68 0 1.36 0 0 Z " fill="#C14444" transform="translate(22,25)"/>
<path d="M0 0 C0 1.65 0 3.3 0 5 C-1.32 4.67 -2.64 4.34 -4 4 C-4 5.32 -4 6.64 -4 8 C-5.65 8 -7.3 8 -9 8 C-9 7.34 -9 6.68 -9 6 C-8.34 5.67 -7.68 5.34 -7 5 C-6.835 4.175 -6.67 3.35 -6.5 2.5 C-6.335 1.675 -6.17 0.85 -6 0 C-3.50907189 -1.24546405 -2.58919267 -0.7767578 0 0 Z " fill="#CC2825" transform="translate(26,21)"/>
<path d="M0 0 C2.97 0.495 2.97 0.495 6 1 C5.67 1.99 5.34 2.98 5 4 C5.66 4 6.32 4 7 4 C7 4.99 7 5.98 7 7 C5.35 7.33 3.7 7.66 2 8 C-0.1519437 4.77208445 -0.20086443 3.71599191 0 0 Z " fill="#D32727" transform="translate(14,67)"/>
<path d="M0 0 C0 0.66 0 1.32 0 2 C0.99 2.33 1.98 2.66 3 3 C2.01 3.66 1.02 4.32 0 5 C-0.33 4.67 -0.66 4.34 -1 4 C-5.04352289 4.46656033 -9.01928836 5.15560662 -13 6 C-12.67 5.01 -12.34 4.02 -12 3 C-10.0390625 2.05078125 -10.0390625 2.05078125 -7.625 1.3125 C-6.83351563 1.06113281 -6.04203125 0.80976562 -5.2265625 0.55078125 C-3 0 -3 0 0 0 Z " fill="#C44B4C" transform="translate(56,1)"/>
<path d="M0 0 C2.0625 1.625 2.0625 1.625 4 4 C3.75 7.25 3.75 7.25 3 10 C2.01 10 1.02 10 0 10 C-0.33 11.32 -0.66 12.64 -1 14 C-2.32 11.36 -3.64 8.72 -5 6 C-4.34 6 -3.68 6 -3 6 C-3 6.66 -3 7.32 -3 8 C-2.01 7.67 -1.02 7.34 0 7 C0 4.69 0 2.38 0 0 Z " fill="#C74A49" transform="translate(130,29)"/>
<path d="M0 0 C0.66 0 1.32 0 2 0 C0.21470545 6.76532673 -2.49937851 11.65460165 -7 17 C-7.33 16.01 -7.66 15.02 -8 14 C-7.34 14 -6.68 14 -6 14 C-6 13.01 -6 12.02 -6 11 C-5.34 11 -4.68 11 -4 11 C-4.04125 10.2575 -4.0825 9.515 -4.125 8.75 C-3.94471208 4.78366581 -2.77842595 2.77842595 0 0 Z " fill="#CB7373" transform="translate(137,98)"/>
<path d="M0 0 C1.98 0 3.96 0 6 0 C6.33 2.97 6.66 5.94 7 9 C6.01 9 5.02 9 4 9 C3.3309224 7.68872739 2.66480194 6.3759455 2 5.0625 C1.62875 4.33160156 1.2575 3.60070312 0.875 2.84765625 C0 1 0 1 0 0 Z " fill="#D12526" transform="translate(10,103)"/>
<path d="M0 0 C1.32 0.33 2.64 0.66 4 1 C2.39612733 2.1254191 0.79189084 3.25031972 -0.8125 4.375 C-1.70582031 5.00148438 -2.59914063 5.62796875 -3.51953125 6.2734375 C-5.33267878 7.53550239 -7.16188211 8.77458808 -9 10 C-9.625 7.625 -9.625 7.625 -10 5 C-9.34 4.34 -8.68 3.68 -8 3 C-8 3.66 -8 4.32 -8 5 C-7.236875 4.505 -6.47375 4.01 -5.6875 3.5 C-3 2 -3 2 0 2 C0 1.34 0 0.68 0 0 Z " fill="#CA5F62" transform="translate(37,15)"/>
<path d="M0 0 C3.7602985 0.58107632 6.53035032 1.65199496 9.8125 3.5625 C10.60269531 4.01753906 11.39289062 4.47257813 12.20703125 4.94140625 C12.79871094 5.29074219 13.39039063 5.64007813 14 6 C14 6.33 14 6.66 14 7 C8.2596357 7.15945456 4.7757087 6.1838058 0 3 C0 2.01 0 1.02 0 0 Z " fill="#C5494B" transform="translate(34,124)"/>
<path d="M0 0 C1.32 0.33 2.64 0.66 4 1 C3.25 7.75 3.25 7.75 1 10 C-2 6.375 -2 6.375 -2 3 C-1.34 3 -0.68 3 0 3 C0 2.01 0 1.02 0 0 Z " fill="#C92428" transform="translate(9,37)"/>
<path d="M0 0 C1.65 0 3.3 0 5 0 C5.33 1.98 5.66 3.96 6 6 C4.35 6 2.7 6 1 6 C0.67 6.66 0.34 7.32 0 8 C-1.125 2.25 -1.125 2.25 0 0 Z " fill="#C72624" transform="translate(36,9)"/>
<path d="M0 0 C0.66 0.33 1.32 0.66 2 1 C1.6875 2.875 1.6875 2.875 1 5 C-2 7 -2 7 -6 7 C-5.8125 5.1875 -5.8125 5.1875 -5 3 C-2.5625 1.1875 -2.5625 1.1875 0 0 Z " fill="#C73C3A" transform="translate(114,125)"/>
<path d="M0 0 C1.88391785 3.26545761 2.49287967 6.28111761 3 10 C1.68 10 0.36 10 -1 10 C-1 8.68 -1 7.36 -1 6 C-1.99 6.33 -2.98 6.66 -4 7 C-3.6875 5.0625 -3.6875 5.0625 -3 3 C-2.01 2.67 -1.02 2.34 0 2 C0 1.34 0 0.68 0 0 Z " fill="#CE2924" transform="translate(136,41)"/>
<path d="M0 0 C3 2 3 2 3.6875 4.625 C3.790625 5.40875 3.89375 6.1925 4 7 C4.99 6.67 5.98 6.34 7 6 C6.34 8.31 5.68 10.62 5 13 C3.5 11 3.5 11 2 9 C1.4225 8.360625 0.845 7.72125 0.25 7.0625 C-1 5 -1 5 -0.6875 2.25 C-0.460625 1.5075 -0.23375 0.765 0 0 Z " fill="#D65856" transform="translate(6,40)"/>
<path d="M0 0 C0.66 0.66 1.32 1.32 2 2 C2.66 1.67 3.32 1.34 4 1 C3.67 2.32 3.34 3.64 3 5 C-0.63 5 -4.26 5 -8 5 C-6.37633534 1.75267068 -3.24612161 1.29844864 0 0 Z " fill="#C46461" transform="translate(76,108)"/>
<path d="M0 0 C-1 1 -1 1 -2.96875 1.1328125 C-8.72495436 1.11504644 -14.29034384 0.73672983 -20 0 C-20 -0.33 -20 -0.66 -20 -1 C-17.04210873 -1.2210949 -14.08447236 -1.42740245 -11.125 -1.625 C-10.28324219 -1.68945312 -9.44148438 -1.75390625 -8.57421875 -1.8203125 C-7.36572266 -1.89765625 -7.36572266 -1.89765625 -6.1328125 -1.9765625 C-5.01737061 -2.05511475 -5.01737061 -2.05511475 -3.87939453 -2.13525391 C-2 -2 -2 -2 0 0 Z " fill="#B13533" transform="translate(65,78)"/>
<path d="M0 0 C0 1.98 0 3.96 0 6 C-0.99 6 -1.98 6 -3 6 C-3.33 7.65 -3.66 9.3 -4 11 C-4.33 11 -4.66 11 -5 11 C-5 7.7 -5 4.4 -5 1 C-3 0 -3 0 0 0 Z " fill="#D64C4B" transform="translate(38,32)"/>
<path d="M0 0 C0.99 0.33 1.98 0.66 3 1 C3 3.31 3 5.62 3 8 C1.125 7.6875 1.125 7.6875 -1 7 C-1.66 6.01 -2.32 5.02 -3 4 C-2.67 3.34 -2.34 2.68 -2 2 C-1.34 2 -0.68 2 0 2 C0 1.34 0 0.68 0 0 Z " fill="#D23B3B" transform="translate(114,13)"/>
<path d="M0 0 C0.33 0.99 0.66 1.98 1 3 C-0.98 3.33 -2.96 3.66 -5 4 C-5 5.32 -5 6.64 -5 8 C-6.65 8 -8.3 8 -10 8 C-10 7.34 -10 6.68 -10 6 C-8.3203125 4.4921875 -8.3203125 4.4921875 -6.125 2.875 C-5.40570312 2.33617187 -4.68640625 1.79734375 -3.9453125 1.2421875 C-2 0 -2 0 0 0 Z " fill="#C2534D" transform="translate(31,13)"/>
<path d="M0 0 C0 0.66 0 1.32 0 2 C-2.93202088 3.95468059 -4.68004563 4.55258673 -8.0625 5.25 C-8.94035156 5.44078125 -9.81820312 5.6315625 -10.72265625 5.828125 C-11.47417969 5.88484375 -12.22570312 5.9415625 -13 6 C-13.66 5.34 -14.32 4.68 -15 4 C-12.87607494 3.3299166 -10.75082476 2.66403203 -8.625 2 C-7.44164063 1.62875 -6.25828125 1.2575 -5.0390625 0.875 C-2 0 -2 0 0 0 Z " fill="#C65C5F" transform="translate(100,129)"/>
<path d="M0 0 C-0.33 2.31 -0.66 4.62 -1 7 C-1.66 7 -2.32 7 -3 7 C-3.33 8.32 -3.66 9.64 -4 11 C-5.34721372 3.52908757 -5.34721372 3.52908757 -3.6875 1 C-2 0 -2 0 0 0 Z " fill="#D02D29" transform="translate(132,105)"/>
<path d="M0 0 C2.0625 0.4375 2.0625 0.4375 4 1 C4 3 4 5 4 7 C2.35 6.67 0.7 6.34 -1 6 C-1.042721 4.33388095 -1.04063832 2.66617115 -1 1 C-0.67 0.67 -0.34 0.34 0 0 Z " fill="#D22A29" transform="translate(69,122)"/>
<path d="M0 0 C-0.33 0.99 -0.66 1.98 -1 3 C-4.3 2.67 -7.6 2.34 -11 2 C-11 3.65 -11 5.3 -11 7 C-12.5 5.6875 -12.5 5.6875 -14 4 C-14 3.01 -14 2.02 -14 1 C-12.22932584 0.83165067 -10.45845388 0.66538091 -8.6875 0.5 C-7.70136719 0.4071875 -6.71523437 0.314375 -5.69921875 0.21875 C-3 0 -3 0 0 0 Z " fill="#C26665" transform="translate(95,70)"/>
<path d="M0 0 C0.33 0 0.66 0 1 0 C1.33 4.29 1.66 8.58 2 13 C1.01 13.33 0.02 13.66 -1 14 C-0.67 9.38 -0.34 4.76 0 0 Z " fill="#C14D49" transform="translate(1,54)"/>
<path d="M0 0 C0.66 0.33 1.32 0.66 2 1 C0.68 3.97 -0.64 6.94 -2 10 C-2.99 10 -3.98 10 -5 10 C-5 10.99 -5 11.98 -5 13 C-5.66 13 -6.32 13 -7 13 C-5.35821735 8.22390502 -2.73453298 4.20617096 0 0 Z " fill="#C66567" transform="translate(14,27)"/>
<path d="M0 0 C1.32 0.33 2.64 0.66 4 1 C4.33 2.65 4.66 4.3 5 6 C4.01 6 3.02 6 2 6 C2 5.34 2 4.68 2 4 C0.68 4 -0.64 4 -2 4 C-1.34 2.68 -0.68 1.36 0 0 Z " fill="#D02625" transform="translate(26,119)"/>
<path d="M0 0 C0.33 0 0.66 0 1 0 C0.67 3.96 0.34 7.92 0 12 C-1.32 12 -2.64 12 -4 12 C-2.66666667 8 -1.33333333 4 0 0 Z " fill="#BF5551" transform="translate(133,89)"/>
<path d="M0 0 C0.66 -0.33 1.32 -0.66 2 -1 C2 0.65 2 2.3 2 4 C-0.8125 4.25 -0.8125 4.25 -4 4 C-5.875 2 -5.875 2 -7 0 C-4.33059475 -1.33470263 -2.86667247 -0.57333449 0 0 Z " fill="#D84240" transform="translate(47,6)"/>
<path d="M0 0 C2.31 0 4.62 0 7 0 C7 1.32 7 2.64 7 4 C5.02 4 3.04 4 1 4 C0.67 2.68 0.34 1.36 0 0 Z " fill="#D52F2C" transform="translate(61,2)"/>
<path d="M0 0 C0.99 0.33 1.98 0.66 3 1 C2.67 2.65 2.34 4.3 2 6 C0.68 6.33 -0.64 6.66 -2 7 C-1.34 4.69 -0.68 2.38 0 0 Z " fill="#CA2E2D" transform="translate(118,115)"/>
<path d="M0 0 C0.33 0 0.66 0 1 0 C1.33872513 1.41538717 1.67074624 2.83237963 2 4.25 C2.185625 5.03890625 2.37125 5.8278125 2.5625 6.640625 C3 9 3 9 3 13 C2.34 13 1.68 13 1 13 C0.63447197 11.58622218 0.28304505 10.16879424 -0.0625 8.75 C-0.25972656 7.96109375 -0.45695313 7.1721875 -0.66015625 6.359375 C-1.01497267 3.89605178 -0.76877544 2.34395868 0 0 Z " fill="#C66060" transform="translate(8,80)"/>
<path d="M0 0 C0.66 0 1.32 0 2 0 C2.66 2.31 3.32 4.62 4 7 C2.68 7 1.36 7 0 7 C-0.66 5.35 -1.32 3.7 -2 2 C-1.34 2 -0.68 2 0 2 C0 1.34 0 0.68 0 0 Z " fill="#C64542" transform="translate(10,93)"/>
<path d="M0 0 C0 3 0 6 0 9 C-2.50037734 6.82575883 -3.43628586 5.26954202 -4 2 C-1 0 -1 0 0 0 Z " fill="#C84F4F" transform="translate(96,88)"/>
<path d="M0 0 C0.99 0 1.98 0 3 0 C3 1.98 3 3.96 3 6 C1.35 5.67 -0.3 5.34 -2 5 C-1.125 1.125 -1.125 1.125 0 0 Z " fill="#CD2928" transform="translate(98,131)"/>
<path d="M0 0 C2.92540704 0.62687294 5.4835249 1.35127493 8 3 C8.75 5.125 8.75 5.125 9 7 C4.25 5.125 4.25 5.125 2 4 C2 3.01 2 2.02 2 1 C1.34 0.67 0.68 0.34 0 0 Z " fill="#C44C4E" transform="translate(30,128)"/>
<path d="M0 0 C3 1 3 1 4.16796875 2.84765625 C4.50441406 3.57855469 4.84085937 4.30945313 5.1875 5.0625 C5.53167969 5.79597656 5.87585938 6.52945313 6.23046875 7.28515625 C6.48441406 7.85105469 6.73835938 8.41695312 7 9 C6.01 9 5.02 9 4 9 C0 2.25 0 2.25 0 0 Z " fill="#BF4F51" transform="translate(96,97)"/>
<path d="M0 0 C2.61500768 2.36595933 4.38999603 4.86049226 6 8 C5.67 8.66 5.34 9.32 5 10 C1.32769295 6.92000054 0.43197635 4.7517398 0 0 Z " fill="#C55456" transform="translate(107,93)"/>
<path d="M0 0 C2.16874252 0.50603992 3.99967627 0.99983813 6 2 C6 3.98 6 5.96 6 8 C4.62437146 6.71034824 3.29233607 5.37310707 2 4 C2 3.34 2 2.68 2 2 C1.34 2 0.68 2 0 2 C0 1.34 0 0.68 0 0 Z " fill="#C34745" transform="translate(119,27)"/>
<path d="M0 0 C2.04119788 1.61594832 4.04072937 3.2856382 6 5 C6 5.66 6 6.32 6 7 C6.66 7 7.32 7 8 7 C8 7.66 8 8.32 8 9 C5.125 8.4375 5.125 8.4375 2 7 C0.625 3.375 0.625 3.375 0 0 Z " fill="#BE4F50" transform="translate(122,20)"/>
<path d="M0 0 C2.625 0.9375 2.625 0.9375 5 2 C5 1.34 5 0.68 5 0 C5.99 0.33 6.98 0.66 8 1 C6.875 2.5625 6.875 2.5625 5 4 C1.875 3.8125 1.875 3.8125 -1 3 C-1.33 2.34 -1.66 1.68 -2 1 C-1.34 0.67 -0.68 0.34 0 0 Z " fill="#BD595B" transform="translate(69,19)"/>
<path d="M0 0 C2.97 1.98 2.97 1.98 6 4 C5.67 5.32 5.34 6.64 5 8 C2.69 6.02 0.38 4.04 -2 2 C-1.34 1.34 -0.68 0.68 0 0 Z " fill="#C76364" transform="translate(110,17)"/>
<path d="M0 0 C4.75 0.75 4.75 0.75 7 3 C5.02 3.66 3.04 4.32 1 5 C0.34 4.34 -0.32 3.68 -1 3 C-0.34 3 0.32 3 1 3 C0.67 2.01 0.34 1.02 0 0 Z " fill="#D02A29" transform="translate(102,9)"/>
<path d="M0 0 C0 0.66 0 1.32 0 2 C-4.455 2.495 -4.455 2.495 -9 3 C-9.33 2.34 -9.66 1.68 -10 1 C-6.52674819 -0.1577506 -3.63932552 -0.06866652 0 0 Z " fill="#BF4B4E" transform="translate(92,139)"/>
<path d="M0 0 C2.5654594 2.5654594 2.54046087 4.47686668 3 8 C1.68 8 0.36 8 -1 8 C-1.125 2.25 -1.125 2.25 0 0 Z " fill="#D32526" transform="translate(6,85)"/>
<path d="M0 0 C2.18975773 3.28463659 2.99806563 6.20696275 4 10 C2.68 9.67 1.36 9.34 0 9 C0 6.03 0 3.06 0 0 Z " fill="#CE6360" transform="translate(137,40)"/>
<path d="M0 0 C1.32 1.32 2.64 2.64 4 4 C3.67 4.66 3.34 5.32 3 6 C0.9375 6.625 0.9375 6.625 -1 7 C-1.33 5.35 -1.66 3.7 -2 2 C-1.34 2 -0.68 2 0 2 C0 1.34 0 0.68 0 0 Z " fill="#CE4F4C" transform="translate(113,103)"/>
<path d="M0 0 C2.375 1.1875 2.375 1.1875 3.375 3.1875 C0.735 3.1875 -1.905 3.1875 -4.625 3.1875 C-4.955 2.1975 -5.285 1.2075 -5.625 0.1875 C-2.625 -0.8125 -2.625 -0.8125 0 0 Z " fill="#CE4847" transform="translate(104.625,33.8125)"/>
<path d="M0 0 C3.39914975 1.13304992 4.05254451 2.12518475 6 5 C4.1875 5.6875 4.1875 5.6875 2 6 C0.25 4.5625 0.25 4.5625 -1 3 C-0.67 2.01 -0.34 1.02 0 0 Z " fill="#D64243" transform="translate(94,133)"/>
<path d="M0 0 C0.33 0.66 0.66 1.32 1 2 C1.99 2.33 2.98 2.66 4 3 C4 3.66 4 4.32 4 5 C2.68 5.33 1.36 5.66 0 6 C-0.66 4.35 -1.32 2.7 -2 1 C-1.34 0.67 -0.68 0.34 0 0 Z " fill="#D52D2D" transform="translate(19,112)"/>
<path d="M0 0 C1.32 0.66 2.64 1.32 4 2 C3.67 3.32 3.34 4.64 3 6 C2.01 5.67 1.02 5.34 0 5 C-0.33 4.01 -0.66 3.02 -1 2 C-0.67 1.34 -0.34 0.68 0 0 Z " fill="#CC3A37" transform="translate(49,5)"/>
<path d="M0 0 C1.04449911 3.13349732 0.93423645 3.98968256 0 7 C-0.99 6.01 -1.98 5.02 -3 4 C-2.67 3.01 -2.34 2.02 -2 1 C-1.34 0.67 -0.68 0.34 0 0 Z " fill="#C63736" transform="translate(35,9)"/>
<path d="M0 0 C0.66 0.33 1.32 0.66 2 1 C3.66392045 1.67349161 5.33032028 2.3409159 7 3 C5.3125 4.125 5.3125 4.125 3 5 C0.25 4.125 0.25 4.125 -2 3 C-1.34 2.67 -0.68 2.34 0 2 C0 1.34 0 0.68 0 0 Z " fill="#C95050" transform="translate(41,133)"/>
<path d="M0 0 C0.66 0 1.32 0 2 0 C1.39816251 2.02045442 0.72693904 4.02111039 0 6 C-0.99 6.495 -0.99 6.495 -2 7 C-2.125 4.625 -2.125 4.625 -2 2 C-1.34 1.34 -0.68 0.68 0 0 Z " fill="#C24F55" transform="translate(137,98)"/>
<path d="M0 0 C0.33 0.99 0.66 1.98 1 3 C1.99 2.67 2.98 2.34 4 2 C4.33 2.99 4.66 3.98 5 5 C3.02 5 1.04 5 -1 5 C-0.67 3.35 -0.34 1.7 0 0 Z " fill="#CC272B" transform="translate(9,97)"/>
<path d="M0 0 C2.475 0.495 2.475 0.495 5 1 C5.33 3.31 5.66 5.62 6 8 C3.87961365 5.38485683 1.86908256 2.80362384 0 0 Z " fill="#C35455" transform="translate(98,44)"/>
<path d="M0 0 C1.32 0 2.64 0 4 0 C3.6875 1.9375 3.6875 1.9375 3 4 C2.01 4.33 1.02 4.66 0 5 C0 3.35 0 1.7 0 0 Z " fill="#CA2323" transform="translate(130,39)"/>
<path d="M0 0 C1.98 0 3.96 0 6 0 C6.33 0.66 6.66 1.32 7 2 C4.36 2.33 1.72 2.66 -1 3 C-0.67 2.01 -0.34 1.02 0 0 Z " fill="#CB5A5E" transform="translate(54,7)"/>
</svg>
