<?xml version="1.0" encoding="UTF-8"?>
<svg version="1.1" xmlns="http://www.w3.org/2000/svg" width="194" height="192">
<path d="M0 0 C1.28583984 -0.02449219 2.57167969 -0.04898438 3.89648438 -0.07421875 C24.72290318 -0.137361 40.46198879 9.3712764 54.87890625 23.67578125 C56.3125 25.375 56.3125 25.375 56.3125 27.375 C56.9725 27.375 57.6325 27.375 58.3125 27.375 C68.26761455 40.4067504 72.4884387 55.36980536 72.5 71.625 C72.51224609 72.51574219 72.52449219 73.40648438 72.53710938 74.32421875 C72.57630323 92.32726197 65.90198168 107.01257024 54.3125 120.375 C53.74917969 121.05046875 53.18585938 121.7259375 52.60546875 122.421875 C41.8946648 134.24443328 24.52776963 142.22258681 8.77319336 143.59643555 C-12.05427932 144.50501007 -31.07738847 140.50834153 -47.3203125 126.58203125 C-61.83673743 113.04774068 -71.12457647 97.13816503 -71.9921875 77.046875 C-72.34125787 59.87321462 -69.71184838 40.7394113 -57.6875 27.375 C-57.0275 27.375 -56.3675 27.375 -55.6875 27.375 C-55.2234375 26.446875 -55.2234375 26.446875 -54.75 25.5 C-54.0625 24.125 -53.375 22.75 -52.6875 21.375 C-52.0275 21.375 -51.3675 21.375 -50.6875 21.375 C-50.6875 20.715 -50.6875 20.055 -50.6875 19.375 C-44.62599387 13.84157963 -37.73809422 9.61701324 -30.4375 5.9375 C-29.78910156 5.6079834 -29.14070313 5.2784668 -28.47265625 4.93896484 C-19.03805334 0.35801541 -10.38146655 0.0102533 0 0 Z M-40.6875 22.375 C-41.35652344 22.88933594 -42.02554688 23.40367188 -42.71484375 23.93359375 C-44.08763364 25.02213538 -45.39746029 26.1895581 -46.6875 27.375 C-46.6875 28.035 -46.6875 28.695 -46.6875 29.375 C-47.3475 29.375 -48.0075 29.375 -48.6875 29.375 C-50.23808677 31.40690839 -51.63136946 33.41151394 -53 35.5625 C-53.60231445 36.5062146 -53.60231445 36.5062146 -54.21679688 37.46899414 C-63.53513433 52.52096937 -66.08777085 69.74864575 -62.625 87.0625 C-57.89655375 104.47966669 -47.1648648 118.18946274 -31.6875 127.375 C-30.76130859 127.95121094 -30.76130859 127.95121094 -29.81640625 128.5390625 C-15.70398115 136.49057944 1.55222556 137.47904717 17.0625 133.875 C35.76527974 128.1741527 49.74013204 115.60050432 59.125 98.5625 C66.09036663 83.64343769 66.26499469 65.91019386 61.3125 50.375 C58.30074569 42.89767651 54.48297532 35.57957039 49.3125 29.375 C48.6525 29.375 47.9925 29.375 47.3125 29.375 C47.3125 28.715 47.3125 28.055 47.3125 27.375 C46.6525 27.375 45.9925 27.375 45.3125 27.375 C45.3125 26.715 45.3125 26.055 45.3125 25.375 C39.29223273 20.17750259 32.72419915 15.35182999 25.3125 12.375 C24.6421875 12.10171875 23.971875 11.8284375 23.28125 11.546875 C0.76151118 3.22436283 -22.24167499 7.85504698 -40.6875 22.375 Z " fill="#C64242" transform="translate(92.6875,-0.375)"/>
<path d="M0 0 C1.20885864 0.00395782 2.41771729 0.00791565 3.66320801 0.01199341 C4.97768921 0.0233432 6.29217041 0.03469299 7.64648438 0.04638672 C8.31618759 0.0520956 8.98589081 0.05780449 9.67588806 0.06368637 C13.2277074 0.09525883 16.77936919 0.13419398 20.33105469 0.17822266 C23.97782396 0.22173995 27.62416349 0.23775886 31.27115631 0.24745369 C34.09239723 0.26041329 36.91308497 0.29521354 39.73405457 0.33556747 C41.72448104 0.35834875 43.71513201 0.35769565 45.70568848 0.35647583 C55.73236002 0.54229737 63.10654272 2.57552932 70.17773438 9.91357422 C75.2108572 16.27620118 76.85333617 22.19338696 76.58398438 30.29638672 C75.64639153 37.94629201 72.5758722 43.474653 67.02148438 48.72607422 C65.18007059 50.14751644 63.35252973 51.13757107 61.24023438 52.10107422 C62.93891182 56.90292219 65.46463449 61.11556424 68.05273438 65.47607422 C68.47876953 66.20568359 68.90480469 66.93529297 69.34375 67.68701172 C71.4402498 71.23932606 73.59840298 74.64428745 76.06445312 77.95263672 C78.24023438 81.10107422 78.24023438 81.10107422 78.24023438 84.10107422 C73.29023438 84.10107422 68.34023437 84.10107422 63.24023438 84.10107422 C62.72976562 83.17810547 62.21929687 82.25513672 61.69335938 81.30419922 C54.88770277 69.06864973 48.00979126 56.75540954 40.24023438 45.10107422 C40.24023438 44.11107422 40.24023438 43.12107422 40.24023438 42.10107422 C41.79484375 41.90191406 41.79484375 41.90191406 43.38085938 41.69873047 C44.75066703 41.52046783 46.12045782 41.3420756 47.49023438 41.16357422 C48.51310547 41.03305664 48.51310547 41.03305664 49.55664062 40.89990234 C54.48027845 40.35673436 54.48027845 40.35673436 59.24023438 39.10107422 C60.4873784 36.69155399 60.4873784 36.69155399 61.24023438 34.10107422 C61.73523438 33.11107422 61.73523438 33.11107422 62.24023438 32.10107422 C62.6756415 27.83910834 62.71088865 24.18357906 60.99023438 20.22607422 C58.11340059 16.73277605 55.66610279 14.9786623 51.24023438 14.10107422 C49.68312364 14.01700611 48.12284917 13.98326484 46.56347656 13.98754883 C45.18249786 13.98766212 45.18249786 13.98766212 43.77362061 13.98777771 C42.7880719 13.992939 41.80252319 13.99810028 40.78710938 14.00341797 C39.26407196 14.00554039 39.26407196 14.00554039 37.71026611 14.00770569 C34.47022545 14.01329906 31.23025412 14.02585037 27.99023438 14.03857422 C25.79231871 14.04359007 23.59440195 14.04815283 21.39648438 14.05224609 C16.01101956 14.06241502 10.6257045 14.08199184 5.24023438 14.10107422 C5.24023438 22.02107422 5.24023438 29.94107422 5.24023438 38.10107422 C11.18023437 38.10107422 17.12023437 38.10107422 23.24023438 38.10107422 C24.11914062 46.59716797 24.11914062 46.59716797 24.24023438 49.10107422 C22.72602436 50.61528423 21.31550669 50.31417278 19.20507812 50.41748047 C18.39619141 50.459375 17.58730469 50.50126953 16.75390625 50.54443359 C15.90376953 50.58375 15.05363281 50.62306641 14.17773438 50.66357422 C13.32373047 50.70675781 12.46972656 50.74994141 11.58984375 50.79443359 C9.473514 50.90084123 7.35689625 51.00149153 5.24023438 51.10107422 C5.24547119 52.02968262 5.25070801 52.95829102 5.25610352 53.91503906 C5.2731303 57.35531227 5.28567711 60.79554081 5.29516602 64.23583984 C5.30019952 65.72575588 5.3070268 67.21566696 5.31567383 68.70556641 C5.32778243 70.84522726 5.33347244 72.98482289 5.33789062 75.12451172 C5.34312744 76.41276855 5.34836426 77.70102539 5.35375977 79.02832031 C5.24023438 82.10107422 5.24023438 82.10107422 4.24023438 84.10107422 C0.28023437 84.10107422 -3.67976563 84.10107422 -7.75976562 84.10107422 C-7.75976562 56.71107422 -7.75976562 29.32107422 -7.75976562 1.10107422 C-5.07026992 -0.24367363 -3.01125964 -0.01384363 0 0 Z " fill="#CC2C2A" transform="translate(61.759765625,28.89892578125)"/>
<path d="M0 0 C5.66963034 2.52255691 9.41741165 7.08939365 11.875 12.75 C14.39344157 20.56169301 13.66421436 28.27357076 10.33984375 35.703125 C7.34495873 40.8372136 3.39703638 44.53819393 -2 47 C-0.30132256 51.80184797 2.22440011 56.01449002 4.8125 60.375 C5.23853516 61.10460937 5.66457031 61.83421875 6.10351562 62.5859375 C8.20001543 66.13825184 10.3581686 69.54321324 12.82421875 72.8515625 C15 76 15 76 15 79 C10.05 79 5.1 79 0 79 C-0.51046875 78.07703125 -1.0209375 77.1540625 -1.546875 76.203125 C-8.35253161 63.96757551 -15.23044312 51.65433532 -23 40 C-23 39.01 -23 38.02 -23 37 C-21.44539063 36.80083984 -21.44539063 36.80083984 -19.859375 36.59765625 C-18.48956735 36.41939361 -17.11977656 36.24100138 -15.75 36.0625 C-14.72712891 35.93198242 -14.72712891 35.93198242 -13.68359375 35.79882812 C-8.75995593 35.25566014 -8.75995593 35.25566014 -4 34 C-2.75285597 31.59047977 -2.75285597 31.59047977 -2 29 C-1.67 28.34 -1.34 27.68 -1 27 C-0.44165259 21.53463782 -0.56053011 17.49776832 -4 13 C-4.66 12.01 -5.32 11.02 -6 10 C-4.68 10.33 -3.36 10.66 -2 11 C-2 9.02 -2 7.04 -2 5 C-1.34 4.67 -0.68 4.34 0 4 C0 2.68 0 1.36 0 0 Z " fill="#CF2B2A" transform="translate(125,34)"/>
<path d="M0 0 C3.96 0 7.92 0 12 0 C13.08857473 3.2657242 13.12692335 5.65518115 13.12939453 9.09204102 C13.13254669 10.34666641 13.13569885 11.60129181 13.13894653 12.89393616 C13.13715683 14.26392654 13.1351059 15.63391661 13.1328125 17.00390625 C13.13348607 18.40730303 13.13445655 19.81069969 13.13571167 21.21409607 C13.13718564 24.15372835 13.13504341 27.09333024 13.13037109 30.03295898 C13.12466872 33.80487514 13.12795791 37.57672021 13.13394356 41.34863377 C13.13755279 44.2456262 13.136409 47.14260171 13.13381577 50.03959465 C13.13314777 51.43069403 13.13397048 52.82179494 13.13629532 54.21289253 C13.13882829 56.15437924 13.13428466 58.09587132 13.12939453 60.03735352 C13.12859894 61.14305191 13.12780334 62.24875031 13.12698364 63.38795471 C13 66 13 66 12 68 C10.02090602 68.02686553 8.04171029 68.04633375 6.0625 68.0625 C4.96035156 68.07410156 3.85820313 68.08570312 2.72265625 68.09765625 C0 68 0 68 -1 67 C-1.09935 64.98579276 -1.12799507 62.96807148 -1.12939453 60.95141602 C-1.13254669 59.65659805 -1.13569885 58.36178009 -1.13894653 57.02772522 C-1.13715657 55.60311855 -1.13510557 54.1785122 -1.1328125 52.75390625 C-1.13348564 51.3028105 -1.13445576 49.85171487 -1.13571167 48.40061951 C-1.13718862 45.35487803 -1.13503451 42.30916582 -1.13037109 39.26342773 C-1.12467886 35.35469254 -1.12794961 31.44602609 -1.13394356 27.53729343 C-1.13755358 24.53907247 -1.13640846 21.54086786 -1.13381577 18.54264641 C-1.13314746 17.10130747 -1.13397158 15.65996706 -1.13629532 14.21862984 C-1.13882846 12.20507968 -1.13428449 10.19152433 -1.12939453 8.17797852 C-1.12859894 7.03071793 -1.12780334 5.88345734 -1.12698364 4.70143127 C-1 2 -1 2 0 0 Z " fill="#CA2B2A" transform="translate(88,45)"/>
<path d="M0 0 C0.66 0 1.32 0 2 0 C-0.12318022 8.94768806 -5.20503209 15.11400418 -11 22 C-11.5671875 22.68320313 -12.134375 23.36640625 -12.71875 24.0703125 C-23.47061006 35.86444471 -40.76757068 43.84609043 -56.53930664 45.22143555 C-59.23833154 45.3391774 -61.92343264 45.37952125 -64.625 45.375 C-65.58414307 45.37411377 -66.54328613 45.37322754 -67.53149414 45.37231445 C-78.56216601 45.19048512 -87.94022367 42.43851067 -98 38 C-97.01 37.505 -97.01 37.505 -96 37 C-96 36.34 -96 35.68 -96 35 C-94 36 -94 36 -93 37 C-91.65252916 37.23075082 -90.29622435 37.41153063 -88.9375 37.5625 C-87.638125 37.706875 -86.33875 37.85125 -85 38 C-85 38.66 -85 39.32 -85 40 C-83.07942708 39.93489583 -81.15885417 39.86979167 -79.23828125 39.8046875 C-77 40 -77 40 -74.65625 41 C-71.36482378 42.23912516 -68.69297374 42.19581765 -65.1875 42.125 C-64.02605469 42.10695312 -62.86460938 42.08890625 -61.66796875 42.0703125 C-60.78753906 42.04710937 -59.90710938 42.02390625 -59 42 C-58.67 41.01 -58.34 40.02 -58 39 C-60.31 38.67 -62.62 38.34 -65 38 C-65 37.67 -65 37.34 -65 37 C-64.21238281 36.90203125 -63.42476562 36.8040625 -62.61328125 36.703125 C-43.89259604 34.13318478 -26.80030896 27.69130919 -14.89453125 12.2734375 C-13.69447096 10.55623783 -12.51799205 8.82210798 -11.375 7.06640625 C-10 5 -10 5 -8 3 C-7.505 4.98 -7.505 4.98 -7 7 C-5.04105639 6.88693303 -5.04105639 6.88693303 -3 6 C-1.76709799 3.54295238 -1.76709799 3.54295238 -1 1 C-0.67 0.67 -0.34 0.34 0 0 Z " fill="#CB3533" transform="translate(158,98)"/>
<path d="M0 0 C0.88236328 -0.00128906 1.76472656 -0.00257813 2.67382812 -0.00390625 C4.05924805 0.00189453 4.05924805 0.00189453 5.47265625 0.0078125 C6.39240234 0.00394531 7.31214844 0.00007812 8.25976562 -0.00390625 C9.58524414 -0.00197266 9.58524414 -0.00197266 10.9375 0 C12.15167603 0.00169189 12.15167603 0.00169189 13.39038086 0.00341797 C15.53515625 0.1328125 15.53515625 0.1328125 18.53515625 1.1328125 C19.19515625 0.8028125 19.85515625 0.4728125 20.53515625 0.1328125 C22.13193947 0.11671079 23.72969615 0.16745623 25.32421875 0.25390625 C26.73574219 0.32641602 26.73574219 0.32641602 28.17578125 0.40039062 C29.160625 0.45646484 30.14546875 0.51253906 31.16015625 0.5703125 C32.15273437 0.62251953 33.1453125 0.67472656 34.16796875 0.72851562 C36.62400193 0.85840199 39.07964985 0.99337414 41.53515625 1.1328125 C40.80568571 5.46370614 39.64774171 7.63943187 36.78515625 11.0078125 C33.50804399 14.94506248 30.45965872 18.9288402 27.53515625 23.1328125 C32.15515625 23.1328125 36.77515625 23.1328125 41.53515625 23.1328125 C42.03015625 25.6078125 42.03015625 25.6078125 42.53515625 28.1328125 C40.03018621 29.38529752 38.32662351 29.24655656 35.52734375 29.23046875 C34.54121094 29.22724609 33.55507812 29.22402344 32.5390625 29.22070312 C31.50652344 29.21232422 30.47398437 29.20394531 29.41015625 29.1953125 C27.84974609 29.18854492 27.84974609 29.18854492 26.2578125 29.18164062 C23.68353663 29.16983202 21.10937479 29.15336325 18.53515625 29.1328125 C18.15495983 25.33643942 18.2549424 23.56450947 20.36328125 20.31640625 C21.1625 19.41019531 21.96171875 18.50398438 22.78515625 17.5703125 C23.5740625 16.66152344 24.36296875 15.75273437 25.17578125 14.81640625 C25.954375 13.93082031 26.73296875 13.04523438 27.53515625 12.1328125 C28.8773786 10.47329609 30.21368439 8.80889951 31.53515625 7.1328125 C29.41022965 6.96521266 27.28521249 6.79876049 25.16015625 6.6328125 C23.97679687 6.54 22.7934375 6.4471875 21.57421875 6.3515625 C18.37601219 6.1213574 15.57723456 6.22415723 12.41015625 6.6328125 C10.49203125 6.8803125 10.49203125 6.8803125 8.53515625 7.1328125 C8.54039307 7.72819824 8.54562988 8.32358398 8.55102539 8.93701172 C8.57177624 11.62726797 8.58481032 14.31750739 8.59765625 17.0078125 C8.60603516 17.94496094 8.61441406 18.88210937 8.62304688 19.84765625 C8.62626953 20.74355469 8.62949219 21.63945312 8.6328125 22.5625 C8.63804932 23.38991699 8.64328613 24.21733398 8.64868164 25.06982422 C8.53515625 27.1328125 8.53515625 27.1328125 7.53515625 29.1328125 C5.88515625 29.1328125 4.23515625 29.1328125 2.53515625 29.1328125 C2.53515625 21.5428125 2.53515625 13.9528125 2.53515625 6.1328125 C-0.43484375 6.1328125 -3.40484375 6.1328125 -6.46484375 6.1328125 C-6.46484375 4.4828125 -6.46484375 2.8328125 -6.46484375 1.1328125 C-4.09690372 -0.05115751 -2.63903066 0.00368249 0 0 Z " fill="#CF6260" transform="translate(143.46484375,162.8671875)"/>
<path d="M0 0 C2 2 2 2 2.13525391 4.52197266 C2.08288574 5.5588623 2.03051758 6.59575195 1.9765625 7.6640625 C1.925 8.78554688 1.8734375 9.90703125 1.8203125 11.0625 C1.75585938 12.238125 1.69140625 13.41375 1.625 14.625 C1.56828125 15.80835938 1.5115625 16.99171875 1.453125 18.2109375 C1.31134354 21.14108774 1.15685548 24.07061802 1 27 C7.27 27 13.54 27 20 27 C20 29.64 20 32.28 20 35 C17.20826945 35.02690104 14.41679652 35.04679053 11.625 35.0625 C10.8309375 35.07087891 10.036875 35.07925781 9.21875 35.08789062 C3.2265625 35.11328125 3.2265625 35.11328125 1 34 C1.00523682 34.81154541 1.01047363 35.62309082 1.01586914 36.45922852 C1.03674338 40.16031104 1.04969336 43.86138113 1.0625 47.5625 C1.07087891 48.83931641 1.07925781 50.11613281 1.08789062 51.43164062 C1.09111328 52.67236328 1.09433594 53.91308594 1.09765625 55.19140625 C1.10289307 56.32779541 1.10812988 57.46418457 1.11352539 58.63500977 C0.99486905 62.15208567 0.55780511 65.52771145 0 69 C-5.75 69.125 -5.75 69.125 -8 68 C-8.9173193 63.99843968 -9.1281974 60.13688876 -9.1328125 56.04296875 C-9.13410156 54.92986328 -9.13539062 53.81675781 -9.13671875 52.66992188 C-9.13285156 51.52072266 -9.12898438 50.37152344 -9.125 49.1875 C-9.12886719 48.04990234 -9.13273437 46.91230469 -9.13671875 45.74023438 C-9.12941151 39.40851206 -8.84041705 33.27644795 -8 27 C-7.01 27 -6.02 27 -5 27 C-5 26.01 -5 25.02 -5 24 C-4.34 24 -3.68 24 -3 24 C-3 23.34 -3 22.68 -3 22 C-2.34 22 -1.68 22 -1 22 C-0.67 14.74 -0.34 7.48 0 0 Z " fill="#D12726" transform="translate(64,42)"/>
<path d="M0 0 C2.32421875 0.06640625 2.32421875 0.06640625 5 1 C7.01953125 3.65234375 7.01953125 3.65234375 8.8125 6.9375 C9.41707031 8.01902344 10.02164063 9.10054687 10.64453125 10.21484375 C12 13 12 13 12 15 C12.99 15 13.98 15 15 15 C15.3403125 14.0409375 15.3403125 14.0409375 15.6875 13.0625 C16.82546452 10.40724946 18.00625 7.82553066 19.3125 5.25 C19.70050781 4.47140625 20.08851562 3.6928125 20.48828125 2.890625 C22 1 22 1 24.60546875 0.171875 C25.79076172 0.08679688 25.79076172 0.08679688 27 0 C29.67512068 2.67512068 28.49529285 10.31905209 28.625 13.9375 C28.70234375 15.76571289 28.70234375 15.76571289 28.78125 17.63085938 C28.82507813 18.79294922 28.86890625 19.95503906 28.9140625 21.15234375 C28.9548291 22.22476318 28.9955957 23.29718262 29.03759766 24.40209961 C29 27 29 27 28 29 C26.33388095 29.042721 24.66617115 29.04063832 23 29 C22 28 22 28 21.90234375 24.83984375 C21.91394531 23.55207031 21.92554687 22.26429688 21.9375 20.9375 C21.94652344 19.64714844 21.95554687 18.35679687 21.96484375 17.02734375 C21.97644531 16.02832031 21.98804687 15.02929688 22 14 C19.03 19.445 19.03 19.445 16 25 C14.35 25 12.7 25 11 25 C10.66226563 24.28972656 10.32453125 23.57945312 9.9765625 22.84765625 C9.30753906 21.46900391 9.30753906 21.46900391 8.625 20.0625 C8.18414062 19.14597656 7.74328125 18.22945312 7.2890625 17.28515625 C6.20800838 14.87096198 6.20800838 14.87096198 4 14 C4.08378906 14.91523438 4.16757813 15.83046875 4.25390625 16.7734375 C4.35574219 17.96195313 4.45757812 19.15046875 4.5625 20.375 C4.66691406 21.55835938 4.77132812 22.74171875 4.87890625 23.9609375 C5 27 5 27 4 29 C2.35 28.67 0.7 28.34 -1 28 C-1.02886338 23.52084672 -1.04675187 19.04171709 -1.0625 14.5625 C-1.07087891 13.28310547 -1.07925781 12.00371094 -1.08789062 10.68554688 C-1.09111328 9.47060547 -1.09433594 8.25566406 -1.09765625 7.00390625 C-1.10289307 5.87799072 -1.10812988 4.7520752 -1.11352539 3.59204102 C-1 1 -1 1 0 0 Z " fill="#C85756" transform="translate(63,163)"/>
<path d="M0 0 C5.40417371 0.07027534 9.15565022 0.68829476 13.9375 3.25 C16.536568 6.715424 16.9616726 8.54899473 16.8125 12.875 C15.9751996 16.10458726 15.1689291 17.82453359 12.9375 20.25 C13.618125 21.178125 14.29875 22.10625 15 23.0625 C15.639375 24.114375 16.27875 25.16625 16.9375 26.25 C16.6075 27.24 16.2775 28.23 15.9375 29.25 C13.1875 29.125 13.1875 29.125 9.9375 28.25 C8.60416667 26.25 7.27083333 24.25 5.9375 22.25 C2.80484521 21.2811941 2.80484521 21.2811941 -0.0625 21.25 C-0.041875 22.384375 -0.02125 23.51875 0 24.6875 C-0.0625 28.25 -0.0625 28.25 -1.0625 29.25 C-2.72867115 29.29063832 -4.39638095 29.292721 -6.0625 29.25 C-6.08715881 25.28069011 -6.10534023 21.31140966 -6.11743164 17.34204102 C-6.12247057 15.99079614 -6.12930177 14.63955674 -6.13793945 13.28833008 C-6.15002419 11.34979566 -6.15519828 9.411222 -6.16015625 7.47265625 C-6.16539307 6.30484619 -6.17062988 5.13703613 -6.17602539 3.93383789 C-5.98249481 -0.64139146 -4.11815974 0.06797513 0 0 Z M-0.0625 6.25 C-0.0625 9.22 -0.0625 12.19 -0.0625 15.25 C4.45736749 15.52165179 4.45736749 15.52165179 8.9375 15.25 C11.23825262 12.48254916 11.23825262 12.48254916 10.6875 9.625 C10.44 8.84125 10.1925 8.0575 9.9375 7.25 C7.65044169 6.10647084 6.34485238 6.14665561 3.8125 6.1875 C1.894375 6.2184375 1.894375 6.2184375 -0.0625 6.25 Z " fill="#D96F6D" transform="translate(105.0625,162.75)"/>
<path d="M0 0 C0.83724609 -0.01224609 1.67449219 -0.02449219 2.53710938 -0.03710938 C3.73883789 -0.04000977 3.73883789 -0.04000977 4.96484375 -0.04296875 C5.70210693 -0.04707764 6.43937012 -0.05118652 7.19897461 -0.05541992 C9.0625 0.1875 9.0625 0.1875 11.0625 2.1875 C10.7325 3.5075 10.4025 4.8275 10.0625 6.1875 C5.4425 6.1875 0.8225 6.1875 -3.9375 6.1875 C-3.9375 8.4975 -3.9375 10.8075 -3.9375 13.1875 C0.3525 13.1875 4.6425 13.1875 9.0625 13.1875 C9.0625 14.8375 9.0625 16.4875 9.0625 18.1875 C4.7725 18.1875 0.4825 18.1875 -3.9375 18.1875 C-3.9375 21.4875 -3.9375 24.7875 -3.9375 28.1875 C-5.59364657 28.56968767 -7.26207024 28.90145102 -8.9375 29.1875 C-10.74029191 27.38470809 -10.06786605 24.64702299 -10.0703125 22.21875 C-10.07160156 21.00832031 -10.07289062 19.79789063 -10.07421875 18.55078125 C-10.07035156 17.27589844 -10.06648437 16.00101563 -10.0625 14.6875 C-10.06636719 13.41261719 -10.07023438 12.13773438 -10.07421875 10.82421875 C-10.07292969 9.61378906 -10.07164063 8.40335938 -10.0703125 7.15625 C-10.06918457 6.03669922 -10.06805664 4.91714844 -10.06689453 3.76367188 C-9.78454548 -1.85773785 -4.42283068 0.00338914 0 0 Z " fill="#D87A79" transform="translate(10.9375,162.8125)"/>
<path d="M0 0 C12.36359739 2.4597733 22.62460747 7.49002832 32 16 C32.66 16.99 33.32 17.98 34 19 C33.505 20.485 33.505 20.485 33 22 C32.01 22 31.02 22 30 22 C30.495 23.98 30.495 23.98 31 26 C30.34 26 29.68 26 29 26 C29 25.34 29 24.68 29 24 C28.44054687 23.74863281 27.88109375 23.49726563 27.3046875 23.23828125 C24.64894584 21.81138276 22.48491629 20.06323893 20.125 18.1875 C10.19727284 10.91332758 -0.9320531 8.34311037 -13 7 C-13 6.34 -13 5.68 -13 5 C-6.83740819 4.77384984 -1.48027281 5.55850102 4.5 7 C5.32242188 7.19078125 6.14484375 7.3815625 6.9921875 7.578125 C8.99662407 8.04427304 10.99858863 8.52102976 13 9 C13 8.01 13 7.02 13 6 C10.69 6.33 8.38 6.66 6 7 C5.67 5.68 5.34 4.36 5 3 C2.03 2.505 2.03 2.505 -1 2 C-0.67 1.34 -0.34 0.68 0 0 Z " fill="#CD4B4A" transform="translate(109,1)"/>
<path d="M0 0 C9.9 0 19.8 0 30 0 C30.495 0.99 30.495 0.99 31 2 C31.825 2.309375 32.65 2.61875 33.5 2.9375 C34.325 3.288125 35.15 3.63875 36 4 C36.495 5.485 36.495 5.485 37 7 C39.31 7 41.62 7 44 7 C44 7.99 44 8.98 44 10 C39.49247581 9.57071198 35.22465091 9.06350505 30.83203125 7.96875 C25.72928507 6.80588467 20.83702728 6.77402183 15.625 6.875 C14.29275391 6.88853516 14.29275391 6.88853516 12.93359375 6.90234375 C11.30023676 6.91964103 9.66691383 6.94108148 8.03369141 6.96826172 C6.35596522 6.99444472 4.67793049 7 3 7 C1.845 7.20625 0.69 7.4125 -0.5 7.625 C-4 8 -4 8 -7 6 C-7 5.34 -7 4.68 -7 4 C-4.33333333 4 -1.66666667 4 1 4 C0.34 3.67 -0.32 3.34 -1 3 C-0.67 2.01 -0.34 1.02 0 0 Z " fill="#C93A38" transform="translate(78,0)"/>
<path d="M0 0 C0.19619224 4.29131609 0.38048583 8.58306102 0.5625 12.875 C0.61857422 14.09832031 0.67464844 15.32164062 0.73242188 16.58203125 C0.78076172 17.74863281 0.82910156 18.91523438 0.87890625 20.1171875 C0.9260376 21.19597168 0.97316895 22.27475586 1.02172852 23.38623047 C1 26 1 26 0 28 C-1.66611905 28.042721 -3.33382885 28.04063832 -5 28 C-6 27 -6 27 -6.09765625 23.83984375 C-6.08605469 22.55207031 -6.07445313 21.26429688 -6.0625 19.9375 C-6.05347656 18.64714844 -6.04445313 17.35679687 -6.03515625 16.02734375 C-6.02355469 15.02832031 -6.01195313 14.02929688 -6 13 C-6.23074219 13.56589844 -6.46148437 14.13179687 -6.69921875 14.71484375 C-7.68434877 16.93041285 -8.66103202 18.97657555 -10 21 C-12.75 22 -12.75 22 -15 22 C-15.33 20.02 -15.66 18.04 -16 16 C-14.35 15.67 -12.7 15.34 -11 15 C-11.103125 14.195625 -11.20625 13.39125 -11.3125 12.5625 C-10.88259341 7.6615649 -8.78739757 4.01216316 -6 0 C-3.50907189 -1.24546405 -2.58919267 -0.7767578 0 0 Z " fill="#BD4442" transform="translate(91,164)"/>
<path d="M0 0 C0 7.26 0 14.52 0 22 C4.29 22 8.58 22 13 22 C14 26 14 26 13 28 C10.02077407 28.02683987 7.04178705 28.04676037 4.0625 28.0625 C2.78729492 28.07506836 2.78729492 28.07506836 1.48632812 28.08789062 C0.67744141 28.09111328 -0.13144531 28.09433594 -0.96484375 28.09765625 C-1.7137085 28.10289307 -2.46257324 28.10812988 -3.23413086 28.11352539 C-5 28 -5 28 -6 27 C-6.08758003 25.00035018 -6.10696576 22.9976389 -6.09765625 20.99609375 C-6.09443359 19.78115234 -6.09121094 18.56621094 -6.08789062 17.31445312 C-6.07951172 16.03505859 -6.07113281 14.75566406 -6.0625 13.4375 C-6.05798828 12.15423828 -6.05347656 10.87097656 -6.04882812 9.54882812 C-6.03699545 6.36583978 -6.02051068 3.18294238 -6 0 C-4 -1 -4 -1 0 0 Z " fill="#CB3935" transform="translate(45,164)"/>
<path d="M0 0 C0.33 0.66 0.66 1.32 1 2 C1.99 2.33 2.98 2.66 4 3 C4.24351301 7.000735 4.45807841 11.00192016 4.64697266 15.00561523 C4.71505041 16.36475058 4.79075977 17.72352753 4.87451172 19.08178711 C5.72222786 32.98739592 5.72222786 32.98739592 1 39 C-1.17504429 37.29779142 -1.94003214 36.25059418 -2.58984375 33.53515625 C-3.1317671 28.86429313 -3.14475302 24.2604277 -3.125 19.5625 C-3.12886719 18.64662109 -3.13273437 17.73074219 -3.13671875 16.78710938 C-3.11709202 3.11709202 -3.11709202 3.11709202 0 0 Z " fill="#D42927" transform="translate(24,52)"/>
<path d="M0 0 C1.485 0.99 1.485 0.99 3 2 C4.98804424 2.38123007 6.99166329 2.68404405 9 2.9375 C13.21549658 3.52711241 17.18047945 4.25792241 21.25 5.5 C28.66172834 7.66955495 36.34172787 8.2368662 44 9 C43.67 9.99 43.34 10.98 43 12 C43.66 12.33 44.32 12.66 45 13 C43.04605013 14.95394987 39.45507879 14.17487731 36.875 14.1875 C35.57304688 14.20167969 34.27109375 14.21585938 32.9296875 14.23046875 C28.990558 13.99944624 25.75495569 13.16062267 22 12 C18.70780572 11.83152909 18.70780572 11.83152909 16 12 C15.67 11.34 15.34 10.68 15 10 C12.9159293 9.31172463 12.9159293 9.31172463 10.5 8.875 C9.27796875 8.62363281 9.27796875 8.62363281 8.03125 8.3671875 C6.18002004 7.97035231 6.18002004 7.97035231 5 8 C4.01 7.67 3.02 7.34 2 7 C2.33 6.01 2.66 5.02 3 4 C1.68 4 0.36 4 -1 4 C-0.67 2.68 -0.34 1.36 0 0 Z " fill="#C73939" transform="translate(57,127)"/>
<path d="M0 0 C0.33 0.66 0.66 1.32 1 2 C1.66 2 2.32 2 3 2 C3.33 3.98 3.66 5.96 4 8 C3.34 7.67 2.68 7.34 2 7 C1.67 7.66 1.34 8.32 1 9 C2.65 9.33 4.3 9.66 6 10 C6.33 13.96 6.66 17.92 7 22 C6.34 22.33 5.68 22.66 5 23 C4.54625 24.155 4.0925 25.31 3.625 26.5 C2 30 2 30 -0.1875 30.9375 C-1.0846875 30.9684375 -1.0846875 30.9684375 -2 31 C-2.33 30.01 -2.66 29.02 -3 28 C-3.99 28.33 -4.98 28.66 -6 29 C-5.855625 28.39414063 -5.71125 27.78828125 -5.5625 27.1640625 C-3.92565853 19.77554196 -2.89041364 12.39199062 -5 5 C-4.34 4.67 -3.68 4.34 -3 4 C-1.96854629 2.69084721 -0.96457834 1.35917857 0 0 Z " fill="#D32927" transform="translate(130,42)"/>
<path d="M0 0 C0.33 0 0.66 0 1 0 C1.33 7.59 1.66 15.18 2 23 C7.94 23 13.88 23 20 23 C20.87890625 31.49609375 20.87890625 31.49609375 21 34 C19.48578999 35.51421001 18.07527232 35.21309856 15.96484375 35.31640625 C15.15595703 35.35830078 14.34707031 35.40019531 13.51367188 35.44335938 C12.66353516 35.48267578 11.81339844 35.52199219 10.9375 35.5625 C10.08349609 35.60568359 9.22949219 35.64886719 8.34960938 35.69335938 C6.23327963 35.79976702 4.11666187 35.90041731 2 36 C2.00523682 36.9286084 2.01047363 37.8572168 2.01586914 38.81396484 C2.03289593 42.25423805 2.04544273 45.69446659 2.05493164 49.13476562 C2.05996514 50.62468166 2.06679242 52.11459274 2.07543945 53.60449219 C2.08754805 55.74415304 2.09323807 57.88374868 2.09765625 60.0234375 C2.10289307 61.31169434 2.10812988 62.59995117 2.11352539 63.92724609 C2 67 2 67 1 69 C-2.96 69 -6.92 69 -11 69 C-10.505 68.01 -10.505 68.01 -10 67 C-9.95977609 64.6670134 -9.95679753 62.33293334 -10 60 C-9.67 60 -9.34 60 -9 60 C-9 61.98 -9 63.96 -9 66 C-5.04 66.495 -5.04 66.495 -1 67 C-0.67 55.45 -0.34 43.9 0 32 C6.27 32.33 12.54 32.66 19 33 C19 30.36 19 27.72 19 25 C12.73 25 6.46 25 0 25 C0 16.75 0 8.5 0 0 Z " fill="#B64744" transform="translate(65,44)"/>
<path d="M0 0 C5.66963034 2.52255691 9.41741165 7.08939365 11.875 12.75 C13.54988692 17.72568745 13.25728992 22.81608458 13 28 C12.34 28 11.68 28 11 28 C10.505 23.05 10.505 23.05 10 18 C8.35 18 6.7 18 5 18 C4.67 17.34 4.34 16.68 4 16 C4.66 15.67 5.32 15.34 6 15 C6.33 14.34 6.66 13.68 7 13 C7.33 12.67 7.66 12.34 8 12 C8 11.34 8 10.68 8 10 C6.68 10 5.36 10 4 10 C2.17000985 13.31685715 1.92667722 15.44664334 2.10546875 19.234375 C2.2922681 24.96288852 1.96365173 29.02529888 -1 34 C-3.1875 34.9375 -3.1875 34.9375 -5 35 C-5 35.66 -5 36.32 -5 37 C-5.99 36.67 -6.98 36.34 -8 36 C-7.38125 35.773125 -6.7625 35.54625 -6.125 35.3125 C-3.3634551 33.60683991 -2.98483805 32.03027091 -2 29 C-1.67 28.34 -1.34 27.68 -1 27 C-0.44165259 21.53463782 -0.56053011 17.49776832 -4 13 C-4.66 12.01 -5.32 11.02 -6 10 C-4.68 10.33 -3.36 10.66 -2 11 C-2 9.02 -2 7.04 -2 5 C-1.34 4.67 -0.68 4.34 0 4 C0 2.68 0 1.36 0 0 Z " fill="#CB3232" transform="translate(125,34)"/>
<path d="M0 0 C2.475 0.99 2.475 0.99 5 2 C5 10.58 5 19.16 5 28 C3.35 28.33 1.7 28.66 0 29 C-2.68718873 26.31281127 -1.54389976 18.69462881 -1.6875 15.0625 C-1.74744141 13.84369141 -1.80738281 12.62488281 -1.86914062 11.36914062 C-1.91619141 10.20705078 -1.96324219 9.04496094 -2.01171875 7.84765625 C-2.05772217 6.77523682 -2.10372559 5.70281738 -2.15112305 4.59790039 C-2 2 -2 2 0 0 Z " fill="#C95656" transform="translate(129,163)"/>
<path d="M0 0 C1.65 0.33 3.3 0.66 5 1 C5 9.91 5 18.82 5 28 C3.35 28.33 1.7 28.66 0 29 C-1.80279191 27.19720809 -1.13036605 24.45952299 -1.1328125 22.03125 C-1.13410156 20.82082031 -1.13539062 19.61039063 -1.13671875 18.36328125 C-1.13285156 17.08839844 -1.12898438 15.81351563 -1.125 14.5 C-1.12886719 13.22511719 -1.13273437 11.95023438 -1.13671875 10.63671875 C-1.13542969 9.42628906 -1.13414063 8.21585938 -1.1328125 6.96875 C-1.13168457 5.84919922 -1.13055664 4.72964844 -1.12939453 3.57617188 C-1 1 -1 1 0 0 Z " fill="#BD6160" transform="translate(27,163)"/>
<path d="M0 0 C7.01294274 -0.34806885 12.72288444 -0.36274048 19 3 C21.61858353 6.49144471 22.02281344 8.32700347 21.875 12.6875 C21.03701613 15.8598675 20.58355457 17.09041619 18 19 C17.01 18.67 16.02 18.34 15 18 C15 17.67 15 17.34 15 17 C11.04 16.67 7.08 16.34 3 16 C3 12.37 3 8.74 3 5 C6.63 5 10.26 5 14 5 C14 4.34 14 3.68 14 3 C9.05 2.67 4.1 2.34 -1 2 C-0.67 1.34 -0.34 0.68 0 0 Z M5 6 C5 8.97 5 11.94 5 15 C9.51986749 15.27165179 9.51986749 15.27165179 14 15 C16.30075262 12.23254916 16.30075262 12.23254916 15.75 9.375 C15.5025 8.59125 15.255 7.8075 15 7 C12.71294169 5.85647084 11.40735238 5.89665561 8.875 5.9375 C6.956875 5.9684375 6.956875 5.9684375 5 6 Z " fill="#C86668" transform="translate(100,163)"/>
<path d="M0 0 C0.33 0 0.66 0 1 0 C1.17015625 0.83402344 1.3403125 1.66804688 1.515625 2.52734375 C2.85645622 8.75365043 4.31891753 14.41631473 7.23046875 20.09765625 C8 22 8 22 8 26 C7.34 26 6.68 26 6 26 C6 26.66 6 27.32 6 28 C3 27 3 27 1.9375 25.1875 C1.3125 23.72916667 0.6875 22.27083333 0.0625 20.8125 C-0.93434552 18.65604893 -0.93434552 18.65604893 -4 18 C-4.73046875 15.93359375 -4.73046875 15.93359375 -5.1875 13.4375 C-5.34605469 12.61121094 -5.50460938 11.78492187 -5.66796875 10.93359375 C-5.77753906 10.29550781 -5.88710938 9.65742187 -6 9 C-5.34 9 -4.68 9 -4 9 C-1.98217268 6.09432866 -0.64505596 3.48330216 0 0 Z " fill="#C93636" transform="translate(29,80)"/>
<path d="M0 0 C0.66 0.33 1.32 0.66 2 1 C1.67 1.99 1.34 2.98 1 4 C0.01 4.33 -0.98 4.66 -2 5 C-1.67 5.99 -1.34 6.98 -1 8 C-3.475 7.505 -3.475 7.505 -6 7 C-6.33 8.98 -6.66 10.96 -7 13 C-9.97 13.99 -12.94 14.98 -16 16 C-16.33 15.01 -16.66 14.02 -17 13 C-17.66 13.66 -18.32 14.32 -19 15 C-20.32 15 -21.64 15 -23 15 C-25.25 12.5 -25.25 12.5 -27 10 C-24.94037148 9.32451422 -22.87715678 8.65995688 -20.8125 8 C-19.66394531 7.62875 -18.51539062 7.2575 -17.33203125 6.875 C-14.33605592 6.08824915 -12.06000752 5.9028569 -9 6 C-5.81069014 4.77492517 -5.81069014 4.77492517 -4 2 C-2.68 2 -1.36 2 0 2 C0 1.34 0 0.68 0 0 Z " fill="#CE3F41" transform="translate(133,123)"/>
<path d="M0 0 C0.33 0 0.66 0 1 0 C1 21.45 1 42.9 1 65 C2.65 65 4.3 65 6 65 C5.01 65.99 5.01 65.99 4 67 C1.375 66.625 1.375 66.625 -1 66 C-1.02312659 57.54232666 -1.0409167 49.08466644 -1.05181217 40.62696934 C-1.05704031 36.70011342 -1.06413669 32.77327906 -1.07543945 28.84643555 C-1.0862708 25.05985743 -1.09227736 21.2733001 -1.09487724 17.48670769 C-1.09673105 16.03895681 -1.10035081 14.59120712 -1.10573006 13.14346504 C-1.11294367 11.12242865 -1.11340808 9.10137152 -1.11352539 7.08032227 C-1.115746 5.92782486 -1.11796661 4.77532745 -1.12025452 3.58790588 C-1 1 -1 1 0 0 Z " fill="#C58E8C" transform="translate(88,46)"/>
<path d="M0 0 C0.66 0 1.32 0 2 0 C2.33 1.98 2.66 3.96 3 6 C3.33 6 3.66 6 4 6 C4.22102569 16.2531361 3.9679704 25.89658054 2 36 C-2.01316652 31.98683348 -1.25940637 25.58303491 -1.5 20.1875 C-1.76162955 14.40742484 -2.21534024 8.73455507 -3 3 C-2.67 3.66 -2.34 4.32 -2 5 C-1.67 4.34 -1.34 3.68 -1 3 C-0.34 3 0.32 3 1 3 C0.67 2.01 0.34 1.02 0 0 Z " fill="#CB2928" transform="translate(160,52)"/>
<path d="M0 0 C4.95 0 9.9 0 15 0 C15.33 1.32 15.66 2.64 16 4 C12.04 3.67 8.08 3.34 4 3 C4 6.63 4 10.26 4 14 C7.3 14 10.6 14 14 14 C13.34 15.32 12.68 16.64 12 18 C4.57142857 18.28571429 4.57142857 18.28571429 1 16 C0.67 16.99 0.34 17.98 0 19 C0 12.73 0 6.46 0 0 Z " fill="#C63532" transform="translate(99,165)"/>
<path d="M0 0 C8.56315064 1.70366348 15.54205372 4.46357205 23 9 C22.07767578 9.21849609 22.07767578 9.21849609 21.13671875 9.44140625 C18.86365935 10.03564298 17.02561062 10.81257309 15 12 C14.67 12.66 14.34 13.32 14 14 C13.14019531 13.66226562 12.28039062 13.32453125 11.39453125 12.9765625 C3.29441418 9.92024788 -4.3435631 7.96342404 -13 7 C-13 6.34 -13 5.68 -13 5 C-6.83740819 4.77384984 -1.48027281 5.55850102 4.5 7 C5.32242188 7.19078125 6.14484375 7.3815625 6.9921875 7.578125 C8.99662407 8.04427304 10.99858863 8.52102976 13 9 C13 8.01 13 7.02 13 6 C10.69 6.33 8.38 6.66 6 7 C5.67 5.68 5.34 4.36 5 3 C2.03 2.505 2.03 2.505 -1 2 C-0.67 1.34 -0.34 0.68 0 0 Z " fill="#C54E4E" transform="translate(109,1)"/>
<path d="M0 0 C1.24113556 0.02009628 2.48227112 0.04019257 3.76101685 0.06089783 C5.12046525 0.08809617 6.47991142 0.11540698 7.83935547 0.14282227 C9.22654453 0.16712126 10.61374163 0.19096493 12.00094604 0.21437073 C15.65396277 0.27723371 19.30683726 0.346294 22.9597168 0.41662598 C26.68645749 0.48728948 30.41329911 0.5521183 34.14013672 0.61743164 C41.45405042 0.7464725 48.76782372 0.88205762 56.08154297 1.02172852 C56.08154297 1.68172852 56.08154297 2.34172852 56.08154297 3.02172852 C35.62154297 3.02172852 15.16154297 3.02172852 -5.91845703 3.02172852 C-6.24845703 4.01172852 -6.57845703 5.00172852 -6.91845703 6.02172852 C-7.24845703 4.37172852 -7.57845703 2.72172852 -7.91845703 1.02172852 C-5.17997497 -0.34751252 -3.06406076 -0.05582297 0 0 Z " fill="#B74843" transform="translate(61.91845703125,28.978271484375)"/>
<path d="M0 0 C0.33 0 0.66 0 1 0 C1 6.93 1 13.86 1 21 C5.62 21 10.24 21 15 21 C16 25 16 25 15 27 C9.06 27 3.12 27 -3 27 C-2.505 25.515 -2.505 25.515 -2 24 C-1.34 23.67 -0.68 23.34 0 23 C0 15.41 0 7.82 0 0 Z " fill="#B82F2A" transform="translate(43,165)"/>
<path d="M0 0 C3 2 3 2 3.6875 4.625 C3.790625 5.40875 3.89375 6.1925 4 7 C4.99 6.67 5.98 6.34 7 6 C6.79503906 6.64066406 6.59007812 7.28132813 6.37890625 7.94140625 C6.10949219 8.80636719 5.84007812 9.67132813 5.5625 10.5625 C5.29566406 11.40941406 5.02882813 12.25632812 4.75390625 13.12890625 C3.12965156 19.31453941 2.76977851 25.58063085 2.4375 31.9375 C2.37272461 33.10635742 2.37272461 33.10635742 2.30664062 34.29882812 C2.20171923 36.19907117 2.1004755 38.09951669 2 40 C1.67 40 1.34 40 1 40 C0.67 31.75 0.34 23.5 0 15 C-1.32 14.34 -2.64 13.68 -4 13 C-3.52140759 11.39566191 -3.04210442 9.79153584 -2.5625 8.1875 C-2.29566406 7.29417969 -2.02882813 6.40085937 -1.75390625 5.48046875 C-1.19612127 3.64526945 -0.60655425 1.81966274 0 0 Z " fill="#CB4D48" transform="translate(27,40)"/>
<path d="M0 0 C7.18421053 0.45614035 7.18421053 0.45614035 11 3 C8.36 3.33 5.72 3.66 3 4 C3 10.6 3 17.2 3 24 C1.35 24.33 -0.3 24.66 -2 25 C-2.05786668 21.20839703 -2.09355054 17.41690689 -2.125 13.625 C-2.14175781 12.54476562 -2.15851563 11.46453125 -2.17578125 10.3515625 C-2.18222656 9.3203125 -2.18867188 8.2890625 -2.1953125 7.2265625 C-2.20578613 6.27346191 -2.21625977 5.32036133 -2.22705078 4.33837891 C-2 2 -2 2 0 0 Z " fill="#B53736" transform="translate(149,166)"/>
<path d="M0 0 C1 1 1 1 1.3125 3.875 C1 7 1 7 -0.625 8.9375 C-3.81564458 10.36489363 -5.67939213 9.93843266 -9 9 C-11 7 -11 7 -11.4375 4.0625 C-11 1 -11 1 -8.875 -1 C-5.17882636 -2.28562562 -3.50138898 -1.59154044 0 0 Z " fill="#C55A59" transform="translate(98,13)"/>
<path d="M0 0 C1.27875 -0.061875 2.5575 -0.12375 3.875 -0.1875 C4.95394531 -0.23970703 4.95394531 -0.23970703 6.0546875 -0.29296875 C6.69664063 -0.19628906 7.33859375 -0.09960938 8 0 C10.15502531 3.23253796 10.46856135 4.25150923 10 8 C8.875 9.8125 8.875 9.8125 7 11 C3.85075452 11.39365568 1.88090884 11.52854531 -0.875 9.875 C-2.4682099 7.21965017 -2.20214032 5.03210482 -2 2 C-1.34 2 -0.68 2 0 2 C0 1.34 0 0.68 0 0 Z " fill="#C82A29" transform="translate(89,120)"/>
<path d="M0 0 C2 2 2 2 2.3125 5.5 C2.1578125 7.2325 2.1578125 7.2325 2 9 C-1 11 -1 11 -4.625 10.75 C-5.73875 10.5025 -6.8525 10.255 -8 10 C-9.41441874 7.17116253 -9.31900332 5.12623255 -9 2 C-6.12524616 -1.3006433 -4.03854228 -1.38160657 0 0 Z " fill="#BE5C5D" transform="translate(151,66)"/>
<path d="M0 0 C2.25 1.25 2.25 1.25 3.25 2.25 C3.51587831 5.30760057 3.68409881 7.45840805 2.1875 10.1875 C-0.90212727 11.88181173 -3.42217418 10.98951685 -6.75 10.25 C-7.75 9.25 -7.75 9.25 -8.125 5.875 C-7.75 2.25 -7.75 2.25 -5.5625 0.1875 C-2.75 -0.75 -2.75 -0.75 0 0 Z " fill="#C4585C" transform="translate(40.75,65.75)"/>
<path d="M0 0 C4.01455327 1.93293305 7.76155525 4.24485076 11.5625 6.5625 C13.67386195 7.80766217 15.79266748 8.93721027 18 10 C18 10.33 18 10.66 18 11 C13.91908529 11.11335874 10.67163473 10.83581737 7 9 C6.34 9.66 5.68 10.32 5 11 C6.32 11 7.64 11 9 11 C9 12.32 9 13.64 9 15 C4.32894208 13.44298069 0.91294315 10.91552627 -3 8 C-2.26330078 7.34064453 -2.26330078 7.34064453 -1.51171875 6.66796875 C0.27541725 5.04157708 0.27541725 5.04157708 0.1875 2.3125 C0.125625 1.549375 0.06375 0.78625 0 0 Z " fill="#D03A3A" transform="translate(51,120)"/>
<path d="M0 0 C5.28 0 10.56 0 16 0 C16 1.65 16 3.3 16 5 C11.05 5 6.1 5 1 5 C1 7.64 1 10.28 1 13 C0.01 13 -0.98 13 -2 13 C-1.85769192 11.58297487 -1.71099254 10.1663904 -1.5625 8.75 C-1.48128906 7.96109375 -1.40007812 7.1721875 -1.31640625 6.359375 C-1 4 -1 4 0 0 Z " fill="#C44343" transform="translate(4,176)"/>
<path d="M0 0 C5.61 0 11.22 0 17 0 C17.33 1.32 17.66 2.64 18 4 C17 5 17 5 13.62109375 5.09765625 C12.22652923 5.09098369 10.83198257 5.07902532 9.4375 5.0625 C8.72658203 5.05798828 8.01566406 5.05347656 7.28320312 5.04882812 C5.52209987 5.03700864 3.76103964 5.01907263 2 5 C1.67 6.65 1.34 8.3 1 10 C0.34 9.67 -0.32 9.34 -1 9 C-1.59355614 6.35139573 -1.74209269 3.70802678 -2 1 C-1.67 1.66 -1.34 2.32 -1 3 C-0.34 2.67 0.32 2.34 1 2 C0.67 1.34 0.34 0.68 0 0 Z " fill="#CB3931" transform="translate(4,164)"/>
<path d="M0 0 C2 1 2 1 3 2 C4.34747084 2.23075082 5.70377565 2.41153063 7.0625 2.5625 C8.361875 2.706875 9.66125 2.85125 11 3 C11 3.66 11 4.32 11 5 C13.88085938 4.90234375 13.88085938 4.90234375 16.76171875 4.8046875 C19 5 19 5 21.1875 5.9375 C25.15821178 7.43754667 29.10694286 7.72004501 33.3125 8.125 C34.14845703 8.21136719 34.98441406 8.29773438 35.84570312 8.38671875 C37.8964763 8.59765542 39.94815903 8.79971646 42 9 C42 9.33 42 9.66 42 10 C25.87102634 10.57469277 12.87394507 9.56258765 -2 3 C-1.34 2.67 -0.68 2.34 0 2 C0 1.34 0 0.68 0 0 Z " fill="#C85A58" transform="translate(62,133)"/>
<path d="M0 0 C1.37466431 0.07069702 1.37466431 0.07069702 2.77709961 0.14282227 C4.26113281 0.21533203 4.26113281 0.21533203 5.77514648 0.28930664 C7.33652344 0.37341797 7.33652344 0.37341797 8.92944336 0.45922852 C10.49662109 0.53753906 10.49662109 0.53753906 12.09545898 0.61743164 C14.68622572 0.74756148 17.27665002 0.8825401 19.86694336 1.02172852 C19.15991113 5.85717885 17.51162952 7.75085632 13.86694336 11.02172852 C14.58594254 7.7862322 15.6025746 5.18265041 16.86694336 2.02172852 C10.43194336 2.51672852 10.43194336 2.51672852 3.86694336 3.02172852 C3.86694336 3.68172852 3.86694336 4.34172852 3.86694336 5.02172852 C6.17694336 5.02172852 8.48694336 5.02172852 10.86694336 5.02172852 C10.86694336 5.35172852 10.86694336 5.68172852 10.86694336 6.02172852 C-3.91437783 6.75976952 -3.91437783 6.75976952 -10.13305664 2.02172852 C-10.13305664 1.69172852 -10.13305664 1.36172852 -10.13305664 1.02172852 C-8.99868164 1.04235352 -7.86430664 1.06297852 -6.69555664 1.08422852 C-3.06602508 1.02055252 -3.09828796 0.03156091 0 0 Z " fill="#B93D3C" transform="translate(165.133056640625,162.978271484375)"/>
<path d="M0 0 C2.59330782 3.09202086 4.96315744 6.30311732 7.25 9.625 C7.77078125 10.38039063 8.2915625 11.13578125 8.828125 11.9140625 C10 14 10 14 10 17 C5.05 17 0.1 17 -5 17 C-5.66 15.35 -6.32 13.7 -7 12 C-6.01 12 -5.02 12 -4 12 C-4 12.99 -4 13.98 -4 15 C-2.02 14.67 -0.04 14.34 2 14 C2.33 12.68 2.66 11.36 3 10 C2.01 10 1.02 10 0 10 C0 6.7 0 3.4 0 0 Z " fill="#C15F62" transform="translate(130,96)"/>
<path d="M0 0 C3.3 0.66 6.6 1.32 10 2 C9.67 2.66 9.34 3.32 9 4 C6.69 4 4.38 4 2 4 C2.00523682 4.9286084 2.01047363 5.8572168 2.01586914 6.81396484 C2.03289593 10.25423805 2.04544273 13.69446659 2.05493164 17.13476562 C2.05996514 18.62468166 2.06679242 20.11459274 2.07543945 21.60449219 C2.08754805 23.74415304 2.09323807 25.88374868 2.09765625 28.0234375 C2.10289307 29.31169434 2.10812988 30.59995117 2.11352539 31.92724609 C2 35 2 35 1 37 C-2.96 37 -6.92 37 -11 37 C-10.67 36.34 -10.34 35.68 -10 35 C-9.95977609 32.6670134 -9.95679753 30.33293334 -10 28 C-9.67 28 -9.34 28 -9 28 C-9 29.98 -9 31.96 -9 34 C-5.04 34.495 -5.04 34.495 -1 35 C-0.67 23.45 -0.34 11.9 0 0 Z " fill="#BA4E4D" transform="translate(65,76)"/>
<path d="M0 0 C-0.33 1.98 -0.66 3.96 -1 6 C-1.99 6 -2.98 6 -4 6 C-4 6.66 -4 7.32 -4 8 C-9.29230769 11.07692308 -9.29230769 11.07692308 -12.875 10.6875 C-13.57625 10.460625 -14.2775 10.23375 -15 10 C-15 7.8125 -15 7.8125 -14 5 C-9.74872787 1.24589334 -5.76251272 -0.72031409 0 0 Z " fill="#D12E29" transform="translate(62,9)"/>
<path d="M0 0 C0.99 0 1.98 0 3 0 C3.36842105 5.52631579 3.36842105 5.52631579 1.6875 7.6875 C1.130625 8.120625 0.57375 8.55375 0 9 C-2.28480235 10.99920206 -3.11308717 12.2570163 -4.375 15.125 C-6 18 -6 18 -8.6875 18.875 C-9.450625 18.91625 -10.21375 18.9575 -11 19 C-11.33 17.02 -11.66 15.04 -12 13 C-10.35 12.67 -8.7 12.34 -7 12 C-7 10.35 -7 8.7 -7 7 C-5.68 7.33 -4.36 7.66 -3 8 C-3.33 6.68 -3.66 5.36 -4 4 C-3.01 3.67 -2.02 3.34 -1 3 C-0.67 2.01 -0.34 1.02 0 0 Z " fill="#C24C48" transform="translate(87,167)"/>
<path d="M0 0 C3.95664396 5.93496594 6.58193773 13.07026346 5.75 20.25 C5.5025 21.4875 5.255 22.725 5 24 C4.67 24 4.34 24 4 24 C4 20.04 4 16.08 4 12 C3.67 13.65 3.34 15.3 3 17 C2.01 17 1.02 17 0 17 C-0.33 19.31 -0.66 21.62 -1 24 C-1.33 24 -1.66 24 -2 24 C-2.99 18.72 -3.98 13.44 -5 8 C-4.01 7.67 -3.02 7.34 -2 7 C-1.67 8.32 -1.34 9.64 -1 11 C-0.34 10.67 0.32 10.34 1 10 C0.7525 8.9171875 0.7525 8.9171875 0.5 7.8125 C0.02412881 5.13572455 -0.077443 2.71050513 0 0 Z " fill="#C94948" transform="translate(158,40)"/>
<path d="M0 0 C0.66 0.33 1.32 0.66 2 1 C2 2.32 2 3.64 2 5 C6.62 5 11.24 5 16 5 C16.33 6.65 16.66 8.3 17 10 C14.49502996 11.25248502 12.79146726 11.11374406 9.9921875 11.09765625 C9.00605469 11.09443359 8.01992187 11.09121094 7.00390625 11.08789062 C5.97136719 11.07951172 4.93882812 11.07113281 3.875 11.0625 C2.31458984 11.05573242 2.31458984 11.05573242 0.72265625 11.04882812 C-1.85161962 11.03701952 -4.42578146 11.02055075 -7 11 C-7 10.67 -7 10.34 -7 10 C-2.05 9.67 2.9 9.34 8 9 C8 8.34 8 7.68 8 7 C5.36 7 2.72 7 0 7 C0 4.69 0 2.38 0 0 Z " fill="#D3807E" transform="translate(169,181)"/>
<path d="M0 0 C2.475 0.495 2.475 0.495 5 1 C7.56687367 4.8503105 6.83288724 6.58569763 6 11 C5.34 11 4.68 11 4 11 C3.67 12.32 3.34 13.64 3 15 C2.34 15 1.68 15 1 15 C1 16.98 1 18.96 1 21 C0.67 21 0.34 21 0 21 C0 14.07 0 7.14 0 0 Z " fill="#C02E2C" transform="translate(63,163)"/>
<path d="M0 0 C0.99 0.33 1.98 0.66 3 1 C2.67 1.66 2.34 2.32 2 3 C1.34 3 0.68 3 0 3 C0 4.32 0 5.64 0 7 C-0.66 7 -1.32 7 -2 7 C-1.7525 7.53625 -1.505 8.0725 -1.25 8.625 C-0.85925211 12.33710494 -2.75767057 14.18107157 -5 17 C-5.66 17 -6.32 17 -7 17 C-9.29648649 14.4385343 -10 13.52032428 -10 10 C-9.34 10 -8.68 10 -8 10 C-8 9.01 -8 8.02 -8 7 C-7.01 7 -6.02 7 -5 7 C-4.731875 6.21625 -4.46375 5.4325 -4.1875 4.625 C-3 2 -3 2 0 0 Z " fill="#C52A2C" transform="translate(38,30)"/>
<path d="M0 0 C1.258125 -0.04125 2.51625 -0.0825 3.8125 -0.125 C4.52019531 -0.14820312 5.22789063 -0.17140625 5.95703125 -0.1953125 C8 0 8 0 11 2 C11.66 2.33 12.32 2.66 13 3 C13.33 3.99 13.66 4.98 14 6 C16.31 6 18.62 6 21 6 C21 6.99 21 7.98 21 9 C13.76410027 8.39700836 7.00629124 6.8849413 0 5 C0 3.35 0 1.7 0 0 Z " fill="#CE2827" transform="translate(101,1)"/>
<path d="M0 0 C0 8.25 0 16.5 0 25 C-1.32 25 -2.64 25 -4 25 C-4.38218767 23.34385343 -4.71395102 21.67542976 -5 20 C-4.67 19.67 -4.34 19.34 -4 19 C-3.84417697 17.65984779 -3.74955858 16.31241097 -3.68359375 14.96484375 C-3.62075195 13.75151367 -3.62075195 13.75151367 -3.55664062 12.51367188 C-3.51732422 11.66353516 -3.47800781 10.81339844 -3.4375 9.9375 C-3.39431641 9.08349609 -3.35113281 8.22949219 -3.30664062 7.34960938 C-3.20023298 5.23327963 -3.09958269 3.11666187 -3 1 C-1 0 -1 0 0 0 Z " fill="#C42E2C" transform="translate(31,165)"/>
<path d="M0 0 C0.95310059 0.05236816 1.90620117 0.10473633 2.88818359 0.15869141 C3.91943359 0.21025391 4.95068359 0.26181641 6.01318359 0.31494141 C7.63353516 0.41162109 7.63353516 0.41162109 9.28662109 0.51025391 C10.37458984 0.56697266 11.46255859 0.62369141 12.58349609 0.68212891 C15.27684496 0.82388411 17.96930039 0.97532032 20.66162109 1.13525391 C20.66162109 1.79525391 20.66162109 2.45525391 20.66162109 3.13525391 C21.32162109 3.46525391 21.98162109 3.79525391 22.66162109 4.13525391 C20.70767122 6.08920378 17.11669988 5.31013121 14.53662109 5.32275391 C13.23466797 5.33693359 11.93271484 5.35111328 10.59130859 5.36572266 C6.64917466 5.13452395 3.40486135 4.35215401 -0.33837891 3.13525391 C-1.66968005 2.79389464 -3.00196039 2.45599435 -4.33837891 2.13525391 C-2.33837891 0.13525391 -2.33837891 0.13525391 0 0 Z " fill="#D72927" transform="translate(79.33837890625,135.86474609375)"/>
<path d="M0 0 C0.66 0 1.32 0 2 0 C5.41261109 9.32374101 5.41261109 9.32374101 5 14 C5 14.99 5 15.98 5 17 C4.01 16.67 3.02 16.34 2 16 C2 14.68 2 13.36 2 12 C0.68 12.33 -0.64 12.66 -2 13 C-2.33 10.03 -2.66 7.06 -3 4 C-2.01 4 -1.02 4 0 4 C0 2.68 0 1.36 0 0 Z " fill="#C2403E" transform="translate(154,35)"/>
<path d="M0 0 C6.99059526 -0.34695969 12.73966958 -0.3620293 19 3 C20 5.25 20 5.25 20 8 C20.020625 9.258125 20.04125 10.51625 20.0625 11.8125 C20.041875 12.864375 20.02125 13.91625 20 15 C19.01 15 18.02 15 17 15 C16.87882812 14.43410156 16.75765625 13.86820313 16.6328125 13.28515625 C16.46523437 12.55167969 16.29765625 11.81820312 16.125 11.0625 C15.96257812 10.33160156 15.80015625 9.60070312 15.6328125 8.84765625 C15.17038477 6.79299706 15.17038477 6.79299706 13 6 C13.33 5.01 13.66 4.02 14 3 C9.05 2.67 4.1 2.34 -1 2 C-0.67 1.34 -0.34 0.68 0 0 Z " fill="#CC5756" transform="translate(100,163)"/>
<path d="M0 0 C3.92896395 0 7.19893228 1.00299863 11 2 C11 2.99 11 3.98 11 5 C11.66 5 12.32 5 13 5 C13 5.66 13 6.32 13 7 C12.34 7 11.68 7 11 7 C11 7.66 11 8.32 11 9 C7.37 8.01 3.74 7.02 0 6 C0 5.01 0 4.02 0 3 C-0.66 2.67 -1.32 2.34 -2 2 C-1.34 2 -0.68 2 0 2 C0 1.34 0 0.68 0 0 Z " fill="#C63331" transform="translate(124,10)"/>
<path d="M0 0 C3.96 0 7.92 0 12 0 C13.02820502 3.08461506 13.04582849 4.89685239 12.87890625 8.10546875 C12.83056641 9.08837891 12.78222656 10.07128906 12.73242188 11.08398438 C12.67634766 12.10814453 12.62027344 13.13230469 12.5625 14.1875 C12.51029297 15.22326172 12.45808594 16.25902344 12.40429688 17.32617188 C12.27461607 19.88442049 12.13965022 22.44227938 12 25 C11.34 25 10.68 25 10 25 C10 17.41 10 9.82 10 2 C5.545 2.495 5.545 2.495 1 3 C0.67 2.01 0.34 1.02 0 0 Z " fill="#A73332" transform="translate(88,45)"/>
<path d="M0 0 C4.62 0 9.24 0 14 0 C12.80188679 5.99056604 12.80188679 5.99056604 10 9 C7.8125 10.25 7.8125 10.25 6 11 C6.66 8.36 7.32 5.72 8 3 C5.69 3 3.38 3 1 3 C0.67 2.01 0.34 1.02 0 0 Z " fill="#CD2E2B" transform="translate(168,165)"/>
<path d="M0 0 C3 3.75 3 3.75 3 6 C3.99 6 4.98 6 6 6 C6.33 5.01 6.66 4.02 7 3 C7.33 4.32 7.66 5.64 8 7 C6.35 7.33 4.7 7.66 3 8 C3.33 9.98 3.66 11.96 4 14 C5.32 13.67 6.64 13.34 8 13 C7.67 13.99 7.34 14.98 7 16 C5.35 16 3.7 16 2 16 C-2.09725159 10.33615222 -2.09725159 10.33615222 -1.8203125 6.53125 C-1.30740914 4.31101082 -0.72482425 2.15978037 0 0 Z " fill="#C76262" transform="translate(72,172)"/>
<path d="M0 0 C2.3125 0.125 2.3125 0.125 5 1 C8.64945643 5.90788968 8.6849412 11.13171998 8 17 C7.30737495 19.78053826 6.49762198 21.48613454 5 24 C2.8125 24.9375 2.8125 24.9375 1 25 C1 25.66 1 26.32 1 27 C0.01 26.67 -0.98 26.34 -2 26 C-1.38125 25.773125 -0.7625 25.54625 -0.125 25.3125 C2.6365449 23.60683991 3.01516195 22.03027091 4 19 C4.33 18.34 4.66 17.68 5 17 C5.55834741 11.53463782 5.43946989 7.49776832 2 3 C1.34 2.01 0.68 1.02 0 0 Z " fill="#C14C4B" transform="translate(119,44)"/>
<path d="M0 0 C0.33 0 0.66 0 1 0 C2.37448837 11.39768051 1.71442552 22.57729176 1 34 C0.67 34 0.34 34 0 34 C-1.1526479 28.50205245 -1.14849648 23.15074685 -1.125 17.5625 C-1.12886719 16.64662109 -1.13273437 15.73074219 -1.13671875 14.78710938 C-1.12948657 9.74989428 -0.86041032 4.96443098 0 0 Z " fill="#C13937" transform="translate(22,54)"/>
<path d="M0 0 C1.32 0.33 2.64 0.66 4 1 C2.43902526 2.1063219 0.87614673 3.20995785 -0.6875 4.3125 C-1.55761719 4.92738281 -2.42773438 5.54226562 -3.32421875 6.17578125 C-5.83250952 7.88581306 -8.38102199 9.46636423 -11 11 C-11 9.35 -11 7.7 -11 6 C-12.65 6 -14.3 6 -16 6 C-16 5.34 -16 4.68 -16 4 C-13.5 2.375 -13.5 2.375 -11 1 C-10.67 1.99 -10.34 2.98 -10 4 C-9.34 3.67 -8.68 3.34 -8 3 C-8 3.66 -8 4.32 -8 5 C-7.236875 4.505 -6.47375 4.01 -5.6875 3.5 C-3 2 -3 2 0 2 C0 1.34 0 0.68 0 0 Z " fill="#CA5759" transform="translate(58,15)"/>
<path d="M0 0 C3.96 0.33 7.92 0.66 12 1 C12 1.99 12 2.98 12 4 C9.56510233 4.55706146 7.12850409 5.0960037 4.6875 5.625 C3.99720703 5.78484375 3.30691406 5.9446875 2.59570312 6.109375 C0.74826519 6.50206712 -1.12680022 6.75842888 -3 7 C-3.99 6.34 -4.98 5.68 -6 5 C-6 4.34 -6 3.68 -6 3 C-3.33333333 3 -0.66666667 3 2 3 C1.34 2.67 0.68 2.34 0 2 C0 1.34 0 0.68 0 0 Z " fill="#CA2727" transform="translate(77,1)"/>
<path d="M0 0 C2.72869407 0.03287583 5.2966618 0.56397771 8 1 C8 1.33 8 1.66 8 2 C5.69 2 3.38 2 1 2 C1 8.93 1 15.86 1 23 C0.34 23 -0.32 23 -1 23 C-1.22527296 19.54254978 -1.42733544 16.08412975 -1.625 12.625 C-1.68945312 11.64015625 -1.75390625 10.6553125 -1.8203125 9.640625 C-1.871875 8.69960937 -1.9234375 7.75859375 -1.9765625 6.7890625 C-2.02893066 5.91975098 -2.08129883 5.05043945 -2.13525391 4.15478516 C-2 2 -2 2 0 0 Z " fill="#D12B28" transform="translate(149,166)"/>
<path d="M0 0 C4.29 0 8.58 0 13 0 C14 4 14 4 13 6 C7.06 6 1.12 6 -5 6 C-5 5.67 -5 5.34 -5 5 C-0.545 4.505 -0.545 4.505 4 4 C4 3.34 4 2.68 4 2 C2.68 1.34 1.36 0.68 0 0 Z " fill="#DD8D8A" transform="translate(45,186)"/>
<path d="M0 0 C3 1 3 1 4.09765625 2.8125 C4.41605469 3.534375 4.73445313 4.25625 5.0625 5 C6.32230077 8.1514696 6.32230077 8.1514696 9 10 C9 9.34 9 8.68 9 8 C9.66 8 10.32 8 11 8 C11.33 7.01 11.66 6.02 12 5 C13 8 13 8 11.5625 11 C11.046875 11.99 10.53125 12.98 10 14 C10 14.99 10 15.98 10 17 C5.1129901 12.81113437 2.46276408 7.92111364 0 2 C0 1.34 0 0.68 0 0 Z " fill="#C04D4F" transform="translate(26,98)"/>
<path d="M0 0 C0.66 0 1.32 0 2 0 C2.33 2.64 2.66 5.28 3 8 C6.3 8 9.6 8 13 8 C12.34 9.32 11.68 10.64 11 12 C6.39790775 12.17700355 4.21629134 12.10814567 0 10 C0 6.7 0 3.4 0 0 Z " fill="#D42624" transform="translate(100,171)"/>
<path d="M0 0 C0.33 0.99 0.66 1.98 1 3 C0.01 4.485 0.01 4.485 -1 6 C1.33075929 5.04134491 1.33075929 5.04134491 3 2 C3.71484375 3.734375 3.71484375 3.734375 4 6 C2.56640625 8.140625 2.56640625 8.140625 0.5625 10.25 C-0.09621094 10.95640625 -0.75492188 11.6628125 -1.43359375 12.390625 C-1.95050781 12.92171875 -2.46742188 13.4528125 -3 14 C-3.33 13.01 -3.66 12.02 -4 11 C-3.67 10.34 -3.34 9.68 -3 9 C-4.32 9.33 -5.64 9.66 -7 10 C-5.33248852 6.05860922 -2.77289351 3.2107188 0 0 Z " fill="#C85B57" transform="translate(175,170)"/>
<path d="M0 0 C0.66 0.33 1.32 0.66 2 1 C1.67 1.99 1.34 2.98 1 4 C0.01 4.33 -0.98 4.66 -2 5 C-1.67 5.99 -1.34 6.98 -1 8 C-2.65 7.67 -4.3 7.34 -6 7 C-6.33 8.65 -6.66 10.3 -7 12 C-8.32 12 -9.64 12 -11 12 C-11.33 10.02 -11.66 8.04 -12 6 C-11.05125 5.896875 -10.1025 5.79375 -9.125 5.6875 C-5.70892499 5.31460705 -5.70892499 5.31460705 -4 2 C-2.68 2 -1.36 2 0 2 C0 1.34 0 0.68 0 0 Z " fill="#CE2624" transform="translate(133,123)"/>
<path d="M0 0 C1.65 0.33 3.3 0.66 5 1 C5.58053939 4.00997054 6.04900714 6.92888594 6 10 C4.1875 12.0625 4.1875 12.0625 2 13 C1.34 13 0.68 13 0 13 C-0.66 11.68 -1.32 10.36 -2 9 C-1.34 8.34 -0.68 7.68 0 7 C0.66 7 1.32 7 2 7 C2.33 6.34 2.66 5.68 3 5 C2.34 4.67 1.68 4.34 1 4 C0.375 1.9375 0.375 1.9375 0 0 Z " fill="#D82B29" transform="translate(114,76)"/>
<path d="M0 0 C3.63 0 7.26 0 11 0 C10.01 0.33 9.02 0.66 8 1 C8.020625 1.94875 8.04125 2.8975 8.0625 3.875 C8 7 8 7 7 9 C4.13998967 7.71792641 1.92960588 6.50848764 0 4 C0 2.68 0 1.36 0 0 Z " fill="#D62A27" transform="translate(106,73)"/>
<path d="M0 0 C-0.33 0.99 -0.66 1.98 -1 3 C-1.66 2.67 -2.32 2.34 -3 2 C-3.33 2.66 -3.66 3.32 -4 4 C-4 3.34 -4 2.68 -4 2 C-22.315 1.505 -22.315 1.505 -41 1 C-41 0.67 -41 0.34 -41 0 C-35.96480861 -0.1680811 -30.92945318 -0.32859004 -25.89379883 -0.48217773 C-24.1818192 -0.5354494 -22.46990192 -0.59076646 -20.75805664 -0.64819336 C-18.29326822 -0.73052001 -15.82834706 -0.80541647 -13.36328125 -0.87890625 C-12.60163162 -0.90594131 -11.83998199 -0.93297638 -11.05525208 -0.96083069 C-7.21707535 -1.06790504 -3.72799886 -0.95697118 0 0 Z " fill="#CD2A2B" transform="translate(123,32)"/>
<path d="M0 0 C0.5775 0.7425 1.155 1.485 1.75 2.25 C3.88507707 5.00552884 3.88507707 5.00552884 6.3125 7.0625 C8 9 8 9 7.9375 11.1875 C7 13 7 13 4 14 C4 12.35 4 10.7 4 9 C2.5459375 8.62875 2.5459375 8.62875 1.0625 8.25 C0.051875 7.8375 -0.95875 7.425 -2 7 C-2.875 4.875 -2.875 4.875 -3 3 C-2.01 3 -1.02 3 0 3 C0 2.01 0 1.02 0 0 Z " fill="#D52525" transform="translate(142,20)"/>
<path d="M0 0 C0.33 0 0.66 0 1 0 C1.05905417 3.29158865 1.09394375 6.58303756 1.125 9.875 C1.14175781 10.7928125 1.15851563 11.710625 1.17578125 12.65625 C1.22761513 20.01666163 1.18448167 27.72327749 -3 34 C-2.28498967 22.63509897 -1.17352941 11.32512846 0 0 Z " fill="#C45C5A" transform="translate(164,61)"/>
<path d="M0 0 C3.16242675 2.58744007 4.08288297 5.04934204 5 9 C5.15685891 12.67353451 5.11768011 16.32576557 5 20 C4.34 20 3.68 20 3 20 C2.67 16.7 2.34 13.4 2 10 C0.35 10 -1.3 10 -3 10 C-3.33 9.34 -3.66 8.68 -4 8 C-3.34 7.67 -2.68 7.34 -2 7 C-1.67 6.34 -1.34 5.68 -1 5 C-0.67 4.67 -0.34 4.34 0 4 C0 2.68 0 1.36 0 0 Z " fill="#C7534F" transform="translate(133,42)"/>
<path d="M0 0 C2.475 0.495 2.475 0.495 5 1 C5 1.66 5 2.32 5 3 C5.99 3 6.98 3 8 3 C8.66 4.65 9.32 6.3 10 8 C7.75 8.75 7.75 8.75 5 9 C2.18181152 6.96464165 1.16692005 5.61204018 0.25 2.25 C0.1675 1.5075 0.085 0.765 0 0 Z " fill="#C15555" transform="translate(112,183)"/>
<path d="M0 0 C-0.33 0.99 -0.66 1.98 -1 3 C-1.99 3.33 -2.98 3.66 -4 4 C-5.66710346 5.49985609 -5.66710346 5.49985609 -7 7 C-6.67 7.66 -6.34 8.32 -6 9 C-6.33 9.66 -6.66 10.32 -7 11 C-7.66 11 -8.32 11 -9 11 C-9.33 12.32 -9.66 13.64 -10 15 C-11.05263755 11.84208736 -11.30577317 9.74119417 -10.0234375 6.6328125 C-5.49855888 -1.64956766 -5.49855888 -1.64956766 0 0 Z " fill="#C95254" transform="translate(91,164)"/>
<path d="M0 0 C3.73487777 0.4979837 5.81237635 0.87491756 9 3 C8.67 4.32 8.34 5.64 8 7 C5.125 7.625 5.125 7.625 2 8 C0 6 0 6 -0.125 2.875 C-0.08375 1.92625 -0.0425 0.9775 0 0 Z " fill="#C93D3C" transform="translate(87,14)"/>
<path d="M0 0 C1.27875 -0.061875 2.5575 -0.12375 3.875 -0.1875 C4.95394531 -0.23970703 4.95394531 -0.23970703 6.0546875 -0.29296875 C6.69664063 -0.19628906 7.33859375 -0.09960938 8 0 C10.1519437 3.22791555 10.20086443 4.28400809 10 8 C9.01 7.67 8.02 7.34 7 7 C7 5.02 7 3.04 7 1 C5.02 1 3.04 1 1 1 C1 3.31 1 5.62 1 8 C2.98 8.66 4.96 9.32 7 10 C7 10.33 7 10.66 7 11 C1.6 11.36 1.6 11.36 -0.875 9.875 C-2.4682099 7.21965017 -2.20214032 5.03210482 -2 2 C-1.34 2 -0.68 2 0 2 C0 1.34 0 0.68 0 0 Z " fill="#C6706E" transform="translate(89,120)"/>
<path d="M0 0 C2.97 0.495 2.97 0.495 6 1 C6 3.31 6 5.62 6 8 C4.00045254 8.04254356 1.99958364 8.04080783 0 8 C-0.33 7.67 -0.66 7.34 -1 7 C-0.71269945 4.66055264 -0.38063221 2.3260857 0 0 Z " fill="#D22626" transform="translate(145,67)"/>
<path d="M0 0 C1.485 0.99 1.485 0.99 3 2 C5.27538323 2.66613335 5.27538323 2.66613335 7.6875 3.125 C8.89986328 3.37636719 8.89986328 3.37636719 10.13671875 3.6328125 C10.75160156 3.75398437 11.36648437 3.87515625 12 4 C12.33 5.32 12.66 6.64 13 8 C12.401875 7.835 11.80375 7.67 11.1875 7.5 C8.88655664 6.8885876 8.88655664 6.8885876 6 7 C5.67 7.33 5.34 7.66 5 8 C4.01 7.67 3.02 7.34 2 7 C2.33 6.01 2.66 5.02 3 4 C1.68 4 0.36 4 -1 4 C-0.67 2.68 -0.34 1.36 0 0 Z " fill="#CF2526" transform="translate(57,127)"/>
<path d="M0 0 C2.02537143 3.03805714 2.27755861 3.88565832 2.44921875 7.34375 C2.49240234 8.17777344 2.53558594 9.01179688 2.58007812 9.87109375 C2.61552734 10.73863281 2.65097656 11.60617188 2.6875 12.5 C2.73455078 13.36753906 2.78160156 14.23507813 2.83007812 15.12890625 C3.13490712 21.59527865 3.13490712 21.59527865 2 25 C1.34 25 0.68 25 0 25 C0 16.75 0 8.5 0 0 Z " fill="#C43D3F" transform="translate(157,60)"/>
<path d="M0 0 C5.61 0 11.22 0 17 0 C17.33 1.32 17.66 2.64 18 4 C17 5 17 5 13.83984375 5.09765625 C11.90818359 5.08025391 11.90818359 5.08025391 9.9375 5.0625 C8.64714844 5.05347656 7.35679688 5.04445312 6.02734375 5.03515625 C5.02832031 5.02355469 4.02929688 5.01195312 3 5 C3 4.67 3 4.34 3 4 C7.29 4 11.58 4 16 4 C16 3.34 16 2.68 16 2 C14.64455078 2.03480469 14.64455078 2.03480469 13.26171875 2.0703125 C12.08222656 2.08835938 10.90273437 2.10640625 9.6875 2.125 C7.92986328 2.15980469 7.92986328 2.15980469 6.13671875 2.1953125 C3 2 3 2 0 0 Z " fill="#BC4643" transform="translate(4,164)"/>
<path d="M0 0 C0 0.66 0 1.32 0 2 C-0.99 2.66 -1.98 3.32 -3 4 C-3.34022786 5.99883869 -3.67329097 7.99890722 -4 10 C-5.5625 11.875 -5.5625 11.875 -7 13 C-7 11.68 -7 10.36 -7 9 C-7.66 9 -8.32 9 -9 9 C-9.33 9.66 -9.66 10.32 -10 11 C-10 9.02 -10 7.04 -10 5 C-8.68 5 -7.36 5 -6 5 C-6 4.01 -6 3.02 -6 2 C-3 0 -3 0 0 0 Z " fill="#C72525" transform="translate(160,96)"/>
<path d="M0 0 C0.66 0.33 1.32 0.66 2 1 C1.62830496 3.63002402 1.2921315 4.74520369 -0.7421875 6.51953125 C-1.44601563 6.94621094 -2.14984375 7.37289062 -2.875 7.8125 C-3.57367188 8.25207031 -4.27234375 8.69164062 -4.9921875 9.14453125 C-7 10 -7 10 -10 9 C-9.34 8.67 -8.68 8.34 -8 8 C-8 7.01 -8 6.02 -8 5 C-6.68 5 -5.36 5 -4 5 C-4 4.01 -4 3.02 -4 2 C-2.125 0.9375 -2.125 0.9375 0 0 Z " fill="#CB413E" transform="translate(135,125)"/>
<path d="M0 0 C0.33 0 0.66 0 1 0 C1.28674388 3.18529166 1.52261805 6.37246503 1.75 9.5625 C1.87181641 10.90538086 1.87181641 10.90538086 1.99609375 12.27539062 C2.40796834 18.52215518 1.63065105 21.87064997 -2 27 C-4 25 -4 25 -4.125 22.375 C-4.08375 21.59125 -4.0425 20.8075 -4 20 C-3.34 20.33 -2.68 20.66 -2 21 C-0.85345518 18.70691037 -0.80270883 17.20090344 -0.68359375 14.6484375 C-0.64169922 13.79765625 -0.59980469 12.946875 -0.55664062 12.0703125 C-0.51732422 11.18085937 -0.47800781 10.29140625 -0.4375 9.375 C-0.39431641 8.4778125 -0.35113281 7.580625 -0.30664062 6.65625 C-0.20043139 4.43765717 -0.09838806 2.2189512 0 0 Z " fill="#B52322" transform="translate(27,64)"/>
<path d="M0 0 C0 7.26 0 14.52 0 22 C-0.33 22 -0.66 22 -1 22 C-1.33 15.4 -1.66 8.8 -2 2 C-2.99 2.495 -2.99 2.495 -4 3 C-4.65772428 6.02934491 -4.65772428 6.02934491 -5 9 C-5.33 9 -5.66 9 -6 9 C-6 6.03 -6 3.06 -6 0 C-4 -1 -4 -1 0 0 Z " fill="#C75A5A" transform="translate(45,164)"/>
<path d="M0 0 C0.33 0 0.66 0 1 0 C1 1.98 1 3.96 1 6 C1.66 6 2.32 6 3 6 C3 6.66 3 7.32 3 8 C3.99 8.33 4.98 8.66 6 9 C6 9.66 6 10.32 6 11 C4.68 11.33 3.36 11.66 2 12 C1.67 11.34 1.34 10.68 1 10 C0.01 9.34 -0.98 8.68 -2 8 C-2.33 7.34 -2.66 6.68 -3 6 C-2.06553465 3.96855359 -1.06775224 1.96466413 0 0 Z " fill="#CC2A27" transform="translate(38,106)"/>
<path d="M0 0 C1.37562854 1.28965176 2.70766393 2.62689293 4 4 C4 4.66 4 5.32 4 6 C4.99 5.67 5.98 5.34 7 5 C7 8 7 11 7 14 C4.27324841 11.59310197 2.88033404 9.07528977 1.3125 5.8125 C0.87550781 4.91144531 0.43851562 4.01039062 -0.01171875 3.08203125 C-0.33785156 2.39496094 -0.66398437 1.70789063 -1 1 C-0.67 0.67 -0.34 0.34 0 0 Z " fill="#C64C4D" transform="translate(110,83)"/>
<path d="M0 0 C0 0.66 0 1.32 0 2 C0.99 2.33 1.98 2.66 3 3 C2.01 3.66 1.02 4.32 0 5 C-0.33 4.67 -0.66 4.34 -1 4 C-5.04352289 4.46656033 -9.01928836 5.15560662 -13 6 C-12.67 5.01 -12.34 4.02 -12 3 C-10.0390625 2.05078125 -10.0390625 2.05078125 -7.625 1.3125 C-6.83351563 1.06113281 -6.04203125 0.80976562 -5.2265625 0.55078125 C-3 0 -3 0 0 0 Z " fill="#C44C4C" transform="translate(77,1)"/>
<path d="M0 0 C0.33 0 0.66 0 1 0 C0.67 3.3 0.34 6.6 0 10 C-1.65 10 -3.3 10 -5 10 C-5 11.32 -5 12.64 -5 14 C-6.32 13.67 -7.64 13.34 -9 13 C-8.43410156 12.22914062 -7.86820313 11.45828125 -7.28515625 10.6640625 C-6.55167969 9.66117188 -5.81820312 8.65828125 -5.0625 7.625 C-4.33160156 6.62726563 -3.60070312 5.62953125 -2.84765625 4.6015625 C-1.0220431 2.17182891 -1.0220431 2.17182891 0 0 Z " fill="#C6534F" transform="translate(149,101)"/>
<path d="M0 0 C0 1.65 0 3.3 0 5 C-1.32 4.67 -2.64 4.34 -4 4 C-4 5.32 -4 6.64 -4 8 C-5.32 7.67 -6.64 7.34 -8 7 C-7.40138258 4.64828869 -6.73075648 2.3140622 -6 0 C-3.50907189 -1.24546405 -2.58919267 -0.7767578 0 0 Z " fill="#CC2824" transform="translate(47,21)"/>
<path d="M0 0 C4.95 0.33 9.9 0.66 15 1 C13.92402815 6.37985925 12.91685634 7.48487252 9 11 C9.71899918 7.76450369 10.73563124 5.1609219 12 2 C8.37 2 4.74 2 1 2 C0.67 1.34 0.34 0.68 0 0 Z " fill="#C26365" transform="translate(170,163)"/>
<path d="M0 0 C0.66 0 1.32 0 2 0 C0.21470545 6.76532673 -2.49937851 11.65460165 -7 17 C-7.33 16.01 -7.66 15.02 -8 14 C-7.34 14 -6.68 14 -6 14 C-6 13.01 -6 12.02 -6 11 C-5.34 11 -4.68 11 -4 11 C-4.04125 10.2575 -4.0825 9.515 -4.125 8.75 C-3.94471208 4.78366581 -2.77842595 2.77842595 0 0 Z " fill="#CB7373" transform="translate(158,98)"/>
<path d="M0 0 C0.66 0 1.32 0 2 0 C2.02698189 1.62490954 2.04638757 3.24994633 2.0625 4.875 C2.07410156 5.77992187 2.08570313 6.68484375 2.09765625 7.6171875 C2 10 2 10 1 12 C0.01 11.67 -0.98 11.34 -2 11 C-2.33 8.36 -2.66 5.72 -3 3 C-2.67 3.66 -2.34 4.32 -2 5 C-1.67 4.34 -1.34 3.68 -1 3 C-0.34 3 0.32 3 1 3 C0.67 2.01 0.34 1.02 0 0 Z " fill="#CD2323" transform="translate(160,52)"/>
<path d="M0 0 C0.99 0.33 1.98 0.66 3 1 C3.33 2.98 3.66 4.96 4 7 C2.35 7.33 0.7 7.66 -1 8 C-1.33 5.69 -1.66 3.38 -2 1 C-1.34 0.67 -0.68 0.34 0 0 Z " fill="#D52726" transform="translate(38,67)"/>
<path d="M0 0 C2.0625 1.625 2.0625 1.625 4 4 C3.75 7.25 3.75 7.25 3 10 C2.01 10 1.02 10 0 10 C-0.33 11.32 -0.66 12.64 -1 14 C-2.32 11.36 -3.64 8.72 -5 6 C-4.34 6 -3.68 6 -3 6 C-3 6.66 -3 7.32 -3 8 C-1.68 7.34 -0.36 6.68 1 6 C0.67 4.02 0.34 2.04 0 0 Z " fill="#C74C4B" transform="translate(151,29)"/>
<path d="M0 0 C2.1875 0.3125 2.1875 0.3125 4 1 C4 1.66 4 2.32 4 3 C4.63474075 4.34882408 5.29848848 5.6846659 6 7 C5.34 7 4.68 7 4 7 C4 6.34 4 5.68 4 5 C3.13375 5.185625 2.2675 5.37125 1.375 5.5625 C-2.05152628 6.00667933 -4.64212371 5.71954492 -8 5 C-8 4.67 -8 4.34 -8 4 C-7.236875 3.896875 -6.47375 3.79375 -5.6875 3.6875 C-2.95645104 3.2401537 -2.95645104 3.2401537 -1.4375 1.375 C-0.963125 0.92125 -0.48875 0.4675 0 0 Z " fill="#D95858" transform="translate(113,179)"/>
<path d="M0 0 C0.33 0.66 0.66 1.32 1 2 C1.99 2.33 2.98 2.66 4 3 C4 5.97 4 8.94 4 12 C3.360625 11.34 2.72125 10.68 2.0625 10 C0.35917681 7.88397569 0.35917681 7.88397569 -1 8 C-1.04241723 5.66705225 -1.04092937 3.33297433 -1 1 C-0.67 0.67 -0.34 0.34 0 0 Z " fill="#C82524" transform="translate(24,52)"/>
<path d="M0 0 C2.06348639 1.03174319 4.1105607 2.06178392 6.125 3.1875 C6.74375 3.455625 7.3625 3.72375 8 4 C8.66 3.67 9.32 3.34 10 3 C10.66 3.33 11.32 3.66 12 4 C11.34 5.32 10.68 6.64 10 8 C5.69385411 7.52153935 3.75119451 6.34073619 1 3 C0.67 2.01 0.34 1.02 0 0 Z " fill="#C33233" transform="translate(105,77)"/>
<path d="M0 0 C1.88391785 3.26545761 2.49287967 6.28111761 3 10 C1.68 10 0.36 10 -1 10 C-1 8.68 -1 7.36 -1 6 C-1.99 6.33 -2.98 6.66 -4 7 C-3.6875 5.0625 -3.6875 5.0625 -3 3 C-2.01 2.67 -1.02 2.34 0 2 C0 1.34 0 0.68 0 0 Z " fill="#CE2924" transform="translate(157,41)"/>
<path d="M0 0 C1.04449911 3.13349732 0.93423645 3.98968256 0 7 C-0.99 7 -1.98 7 -3 7 C-3.99 7.33 -4.98 7.66 -6 8 C-6.99 7.34 -7.98 6.68 -9 6 C-6.03 4.02 -3.06 2.04 0 0 Z " fill="#C64540" transform="translate(56,9)"/>
<path d="M0 0 C0 0.99 0 1.98 0 3 C-4.95 3.66 -9.9 4.32 -15 5 C-14.67 4.01 -14.34 3.02 -14 2 C-9.18912503 0.45073518 -5.08003559 -0.25400178 0 0 Z " fill="#CF5555" transform="translate(89,5)"/>
<path d="M0 0 C0.99 0 1.98 0 3 0 C3.36923077 5.53846154 3.36923077 5.53846154 1.5 7.875 C0.7575 8.431875 0.7575 8.431875 0 9 C-0.28875 8.360625 -0.5775 7.72125 -0.875 7.0625 C-1.82823451 4.84793921 -1.82823451 4.84793921 -4 4 C-3.01 3.67 -2.02 3.34 -1 3 C-0.67 2.01 -0.34 1.02 0 0 Z " fill="#CC231F" transform="translate(87,167)"/>
<path d="M0 0 C6 7.4 6 7.4 6 11 C3.03 10.505 3.03 10.505 0 10 C0 6.7 0 3.4 0 0 Z " fill="#C64143" transform="translate(130,96)"/>
<path d="M0 0 C3 2 3 2 3.6875 4.625 C3.790625 5.40875 3.89375 6.1925 4 7 C4.99 6.67 5.98 6.34 7 6 C6.34 8.31 5.68 10.62 5 13 C4.34 11.68 3.68 10.36 3 9 C2.34 9 1.68 9 1 9 C-1.125 3.375 -1.125 3.375 0 0 Z " fill="#D65754" transform="translate(27,40)"/>
<path d="M0 0 C0.66 0 1.32 0 2 0 C2 0.99 2 1.98 2 3 C7.28 3.33 12.56 3.66 18 4 C18 4.33 18 4.66 18 5 C12.06 5 6.12 5 0 5 C0 3.35 0 1.7 0 0 Z " fill="#A13835" transform="translate(162,186)"/>
<path d="M0 0 C0.66 0 1.32 0 2 0 C2.33 1.32 2.66 2.64 3 4 C2.34 4 1.68 4 1 4 C1 6.64 1 9.28 1 12 C0.01 12 -0.98 12 -2 12 C-1.85831863 10.56208484 -1.71148957 9.1246763 -1.5625 7.6875 C-1.48128906 6.88699219 -1.40007812 6.08648437 -1.31640625 5.26171875 C-1 3 -1 3 0 0 Z " fill="#CE2F2D" transform="translate(4,177)"/>
<path d="M0 0 C0.99 0.33 1.98 0.66 3 1 C3 3.31 3 5.62 3 8 C3.99 8.33 4.98 8.66 6 9 C4.00045254 9.04254356 1.99958364 9.04080783 0 9 C-1 8 -1 8 -1.125 4.5 C-1 1 -1 1 0 0 Z " fill="#C0464C" transform="translate(34,67)"/>
<path d="M0 0 C-1 1 -1 1 -2.96875 1.1328125 C-8.72495436 1.11504644 -14.29034384 0.73672983 -20 0 C-20 -0.33 -20 -0.66 -20 -1 C-17.04210873 -1.2210949 -14.08447236 -1.42740245 -11.125 -1.625 C-10.28324219 -1.68945312 -9.44148438 -1.75390625 -8.57421875 -1.8203125 C-7.36572266 -1.89765625 -7.36572266 -1.89765625 -6.1328125 -1.9765625 C-5.01737061 -2.05511475 -5.01737061 -2.05511475 -3.87939453 -2.13525391 C-2 -2 -2 -2 0 0 Z " fill="#B13534" transform="translate(86,78)"/>
<path d="M0 0 C0.75 1.625 0.75 1.625 1 4 C-1.34144182 8.32266181 -4.03237976 11.13449649 -8 14 C-7.75 12.125 -7.75 12.125 -7 10 C-5.66666667 9.33333333 -4.33333333 8.66666667 -3 8 C-2.3185177 6.10820797 -2.3185177 6.10820797 -2 4 C-1.36345658 2.6520257 -0.70394612 1.31403276 0 0 Z " fill="#C1585A" transform="translate(135,64)"/>
<path d="M0 0 C1.65 0 3.3 0 5 0 C4.67 1.98 4.34 3.96 4 6 C3.01 6 2.02 6 1 6 C0.67 6.66 0.34 7.32 0 8 C-1.125 2.25 -1.125 2.25 0 0 Z " fill="#CB2522" transform="translate(57,9)"/>
<path d="M0 0 C0.66 0 1.32 0 2 0 C2 3.3 2 6.6 2 10 C0.35 10.33 -1.3 10.66 -3 11 C-3 10.01 -3 9.02 -3 8 C-2.01 8 -1.02 8 0 8 C0 5.36 0 2.72 0 0 Z " fill="#CB6C6D" transform="translate(5,181)"/>
<path d="M0 0 C0.66 0.33 1.32 0.66 2 1 C1.67 1.99 1.34 2.98 1 4 C-0.32 4 -1.64 4 -3 4 C-3.2475 4.639375 -3.495 5.27875 -3.75 5.9375 C-5 8 -5 8 -7 8.875 C-7.99 8.936875 -7.99 8.936875 -9 9 C-9.66 8.34 -10.32 7.68 -11 7 C-10.28972656 6.57847656 -9.57945313 6.15695313 -8.84765625 5.72265625 C-7.92855469 5.17480469 -7.00945312 4.62695312 -6.0625 4.0625 C-5.14597656 3.51722656 -4.22945313 2.97195312 -3.28515625 2.41015625 C-1.11587323 1.19267827 -1.11587323 1.19267827 0 0 Z " fill="#BE4A49" transform="translate(132,121)"/>
<path d="M0 0 C1.65 0.33 3.3 0.66 5 1 C5 1.66 5 2.32 5 3 C5.66 3 6.32 3 7 3 C7 3.66 7 4.32 7 5 C6.34 5 5.68 5 5 5 C5 5.66 5 6.32 5 7 C0.125 5.25 0.125 5.25 -1 3 C-0.67 2.01 -0.34 1.02 0 0 Z " fill="#D02627" transform="translate(130,12)"/>
<path d="M0 0 C2 2 2 2 2.125 5.625 C2.08375 6.73875 2.0425 7.8525 2 9 C-1 9 -1 9 -3 8 C-3 7.01 -3 6.02 -3 5 C-2.34 5 -1.68 5 -1 5 C-0.67 3.35 -0.34 1.7 0 0 Z " fill="#C74A4B" transform="translate(70,169)"/>
<path d="M0 0 C0 0.66 0 1.32 0 2 C-3.83724172 2.90413673 -7.37502274 3.10576898 -11.3125 3.0625 C-12.38113281 3.05347656 -13.44976562 3.04445312 -14.55078125 3.03515625 C-15.35902344 3.02355469 -16.16726562 3.01195312 -17 3 C-17 2.67 -17 2.34 -17 2 C-11.23918159 0.7017874 -5.91260345 -0.25706972 0 0 Z " fill="#B84043" transform="translate(113,139)"/>
<path d="M0 0 C1.32 0.66 2.64 1.32 4 2 C4 2.99 4 3.98 4 5 C3 6 2 7 1 8 C1 8.99 1 9.98 1 11 C-0.32 9.68 -1.64 8.36 -3 7 C-2.01 6.34 -1.02 5.68 0 5 C0.25030977 2.41619823 0.25030977 2.41619823 0 0 Z " fill="#CF5D5D" transform="translate(51,120)"/>
<path d="M0 0 C0 1.98 0 3.96 0 6 C-1.32 6.33 -2.64 6.66 -4 7 C-4.33 5.02 -4.66 3.04 -5 1 C-2 0 -2 0 0 0 Z " fill="#C42524" transform="translate(80,179)"/>
<path d="M0 0 C0.33 0 0.66 0 1 0 C1.33 4.29 1.66 8.58 2 13 C1.01 13.33 0.02 13.66 -1 14 C-0.67 9.38 -0.34 4.76 0 0 Z " fill="#C14D4A" transform="translate(22,54)"/>
<path d="M0 0 C0.66 0.33 1.32 0.66 2 1 C0.68 3.97 -0.64 6.94 -2 10 C-2.99 10 -3.98 10 -5 10 C-5 10.99 -5 11.98 -5 13 C-5.66 13 -6.32 13 -7 13 C-5.35821735 8.22390502 -2.73453298 4.20617096 0 0 Z " fill="#C66567" transform="translate(35,27)"/>
<path d="M0 0 C2.375 0.3125 2.375 0.3125 5 1 C5.66 1.99 6.32 2.98 7 4 C6.67 4.99 6.34 5.98 6 7 C5.34 6.34 4.68 5.68 4 5 C1.41645782 4.83312552 1.41645782 4.83312552 -1 5 C-0.67 3.35 -0.34 1.7 0 0 Z " fill="#D45C59" transform="translate(133,106)"/>
<path d="M0 0 C0 0.66 0 1.32 0 2 C-3.63 2 -7.26 2 -11 2 C-11 3.65 -11 5.3 -11 7 C-12.5 5.6875 -12.5 5.6875 -14 4 C-14 3.01 -14 2.02 -14 1 C-12.22932584 0.83165067 -10.45845388 0.66538091 -8.6875 0.5 C-7.70136719 0.4071875 -6.71523437 0.314375 -5.69921875 0.21875 C-3 0 -3 0 0 0 Z " fill="#C26868" transform="translate(116,70)"/>
<path d="M0 0 C2.475 0.495 2.475 0.495 5 1 C5.33 1.99 5.66 2.98 6 4 C5.34 4 4.68 4 4 4 C3.34 5.32 2.68 6.64 2 8 C1.67 8 1.34 8 1 8 C1.020625 7.05125 1.04125 6.1025 1.0625 5.125 C1.22551826 2.09333717 1.22551826 2.09333717 0 0 Z " fill="#D35C5A" transform="translate(63,163)"/>
<path d="M0 0 C4.12751449 0.60698743 7.3321148 2.03810791 11 4 C11 4.33 11 4.66 11 5 C6.91908529 5.11335874 3.67163473 4.83581737 0 3 C0 2.01 0 1.02 0 0 Z " fill="#C44749" transform="translate(58,126)"/>
<path d="M0 0 C1.32 0.33 2.64 0.66 4 1 C4.33 2.65 4.66 4.3 5 6 C4.01 6 3.02 6 2 6 C2 5.34 2 4.68 2 4 C0.68 4 -0.64 4 -2 4 C-1.34 2.68 -0.68 1.36 0 0 Z " fill="#D12625" transform="translate(47,119)"/>
<path d="M0 0 C0.33 0 0.66 0 1 0 C0.67 3.96 0.34 7.92 0 12 C-1.32 12 -2.64 12 -4 12 C-2.66666667 8 -1.33333333 4 0 0 Z " fill="#BF5551" transform="translate(154,89)"/>
<path d="M0 0 C0.66 -0.33 1.32 -0.66 2 -1 C2 0.65 2 2.3 2 4 C-0.8125 4.25 -0.8125 4.25 -4 4 C-5.875 2 -5.875 2 -7 0 C-4.33059475 -1.33470263 -2.86667247 -0.57333449 0 0 Z " fill="#D84240" transform="translate(68,6)"/>
<path d="M0 0 C0.99 0 1.98 0 3 0 C3 2.31 3 4.62 3 7 C1.68 6.67 0.36 6.34 -1 6 C-0.67 4.02 -0.34 2.04 0 0 Z " fill="#B5292A" transform="translate(101,184)"/>
<path d="M0 0 C2 3 2 3 1.625 5.6875 C1.41875 6.450625 1.2125 7.21375 1 8 C0.34 8 -0.32 8 -1 8 C-1.33 9.32 -1.66 10.64 -2 12 C-3.01911045 8.10885099 -3.16782969 6.39403493 -1.5625 2.625 C-1.046875 1.75875 -0.53125 0.8925 0 0 Z " fill="#CF625E" transform="translate(83,167)"/>
<path d="M0 0 C3.14737182 0.69941596 6.02588876 1.76078698 9 3 C9 4.32 9 5.64 9 7 C4.25 5.125 4.25 5.125 2 4 C2 3.01 2 2.02 2 1 C1.34 0.67 0.68 0.34 0 0 Z " fill="#C5494B" transform="translate(51,128)"/>
<path d="M0 0 C0.33 0 0.66 0 1 0 C1.33872513 1.41538717 1.67074624 2.83237963 2 4.25 C2.185625 5.03890625 2.37125 5.8278125 2.5625 6.640625 C3 9 3 9 3 13 C2.34 13 1.68 13 1 13 C0.63447197 11.58622218 0.28304505 10.16879424 -0.0625 8.75 C-0.25972656 7.96109375 -0.45695312 7.1721875 -0.66015625 6.359375 C-1.01497267 3.89605178 -0.76877544 2.34395868 0 0 Z " fill="#C66060" transform="translate(29,80)"/>
<path d="M0 0 C-0.33 0.99 -0.66 1.98 -1 3 C-1.66 2.67 -2.32 2.34 -3 2 C-3.33 2.66 -3.66 3.32 -4 4 C-4 3.34 -4 2.68 -4 2 C-6.31 1.67 -8.62 1.34 -11 1 C-11 0.67 -11 0.34 -11 0 C-6.98195309 -0.84098656 -3.98196457 -1.05404945 0 0 Z " fill="#C73938" transform="translate(123,32)"/>
<path d="M0 0 C2.64 0 5.28 0 8 0 C7.34 1.32 6.68 2.64 6 4 C3.69 4 1.38 4 -1 4 C-0.34 3.34 0.32 2.68 1 2 C0.67 1.34 0.34 0.68 0 0 Z " fill="#AE2A29" transform="translate(105,179)"/>
<path d="M0 0 C1.3921875 0.0928125 1.3921875 0.0928125 2.8125 0.1875 C3.1425 1.5075 3.4725 2.8275 3.8125 4.1875 C0.5125 3.8575 -2.7875 3.5275 -6.1875 3.1875 C-3.1875 0.1875 -3.1875 0.1875 0 0 Z " fill="#C22828" transform="translate(111.1875,164.8125)"/>
<path d="M0 0 C0.33 0.99 0.66 1.98 1 3 C2.32 3.33 3.64 3.66 5 4 C0.545 5.485 0.545 5.485 -4 7 C-2.68 4.69 -1.36 2.38 0 0 Z " fill="#CA5856" transform="translate(121,132)"/>
<path d="M0 0 C0.66 0 1.32 0 2 0 C2.66 2.31 3.32 4.62 4 7 C2.68 7 1.36 7 0 7 C-0.66 5.35 -1.32 3.7 -2 2 C-1.34 2 -0.68 2 0 2 C0 1.34 0 0.68 0 0 Z " fill="#C74542" transform="translate(31,93)"/>
<path d="M0 0 C2.5654594 2.5654594 2.54046087 4.47686668 3 8 C1.68 8 0.36 8 -1 8 C-1.93065133 5.39417629 -2.14917407 4.35801776 -1.0625 1.75 C-0.711875 1.1725 -0.36125 0.595 0 0 Z " fill="#D22526" transform="translate(27,85)"/>
<path d="M0 0 C0.99 0.33 1.98 0.66 3 1 C2.67 1.66 2.34 2.32 2 3 C-1.96 3 -5.92 3 -10 3 C-10.33 4.32 -10.66 5.64 -11 7 C-11.33 6.01 -11.66 5.02 -12 4 C-11.67 3.34 -11.34 2.68 -11 2 C-7.37 2 -3.74 2 0 2 C0 1.34 0 0.68 0 0 Z " fill="#BB2828" transform="translate(116,70)"/>
<path d="M0 0 C0.66 0 1.32 0 2 0 C1.75 3.375 1.75 3.375 1 7 C-1.0625 8.4375 -1.0625 8.4375 -3 9 C-3 7.35 -3 5.7 -3 4 C-2.01 4 -1.02 4 0 4 C0 2.68 0 1.36 0 0 Z " fill="#C72829" transform="translate(154,35)"/>
<path d="M0 0 C3 1 3 1 4.16796875 2.84765625 C4.50441406 3.57855469 4.84085937 4.30945313 5.1875 5.0625 C5.53167969 5.79597656 5.87585938 6.52945313 6.23046875 7.28515625 C6.48441406 7.85105469 6.73835938 8.41695312 7 9 C6.01 9 5.02 9 4 9 C0 2.25 0 2.25 0 0 Z " fill="#BF4F51" transform="translate(117,97)"/>
<path d="M0 0 C2.16874252 0.50603992 3.99967627 0.99983813 6 2 C6 3.98 6 5.96 6 8 C4.62437146 6.71034824 3.29233607 5.37310707 2 4 C2 3.34 2 2.68 2 2 C1.34 2 0.68 2 0 2 C0 1.34 0 0.68 0 0 Z " fill="#C34745" transform="translate(140,27)"/>
<path d="M0 0 C2.04119788 1.61594832 4.04072937 3.2856382 6 5 C6 5.66 6 6.32 6 7 C6.66 7 7.32 7 8 7 C8 7.66 8 8.32 8 9 C5.125 8.4375 5.125 8.4375 2 7 C0.625 3.375 0.625 3.375 0 0 Z " fill="#BE4F50" transform="translate(143,20)"/>
<path d="M0 0 C1.98 0 3.96 0 6 0 C6 0.99 6 1.98 6 3 C5.34 3 4.68 3 4 3 C4 3.66 4 4.32 4 5 C3.01 4.67 2.02 4.34 1 4 C0.3125 1.9375 0.3125 1.9375 0 0 Z " fill="#CF2326" transform="translate(31,103)"/>
<path d="M0 0 C2.18975773 3.28463659 2.99806563 6.20696275 4 10 C2.68 9.67 1.36 9.34 0 9 C0 6.03 0 3.06 0 0 Z " fill="#CE6360" transform="translate(158,40)"/>
<path d="M0 0 C0.99 0.33 1.98 0.66 3 1 C2.67 1.66 2.34 2.32 2 3 C1.34 3 0.68 3 0 3 C-0.33 4.32 -0.66 5.64 -1 7 C-1.33 6.34 -1.66 5.68 -2 5 C-2.66 5 -3.32 5 -4 5 C-2.25 1.125 -2.25 1.125 0 0 Z " fill="#D12726" transform="translate(38,30)"/>
<path d="M0 0 C0.99 0 1.98 0 3 0 C2.67 0.99 2.34 1.98 2 3 C1.67 3 1.34 3 1 3 C0.67 4.98 0.34 6.96 0 9 C-0.66 8.67 -1.32 8.34 -2 8 C-1.125 1.125 -1.125 1.125 0 0 Z " fill="#C62A28" transform="translate(169,179)"/>
<path d="M0 0 C0.33 0 0.66 0 1 0 C1 2.31 1 4.62 1 7 C0.01 7 -0.98 7 -2 7 C-2.33 8.32 -2.66 9.64 -3 11 C-3 8.69 -3 6.38 -3 4 C-2.34 3.67 -1.68 3.34 -1 3 C-0.67 2.01 -0.34 1.02 0 0 Z " fill="#D85855" transform="translate(6,169)"/>
<path d="M0 0 C2.9375 0.375 2.9375 0.375 6 1 C6.33 1.66 6.66 2.32 7 3 C6.01 3 5.02 3 4 3 C4.33 3.99 4.66 4.98 5 6 C4.34 6.66 3.68 7.32 3 8 C3 7.34 3 6.68 3 6 C2.34 5.67 1.68 5.34 1 5 C1.33 4.01 1.66 3.02 2 2 C1.34 1.34 0.68 0.68 0 0 Z " fill="#CA5455" transform="translate(112,164)"/>
<path d="M0 0 C2.72426311 2.35277269 3.8141763 4.62496331 5 8 C3.35 8 1.7 8 0 8 C-0.33 7.01 -0.66 6.02 -1 5 C-0.34 5 0.32 5 1 5 C0.67 3.35 0.34 1.7 0 0 Z " fill="#CF5E5D" transform="translate(125,88)"/>
<path d="M0 0 C0.66 0.33 1.32 0.66 2 1 C1.67 1.66 1.34 2.32 1 3 C1.66 3 2.32 3 3 3 C3 3.99 3 4.98 3 6 C1.35 5.67 -0.3 5.34 -2 5 C-1.34 3.35 -0.68 1.7 0 0 Z " fill="#C82922" transform="translate(124,72)"/>
<path d="M0 0 C2.31 0 4.62 0 7 0 C7 0.99 7 1.98 7 3 C4.69 3 2.38 3 0 3 C0 2.01 0 1.02 0 0 Z " fill="#D82F2D" transform="translate(82,2)"/>
<path d="M0 0 C0.33 0.99 0.66 1.98 1 3 C1.99 3 2.98 3 4 3 C3.67 4.98 3.34 6.96 3 9 C2.34 8.67 1.68 8.34 1 8 C0.40644386 5.35139573 0.25790731 2.70802678 0 0 Z " fill="#C42A28" transform="translate(2,165)"/>
<path d="M0 0 C0.99 0.33 1.98 0.66 3 1 C2.525625 1.37125 2.05125 1.7425 1.5625 2.125 C-0.52205802 4.62646962 -0.64621491 6.81593418 -1 10 C-1.33 10 -1.66 10 -2 10 C-2 7.03 -2 4.06 -2 1 C-1.34 0.67 -0.68 0.34 0 0 Z " fill="#D67C7E" transform="translate(41,163)"/>
<path d="M0 0 C0.33 0.66 0.66 1.32 1 2 C1.99 2.33 2.98 2.66 4 3 C4 3.66 4 4.32 4 5 C2.68 5.33 1.36 5.66 0 6 C-0.66 4.35 -1.32 2.7 -2 1 C-1.34 0.67 -0.68 0.34 0 0 Z " fill="#D52D2D" transform="translate(40,112)"/>
<path d="M0 0 C2.625 0.6875 2.625 0.6875 5 2 C5.33 2.99 5.66 3.98 6 5 C5.01 5 4.02 5 3 5 C3 4.34 3 3.68 3 3 C0.03 2.505 0.03 2.505 -3 2 C-2.01 1.34 -1.02 0.68 0 0 Z " fill="#BB5254" transform="translate(38,65)"/>
<path d="M0 0 C4.55384615 -0.36923077 4.55384615 -0.36923077 6.8125 1.5 C7.204375 1.995 7.59625 2.49 8 3 C7.67 3.99 7.34 4.98 7 6 C5.83054208 5.19152271 4.66449539 4.37810888 3.5 3.5625 C2.8503125 3.11003906 2.200625 2.65757813 1.53125 2.19140625 C1.0259375 1.79824219 0.520625 1.40507812 0 1 C0 0.67 0 0.34 0 0 Z " fill="#BF5959" transform="translate(127,17)"/>
<path d="M0 0 C1.32 0.66 2.64 1.32 4 2 C3.67 3.32 3.34 4.64 3 6 C2.01 5.67 1.02 5.34 0 5 C-0.33 4.01 -0.66 3.02 -1 2 C-0.67 1.34 -0.34 0.68 0 0 Z " fill="#CC3A37" transform="translate(70,5)"/>
<path d="M0 0 C0.33 0 0.66 0 1 0 C1 1.65 1 3.3 1 5 C2.98 5.495 2.98 5.495 5 6 C4.67 6.66 4.34 7.32 4 8 C2.68 8 1.36 8 0 8 C0 5.36 0 2.72 0 0 Z " fill="#BF5A5C" transform="translate(63,184)"/>
<path d="M0 0 C0.99 0 1.98 0 3 0 C3 1.98 3 3.96 3 6 C2.01 6.33 1.02 6.66 0 7 C0 4.69 0 2.38 0 0 Z " fill="#C72B26" transform="translate(129,166)"/>
<path d="M0 0 C0 0.99 0 1.98 0 3 C-0.99 3.66 -1.98 4.32 -3 5 C-4.65 3.68 -6.3 2.36 -8 1 C-6.865625 1.020625 -5.73125 1.04125 -4.5625 1.0625 C-1.18424326 1.41577477 -1.18424326 1.41577477 0 0 Z " fill="#C86566" transform="translate(163,163)"/>
<path d="M0 0 C1.65 0.33 3.3 0.66 5 1 C3.68 2.32 2.36 3.64 1 5 C0.01 4.67 -0.98 4.34 -2 4 C-1.34 3.67 -0.68 3.34 0 3 C0 2.01 0 1.02 0 0 Z " fill="#C55256" transform="translate(127,130)"/>
<path d="M0 0 C0.66 0.33 1.32 0.66 2 1 C1.67 2.65 1.34 4.3 1 6 C0.01 6.33 -0.98 6.66 -2 7 C-1.125 1.125 -1.125 1.125 0 0 Z " fill="#CF504F" transform="translate(140,120)"/>
<path d="M0 0 C1.98 0.495 1.98 0.495 4 1 C4 1.99 4 2.98 4 4 C2.35 4.33 0.7 4.66 -1 5 C-0.67 3.35 -0.34 1.7 0 0 Z " fill="#D62D27" transform="translate(156,90)"/>
<path d="M0 0 C0.99 0.99 1.98 1.98 3 3 C2 5 2 5 0 6 C-0.99 6 -1.98 6 -3 6 C-3 5.01 -3 4.02 -3 3 C-2.01 3 -1.02 3 0 3 C0 2.01 0 1.02 0 0 Z " fill="#C52426" transform="translate(142,20)"/>
<path d="M0 0 C0.66 0.33 1.32 0.66 2 1 C3.66392045 1.67349161 5.33032028 2.3409159 7 3 C5.3125 4.125 5.3125 4.125 3 5 C0.25 4.125 0.25 4.125 -2 3 C-1.34 2.67 -0.68 2.34 0 2 C0 1.34 0 0.68 0 0 Z " fill="#C95050" transform="translate(62,133)"/>
<path d="M0 0 C0.66 0.99 1.32 1.98 2 3 C1.01 4.98 0.02 6.96 -1 9 C-1.66 8.67 -2.32 8.34 -3 8 C-2.67 6.35 -2.34 4.7 -2 3 C-1.34 3 -0.68 3 0 3 C0 2.01 0 1.02 0 0 Z " fill="#D1403F" transform="translate(37,103)"/>
<path d="M0 0 C0.66 0 1.32 0 2 0 C1.39816251 2.02045442 0.72693904 4.02111039 0 6 C-0.99 6.495 -0.99 6.495 -2 7 C-2.125 4.625 -2.125 4.625 -2 2 C-1.34 1.34 -0.68 0.68 0 0 Z " fill="#C24F55" transform="translate(158,98)"/>
<path d="M0 0 C-0.33 0.99 -0.66 1.98 -1 3 C-1 2.34 -1 1.68 -1 1 C-2.98 1.66 -4.96 2.32 -7 3 C-7 2.01 -7 1.02 -7 0 C-3.86650268 -1.04449911 -3.01031744 -0.93423645 0 0 Z " fill="#D13932" transform="translate(161,95)"/>
<path d="M0 0 C2.475 0.495 2.475 0.495 5 1 C5.33 3.31 5.66 5.62 6 8 C3.87961365 5.38485683 1.86908256 2.80362384 0 0 Z " fill="#C35455" transform="translate(119,44)"/>
</svg>
