<?xml version="1.0" encoding="UTF-8"?>
<svg version="1.1" xmlns="http://www.w3.org/2000/svg" width="595" height="297">
<path d="M0 0 C21.73345538 -0.07045126 43.46689162 -0.12316348 65.2004385 -0.15543652 C75.29439069 -0.17082763 85.38827144 -0.19176649 95.48217773 -0.22631836 C104.29218079 -0.25646069 113.10213205 -0.27563114 121.91218525 -0.28226548 C126.56600275 -0.28613624 131.21967222 -0.29506566 135.8734417 -0.31719017 C216.16274554 -0.68375678 216.16274554 -0.68375678 244.32421875 26.1328125 C251.93715759 34.29032653 258.18701265 43.06909808 261 54 C261.25946411 54.98371582 261.25946411 54.98371582 261.52416992 55.98730469 C266.71588064 77.08597463 261.75805837 98.82055464 251.08203125 117.32421875 C234.33132696 143.4365941 208.74819503 157.21017471 179.35546875 164.37109375 C176.43950008 164.91762571 173.94499232 165.05054299 171 165 C179.76990788 179.51883587 188.56569229 194.01758261 197.59814453 208.37524414 C200.61752835 213.17616928 203.61051417 217.98913448 206.54296875 222.84375 C207.11499023 223.78549072 207.68701172 224.72723145 208.27636719 225.69750977 C209.3379917 227.44862851 210.39273467 229.20394991 211.43847656 230.96459961 C214.63912108 236.22623287 218.22490755 240.69956567 222.46313477 245.17211914 C224 247 224 247 224 249 C230.79347234 252.96285886 238.83846908 253.44570729 246.5 254.125 C247.4178125 254.21136719 248.335625 254.29773438 249.28125 254.38671875 C251.520385 254.59663766 253.75987727 254.80094909 256 255 C255.39447052 260.32053646 254.55335248 265.47350905 253.40625 270.7109375 C253.17887146 271.75225327 253.17887146 271.75225327 252.94689941 272.81460571 C252.62925307 274.26529287 252.3098599 275.71559858 251.98876953 277.16552734 C251.49684159 279.38927751 251.01172256 281.61443838 250.52734375 283.83984375 C248.13702343 294.72595314 248.13702343 294.72595314 247 297 C220.27 297 193.54 297 166 297 C142 253.5 142 253.5 138.01171875 246.26953125 C135.65097484 241.98998105 133.28823798 237.71154038 130.92312622 233.43440247 C129.21895085 230.3524515 127.51553836 227.27007939 125.8125 224.1875 C125.48032471 223.58630341 125.14814941 222.98510681 124.8059082 222.36569214 C119.61638731 212.96943251 114.48931713 203.5404561 109.39892578 194.09008789 C105.81769708 187.45769789 102.12317429 180.90566859 98.29296875 174.4140625 C97 172 97 172 97 170 C89.08 170 81.16 170 73 170 C72.46890625 172.59359375 71.9378125 175.1871875 71.390625 177.859375 C69.72359743 185.86132001 67.88976353 193.81732339 65.984375 201.765625 C65.72160767 202.8642688 65.45884033 203.9629126 65.18811035 205.09484863 C64.09951545 209.63981896 63.00841809 214.18413768 61.90722656 218.72607422 C61.09253877 222.09177098 60.28772328 225.45970638 59.484375 228.828125 C59.23443787 229.84795471 58.98450073 230.86778442 58.72698975 231.91851807 C56.6330641 240.58146628 56.6330641 240.58146628 57.6875 249.3125 C60.03216374 252.32706767 63.28618366 252.90078183 66.9543457 253.41064453 C68.01741943 253.48395996 69.08049316 253.55727539 70.17578125 253.6328125 C71.33271484 253.71660156 72.48964844 253.80039063 73.68164062 253.88671875 C74.87982422 253.96535156 76.07800781 254.04398438 77.3125 254.125 C78.53001953 254.21136719 79.74753906 254.29773438 81.00195312 254.38671875 C84.00087389 254.59840727 87.00011252 254.80256798 90 255 C89.39447052 260.32053646 88.55335248 265.47350905 87.40625 270.7109375 C87.17887146 271.75225327 87.17887146 271.75225327 86.94689941 272.81460571 C86.62925307 274.26529287 86.3098599 275.71559858 85.98876953 277.16552734 C85.49684159 279.38927751 85.01172256 281.61443838 84.52734375 283.83984375 C82.13702343 294.72595314 82.13702343 294.72595314 81 297 C32.82 297 -15.36 297 -65 297 C-62.75 283.5 -62.75 283.5 -61.2734375 277.265625 C-61.12089508 276.61672302 -60.96835266 275.96782104 -60.81118774 275.29925537 C-60.33610342 273.28195452 -59.85568702 271.26597224 -59.375 269.25 C-59.04651572 267.85945982 -58.71838863 266.46883522 -58.390625 265.078125 C-57.59785115 261.71777001 -56.80029965 258.35857168 -56 255 C-55.2793335 254.9498877 -54.55866699 254.89977539 -53.81616211 254.84814453 C-50.52267969 254.61476689 -47.23013871 254.36998256 -43.9375 254.125 C-42.80376953 254.04636719 -41.67003906 253.96773437 -40.50195312 253.88671875 C-29.69027098 253.52419376 -29.69027098 253.52419376 -20.8125 248.1875 C-14.66632162 240.00854728 -13.21616117 228.22675018 -11.01074219 218.42138672 C-10.74015488 217.23700516 -10.46956757 216.0526236 -10.19078064 214.83235168 C-9.45761364 211.61885675 -8.72877995 208.40441799 -8.0019331 205.18948889 C-7.22855217 201.77378861 -6.44942285 198.35939955 -5.67095947 194.94485474 C-4.19275487 188.45717039 -2.71952594 181.96836711 -1.24816346 175.479128 C0.39629626 168.22747442 2.04600169 160.97701802 3.69631863 153.72669554 C5.7612772 144.6546612 7.82543608 135.58244712 9.88513184 126.50921631 C12.47036365 115.12142601 15.05587788 103.73375827 17.66992188 92.35253906 C17.96106936 91.08400054 17.96106936 91.08400054 18.2580986 89.78983498 C19.10933479 86.08190328 19.96228876 82.37438569 20.81890869 78.66769409 C21.24064362 76.83309128 21.24064362 76.83309128 21.67089844 74.96142578 C21.90693787 73.93945099 22.14297729 72.9174762 22.38616943 71.86453247 C23.49846069 66.67385837 24.15613563 61.75062476 24.1875 56.4375 C24.20167969 55.34308594 24.21585937 54.24867187 24.23046875 53.12109375 C23.99454829 49.92617097 23.59321691 47.77933423 22 45 C18.65522269 43.77789781 15.23360859 43.80016632 11.703125 43.68359375 C10.49785156 43.64169922 9.29257812 43.59980469 8.05078125 43.55664062 C6.16939453 43.49766602 6.16939453 43.49766602 4.25 43.4375 C2.98027344 43.39431641 1.71054687 43.35113281 0.40234375 43.30664062 C-2.73166539 43.20060272 -5.86577132 43.09926834 -9 43 C-7.5624494 33.47820818 -5.5334089 24.12708758 -3.375 14.75 C-3.04655561 13.31127079 -2.71842868 11.87246907 -2.390625 10.43359375 C-1.59739665 6.95488818 -0.7999164 3.47717458 0 0 Z M100 48 C97.30364512 57.88186656 94.8221385 67.78492003 92.546875 77.7734375 C92.23891 79.11728456 91.93073916 80.46108446 91.62237549 81.80484009 C90.98554887 84.58241323 90.35044852 87.36037274 89.71679688 90.13867188 C88.90345285 93.70465839 88.08672117 97.26985856 87.26887131 100.83481407 C86.63658676 103.59169726 86.00547829 106.3488485 85.37479401 109.10609818 C84.9275424 111.06116366 84.47973545 113.01610208 84.03192139 114.97103882 C83.76454163 116.14381378 83.49716187 117.31658875 83.22167969 118.52490234 C82.98503601 119.56109711 82.74839233 120.59729187 82.50457764 121.66488647 C81.96479865 123.76473904 81.96479865 123.76473904 82 125 C87.6701629 125.02509434 93.34029206 125.04304242 99.01049805 125.05493164 C100.93140223 125.05989853 102.85230276 125.0666743 104.77319336 125.07543945 C140.06794537 126.26833612 140.06794537 126.26833612 171.19921875 112.10546875 C180.4308118 102.62769988 185.43164481 90.58822946 185.26953125 77.45703125 C184.71312303 70.320491 182.74765711 64.21149661 177.5625 59.125 C161.7321583 46.93884378 139.90560625 47.56739307 121 47.8125 C118.95313495 47.82758865 116.90625903 47.84126959 114.859375 47.85351562 C109.9059751 47.88615633 104.95311202 47.93770273 100 48 Z " fill="#D13337" transform="translate(332,0)"/>
<path d="M0 0 C70.62 0 141.24 0 214 0 C241 88.2 241 88.2 241 91 C221.2 96.94 221.2 96.94 201 103 C199.35 99.37 197.7 95.74 196 92 C188.66998283 76.01182035 179.9937636 61.72953039 163 55 C158.05445591 53.42938215 153.07628734 52.07303635 148 51 C147.17822266 50.82339844 146.35644531 50.64679687 145.50976562 50.46484375 C136.12959279 48.66822494 126.76648325 48.55605081 117.25 48.375 C115.57029445 48.33672166 113.89060645 48.29766462 112.2109375 48.2578125 C108.14077139 48.16291066 104.07051412 48.07850004 100 48 C99.85594727 49.74337646 99.85594727 49.74337646 99.70898438 51.52197266 C98.90997864 58.6659114 97.22208371 65.64261603 95.65625 72.6484375 C95.32340581 74.15288349 94.99093326 75.65741175 94.65881348 77.16201782 C93.96567684 80.29762081 93.26948527 83.43252314 92.57080078 86.56689453 C91.67535698 90.58417501 90.78547827 94.60266173 89.89759064 98.62161827 C89.21271371 101.72054269 88.52602444 104.81906301 87.83866882 107.91743851 C87.50983717 109.39974843 87.18131332 110.88212667 86.85310364 112.36457443 C86.39528481 114.43011378 85.93529334 116.49515663 85.47460938 118.56005859 C85.08275452 120.32136612 85.08275452 120.32136612 84.6829834 122.11825562 C84 125 84 125 83 128 C97.73590017 126.54827672 97.73590017 126.54827672 110 119 C114.74120377 112.52852207 116.14116966 105.8113137 117.25 98 C117.56464721 95.93703079 117.88219106 93.87450054 118.203125 91.8125 C118.39890137 90.46091797 118.39890137 90.46091797 118.59863281 89.08203125 C119 87 119 87 120 86 C123.02977804 85.91128727 126.03667022 85.8848065 129.06640625 85.90234375 C129.97502914 85.9037587 130.88365204 85.90517365 131.81980896 85.90663147 C134.73407221 85.91224807 137.64825981 85.92480335 140.5625 85.9375 C142.53320202 85.94251286 144.50390524 85.94707614 146.47460938 85.95117188 C151.31643559 85.96222289 156.15820495 85.97949862 161 86 C153.98669621 117.12037764 146.89784181 148.22278044 139.75 179.3125 C139.55698933 180.15200951 139.36397865 180.99151901 139.16511917 181.8564682 C136.77818013 192.23797585 134.38929255 202.61903345 132 213 C118.8 213 105.6 213 92 213 C92 207.60165234 92.46504618 203.32452723 93.625 198.1875 C95.31953168 189.86915131 95.37840082 183.28206508 90.6875 176 C87.00925635 171.47129539 83.30295729 170.9760912 77.6875 170.375 C76.12559683 170.24275126 74.56324232 170.11534604 73 170 C72.90017822 171.04188477 72.80035645 172.08376953 72.69750977 173.15722656 C71.91618432 179.37345626 70.32349189 185.40586181 68.83984375 191.484375 C68.52662785 192.78922577 68.21418815 194.09426307 67.90248108 195.3994751 C66.58787036 200.90206523 65.26706323 206.40307988 63.92651367 211.89941406 C63.10312816 215.27755234 62.2932916 218.65870964 61.49160957 222.04206085 C61.04043056 223.9296247 60.57486095 225.81373066 60.10887146 227.69769287 C58.17451183 235.89777743 56.2630111 244.78903331 59 253 C66.20333067 253.80575274 73.38421104 254.26737414 80.625 254.5625 C84.04875 254.706875 87.4725 254.85125 91 255 C88.03 268.86 85.06 282.72 82 297 C33.82 297 -14.36 297 -64 297 C-63.33906617 291.05159553 -62.59382456 285.63488732 -61.15234375 279.90234375 C-60.88811363 278.82274132 -60.88811363 278.82274132 -60.61854553 277.72132874 C-60.06350018 275.45870728 -59.50066026 273.1981137 -58.9375 270.9375 C-58.55611948 269.38880012 -58.17525569 267.83997289 -57.79492188 266.29101562 C-56.86923561 262.52584829 -55.93656158 258.76247623 -55 255 C-54.3201001 254.95512451 -53.6402002 254.91024902 -52.93969727 254.86401367 C-49.81299943 254.65067878 -46.6878875 254.41921291 -43.5625 254.1875 C-42.49322266 254.11724609 -41.42394531 254.04699219 -40.32226562 253.97460938 C-29.80627894 253.30872835 -29.80627894 253.30872835 -20.50993347 248.80566406 C-14.61422175 241.75523768 -13.62316232 228.55862619 -11.6640625 219.76953125 C-11.34909468 218.37413454 -11.03368023 216.97883858 -10.71786499 215.58363342 C-9.86038888 211.78935002 -9.00926198 207.99366881 -8.15948486 204.19765472 C-7.25276536 200.15139175 -6.34089212 196.10628999 -5.4296875 192.06103516 C-4.04128322 185.89459651 -2.65531262 179.72761719 -1.27145004 173.56015778 C1.28981374 162.14661749 3.86623721 150.73655032 6.44741821 139.32749939 C8.22078355 131.48853086 9.99021069 123.64867522 11.75846672 115.80855274 C13.00068524 110.30114315 14.24431904 104.79406237 15.49139404 99.28775024 C16.6741658 94.06446162 17.85210157 88.84010454 19.0265007 83.61492729 C19.46179205 81.68196836 19.8987636 79.7493869 20.33754349 77.81721687 C20.94182726 75.15502649 21.53998779 72.4915287 22.13671875 69.82763672 C22.31216909 69.06128812 22.48761944 68.29493952 22.66838646 67.50536823 C25.47114259 55.9156947 25.47114259 55.9156947 22 45 C18.33489645 43.09709577 15.13645189 42.71189083 11.04296875 42.5859375 C9.93115234 42.54726563 8.81933594 42.50859375 7.67382812 42.46875 C6.52333984 42.4378125 5.37285156 42.406875 4.1875 42.375 C3.01767578 42.33632813 1.84785156 42.29765625 0.64257812 42.2578125 C-2.23812564 42.1637487 -5.11882654 42.07810123 -8 42 C-6.5819023 27.81902295 -3.04554499 13.9224914 0 0 Z " fill="#D13337" transform="translate(64,0)"/>
</svg>
